<svg width="64" height="64" viewBox="0 0 64 64" fill="none" xmlns="http://www.w3.org/2000/svg">
<g filter="url(#filter0_d_1524_4)">
<circle cx="32" cy="32" r="22" fill="#FFF500"/>
<circle cx="32" cy="32" r="21" stroke="white" stroke-width="2"/>
</g>
<path d="M27.5 26.5H26C25.337 26.5 24.7011 26.7634 24.2322 27.2322C23.7634 27.7011 23.5 28.337 23.5 29V34.5V35H24H25V42V42.5H25.5H29.5H30V42V35H31H31.5V34.5V29C31.5 28.337 31.2366 27.7011 30.7678 27.2322C30.2989 26.7634 29.663 26.5 29 26.5H27.5ZM27.5 26.5C26.837 26.5 26.2011 26.2366 25.7322 25.7678C25.2634 25.2989 25 24.663 25 24C25 23.337 25.2634 22.7011 25.7322 22.2322C26.2011 21.7634 26.837 21.5 27.5 21.5C28.163 21.5 28.7989 21.7634 29.2678 22.2322C29.7366 22.7011 30 23.337 30 24C30 24.663 29.7366 25.2989 29.2678 25.7678C28.7989 26.2366 28.163 26.5 27.5 26.5ZM36.5 34.5H35H34.6535L34.5318 34.8244L33.0318 38.8244L32.7785 39.5H33.5H34.5V42V42.5H35H38H38.5V42V39.5H39.5H40.2215L39.9682 38.8244L38.4682 34.8244L38.3465 34.5H38H36.5ZM36.5 34.5C37.163 34.5 37.7989 34.2366 38.2678 33.7678C38.7366 33.2989 39 32.663 39 32C39 31.337 38.7366 30.7011 38.2678 30.2322C37.7989 29.7634 37.163 29.5 36.5 29.5C35.837 29.5 35.2011 29.7634 34.7322 30.2322C34.2634 30.7011 34 31.337 34 32C34 32.663 34.2634 33.2989 34.7322 33.7678C35.2011 34.2366 35.837 34.5 36.5 34.5Z" fill="white" stroke="#838383"/>
<defs>
<filter id="filter0_d_1524_4" x="0" y="0" width="64" height="64" filterUnits="userSpaceOnUse" color-interpolation-filters="sRGB">
<feFlood flood-opacity="0" result="BackgroundImageFix"/>
<feColorMatrix in="SourceAlpha" type="matrix" values="0 0 0 0 0 0 0 0 0 0 0 0 0 0 0 0 0 0 127 0" result="hardAlpha"/>
<feOffset/>
<feGaussianBlur stdDeviation="5"/>
<feComposite in2="hardAlpha" operator="out"/>
<feColorMatrix type="matrix" values="0 0 0 0 1 0 0 0 0 0.96 0 0 0 0 0 0 0 0 1 0"/>
<feBlend mode="normal" in2="BackgroundImageFix" result="effect1_dropShadow_1524_4"/>
<feBlend mode="normal" in="SourceGraphic" in2="effect1_dropShadow_1524_4" result="shape"/>
</filter>
</defs>
</svg>
