<svg width="129" height="193" viewBox="0 0 129 193" fill="none" xmlns="http://www.w3.org/2000/svg">
<path d="M84.8903 7.67493C77.6393 -3.82307 62.3683 -0.985044 55.1463 6.91496C46.6243 0.439956 31.0923 0.387947 26.0213 12.9999C14.9283 40.5929 59.6343 56.5429 59.6343 56.5429C59.6343 56.5429 100.754 32.8299 84.8903 7.67493Z" fill="#853E93"/>
<path d="M58.5833 51.5492C55.4203 52.9022 54.2363 57.0192 56.0253 58.8952C57.8143 60.7702 59.3273 57.1562 60.8743 57.6952C62.4203 58.2342 65.0043 59.3882 65.1573 57.7232C65.3103 56.0572 63.7983 49.3182 58.5833 51.5492Z" fill="#66306F"/>
<path d="M35.2813 9.76815C31.8333 12.5842 29.3513 17.0071 30.5553 21.5411C31.0863 23.5421 34.1573 22.6321 33.6293 20.6421C32.8273 17.6211 34.6603 14.3731 36.9653 12.4911C38.5393 11.2051 36.8763 8.46515 35.2813 9.76815Z" fill="white"/>
<path d="M32.0543 26.9569C32.0833 27.1999 32.1213 27.4409 32.1633 27.6819C32.1713 27.7299 32.2643 28.2439 32.2323 27.9779C32.3353 28.8439 32.9403 29.5609 33.8723 29.5389C34.6823 29.5199 35.5363 28.7659 35.4333 27.8989C35.4043 27.6559 35.3663 27.4149 35.3243 27.1739C35.3163 27.1259 35.2233 26.6119 35.2553 26.8769C35.1523 26.0109 34.5473 25.2939 33.6153 25.3159C32.8043 25.3359 31.9513 26.0909 32.0543 26.9569Z" fill="white"/>
<path d="M84.8903 7.67499C80.8823 1.31999 74.4253 -0.649998 68.2303 0.188002C74.5413 5.34 78.5733 13.179 78.5733 21.961C78.5733 37.478 65.9953 50.056 50.4783 50.056C48.7013 50.056 46.9653 49.883 45.2793 49.568C52.8833 54.132 59.6343 56.542 59.6343 56.542C59.6343 56.542 100.754 32.83 84.8903 7.67499Z" fill="#6F2D7F"/>
<path d="M49.0113 192.714C48.8743 192.714 48.7203 192.557 48.6533 192.349C48.6053 192.2 48.5653 191.919 48.8453 191.717C56.9223 185.868 63.7323 179.684 69.6653 172.813L70.0283 172.393C78.1153 163.03 87.2803 152.418 86.6543 138.909C86.6453 138.715 86.7153 138.642 86.7383 138.618C86.8123 138.539 86.9433 138.493 87.0883 138.493C87.1743 138.493 87.6063 138.516 87.6273 138.97C88.2023 151.373 80.7393 161.262 72.3703 171.134C65.3773 179.383 57.8083 186.414 49.2313 192.624C49.1733 192.665 49.0893 192.714 49.0113 192.714Z" fill="#4F3E23"/>
<path d="M49.0983 192.639C48.8993 192.639 48.6833 192.514 48.5863 192.344C48.5413 192.263 48.4943 192.133 48.6153 191.931C56.9683 177.929 63.6653 161.017 69.6913 138.711C74.8063 119.776 78.3163 101.428 80.1213 84.1768C80.1633 83.7788 80.5213 83.6729 80.7273 83.6729C80.8633 83.6729 80.9853 83.7149 81.0443 83.7809C81.0923 83.8359 81.1113 83.9238 81.0993 84.0428C79.1523 102.642 75.4883 121.634 70.2083 140.492C66.0002 155.525 59.8383 175.01 49.4583 192.41C49.3673 192.566 49.2533 192.639 49.0983 192.639Z" fill="#4F3E23"/>
<path d="M49.1023 192.642C48.9043 192.642 48.6903 192.517 48.5923 192.346C48.5183 192.216 48.5263 192.083 48.6183 191.928C54.2043 182.432 56.2173 171.069 57.4493 161.205C58.7723 150.61 59.4453 139.247 59.6283 124.36C59.7203 116.901 59.5903 109.28 59.4633 101.911C59.2153 87.3829 58.9583 72.3608 60.3853 57.7578C60.4333 57.2708 60.9283 57.2568 60.9843 57.2568C61.1213 57.2568 61.2443 57.2989 61.3063 57.3669C61.3553 57.4219 61.3753 57.5118 61.3633 57.6318C59.9103 72.4948 60.1703 87.7338 60.4213 102.472C60.5673 110.996 60.7173 119.811 60.5323 128.429C60.2813 140.111 59.7863 152.618 57.8933 164.93C56.5383 173.736 54.4763 183.888 49.4583 192.414C49.3663 192.569 49.2543 192.642 49.1023 192.642Z" fill="#4F3E23"/>
<path d="M48.9943 192.619C48.8313 192.619 48.7033 192.543 48.6023 192.389C31.1073 165.446 26.9613 132.964 25.3033 107.677C25.2903 107.486 25.3553 107.417 25.3773 107.394C25.4473 107.32 25.5743 107.275 25.7163 107.275C25.7703 107.275 26.2463 107.289 26.2773 107.761C27.9233 132.861 32.0473 165.115 49.4743 191.953C49.5933 192.136 49.5603 192.25 49.5183 192.327C49.4273 192.493 49.2013 192.619 48.9943 192.619Z" fill="#4F3E23"/>
<path d="M106.818 85.0814C118.918 72.9811 118.918 53.3627 106.818 41.2624C94.7176 29.1621 75.0991 29.1621 62.9988 41.2624C50.8986 53.3627 50.8986 72.9811 62.9989 85.0814C75.0991 97.1817 94.7176 97.1816 106.818 85.0814Z" fill="#54E2C7"/>
<path d="M101.817 37.2017C106.86 44.2487 108.942 53.3547 106.769 62.4437C102.79 79.0867 86.0723 89.3537 69.4293 85.3737C65.8793 84.5247 62.6223 83.0916 59.7283 81.2086C63.9193 87.0656 70.1523 91.5007 77.7063 93.3067C94.3493 97.2857 111.067 87.0196 115.046 70.3766C118.177 57.2836 112.488 44.1497 101.817 37.2017Z" fill="#3CD3B6"/>
<path d="M69.9752 43.4029C74.3162 40.2789 79.3982 38.5359 84.7712 38.7919C86.4532 38.8719 86.3562 36.2589 84.6812 36.1789C78.9102 35.9039 73.2722 37.8169 68.6072 41.1749C67.2472 42.1549 68.6052 44.3889 69.9752 43.4029Z" fill="white"/>
<path d="M64.4263 49.1655C65.1553 48.3165 65.8823 47.4725 66.6743 46.6805C67.8703 45.4855 65.9763 43.6845 64.7863 44.8725C63.9933 45.6645 63.2673 46.5075 62.5383 47.3575C61.4423 48.6335 63.3273 50.4445 64.4263 49.1655Z" fill="white"/>
<path d="M78.6713 89.2746C74.6823 89.8616 72.1093 94.1726 73.5753 96.8326C75.0413 99.4926 77.8373 95.8496 79.4283 96.9236C81.0193 97.9966 83.6013 100.077 84.2733 98.2356C84.9443 96.3936 85.2473 88.3056 78.6713 89.2746Z" fill="#55BFAC"/>
<path d="M125.257 110.334C122.38 97.0489 107.06 94.4879 97.5702 99.4379C91.7792 90.4369 77.2032 85.0709 68.1222 95.1859C48.2542 117.315 84.8002 147.604 84.8002 147.604C84.8002 147.604 131.552 139.4 125.257 110.334Z" fill="#EA3B54"/>
<path d="M85.5223 142.553C82.0873 142.742 79.5653 146.205 80.6043 148.579C81.6433 150.954 84.3022 148.075 85.5702 149.111C86.8392 150.147 88.8712 152.115 89.5852 150.603C90.2982 149.091 91.1853 142.241 85.5223 142.553Z" fill="#D21E32"/>
<path d="M77.9293 95.3191C73.7263 96.7851 69.8792 100.091 69.4582 104.763C69.2722 106.825 72.4693 107.021 72.6543 104.97C72.9343 101.857 75.7693 99.4331 78.5783 98.4531C80.4983 97.7841 79.8733 94.6401 77.9293 95.3191Z" fill="white"/>
<path d="M69.0123 110.365C68.9563 110.603 68.9093 110.843 68.8663 111.084C68.8583 111.132 68.7683 111.647 68.8303 111.386C68.6303 112.235 68.9533 113.116 69.8363 113.414C70.6043 113.673 71.6643 113.257 71.8643 112.408C71.9203 112.17 71.9673 111.93 72.0103 111.689C72.0183 111.641 72.1083 111.126 72.0463 111.387C72.2463 110.538 71.9233 109.657 71.0393 109.359C70.2733 109.099 69.2133 109.516 69.0123 110.365Z" fill="white"/>
<path d="M125.257 110.334C123.305 101.321 115.625 97.249 107.925 97.105C110.696 101.548 112.303 106.792 112.303 112.414C112.303 128.415 99.3323 141.386 83.3313 141.386C81.4403 141.386 79.5943 141.199 77.8053 140.853C81.7043 145.036 84.8013 147.604 84.8013 147.604C84.8013 147.604 131.552 139.4 125.257 110.334Z" fill="#D62748"/>
<path d="M26.7563 115.784C26.7563 115.784 19.7063 120.309 20.5463 121.895C21.3853 123.481 24.7433 120.496 25.2093 121.895C25.6753 123.294 26.3283 123.574 27.1683 123.481C28.0083 123.388 27.7283 121.149 29.3133 121.802C30.8983 122.455 34.2563 123.108 33.3233 121.056C32.3913 119.003 29.4223 115.922 26.7563 115.784Z" fill="#E43680"/>
<path d="M26.7563 53.8721C17.4723 53.8721 0.102295 63.5331 0.000295486 90.2511C-0.102705 117.338 26.7563 119.559 26.7563 119.559C26.7563 119.559 53.6153 117.339 53.5123 90.2511C53.4103 63.5331 36.0403 53.8721 26.7563 53.8721Z" fill="#F94EA0"/>
<path d="M17.3874 60.6462C12.2314 63.5492 8.11037 69.3732 6.62037 75.0182C6.21937 76.5362 8.56636 77.1802 8.96636 75.6652C10.3004 70.6092 13.9894 65.3512 18.6154 62.7472C19.9814 61.9772 18.7554 59.8752 17.3874 60.6462Z" fill="white"/>
<path d="M5.41534 80.6361C5.18734 81.1371 5.05534 81.6101 5.03834 82.1641C5.01834 82.8271 5.60634 83.3801 6.25434 83.3801C6.93234 83.3801 7.45033 82.8261 7.47033 82.1641C7.48133 81.8151 7.40733 82.4031 7.47933 82.0301C7.48233 82.0141 7.60933 81.6551 7.51533 81.8631C7.79033 81.2601 7.69334 80.5591 7.07934 80.1991C6.55134 79.8901 5.69034 80.0331 5.41534 80.6361Z" fill="white"/>
<path d="M26.7563 53.8721C24.7013 53.8721 22.2493 54.3481 19.6763 55.3751C33.3973 58.0591 43.7522 70.142 43.7522 84.649C43.7522 101.126 30.3952 114.483 13.9182 114.483C13.3882 114.483 12.8613 114.468 12.3383 114.441C19.3553 118.94 26.7563 119.559 26.7563 119.559C26.7563 119.559 53.6153 117.339 53.5123 90.2511C53.4103 63.5321 36.0403 53.8721 26.7563 53.8721Z" fill="#E53993"/>
</svg>
