<svg width="40" height="42" viewBox="0 0 40 42" fill="none" xmlns="http://www.w3.org/2000/svg">
<path d="M26.25 33.4775C24.8667 33.4775 23.75 32.0075 23.75 30.1875C23.75 28.385 24.8667 26.915 26.25 26.915C27.6333 26.915 28.75 28.385 28.75 30.1875C28.75 32.0075 27.6333 33.4775 26.25 33.4775ZM20 19.6875C17.9333 19.6875 16.25 18.2175 16.25 16.415C16.25 14.595 17.9333 13.125 20 13.125C22.0667 13.125 23.75 14.595 23.75 16.415C23.75 18.2175 22.0667 19.6875 20 19.6875ZM13.75 33.4775C12.3667 33.4775 11.25 32.0075 11.25 30.1875C11.25 28.385 12.3667 26.915 13.75 26.915C15.1333 26.915 16.25 28.385 16.25 30.1875C16.25 32.0075 15.1333 33.4775 13.75 33.4775ZM20 14.4375C20.6833 14.4375 21.25 15.0325 21.25 15.75C21.25 16.4675 20.6833 17.0625 20 17.0625C19.3167 17.0625 18.75 16.4675 18.75 15.75C18.75 15.0325 19.3167 14.4375 20 14.4375ZM31.25 21C30.7167 21 30.2 21.1225 29.7333 21.35C28.9333 20.2825 27.85 19.3725 26.55 18.6725C27.5 17.2725 28.0667 15.575 28.0667 13.7375C28.0667 13.7025 28.0667 13.6675 28.0667 13.6325C29.8833 13.23 31.25 11.5325 31.25 9.485C31.25 7.1575 29.4333 5.25 27.2167 5.25C26.0667 5.25 25 5.7575 24.3 6.5625C23.05 5.74 21.5833 5.25 20 5.25C18.4167 5.25 16.9333 5.74 15.7 6.5625C15 5.7575 13.9333 5.25 12.7833 5.25C10.5667 5.25 8.75 7.1575 8.75 9.485C8.75 11.515 10.1167 13.2125 11.9167 13.6325C11.9167 13.6675 11.9167 13.7025 11.9167 13.7375C11.9167 15.575 12.5 17.29 13.4333 18.6725C12.15 19.3725 11.0667 20.2825 10.2667 21.35C9.8 21.1225 9.28333 21 8.75 21C6.66667 21 5 22.75 5 24.9375C5 27.125 6.66667 28.875 8.75 28.875C8.78333 28.875 8.81667 28.875 8.85 28.875C8.78333 29.295 8.75 29.75 8.75 30.1875C8.75 33.81 10.9833 36.75 13.75 36.75C15.4333 36.75 16.9167 35.6475 17.8333 33.9675C18.5333 34.0725 19.25 34.125 20 34.125C20.75 34.125 21.4667 34.0725 22.1667 33.9675C23.0833 35.6475 24.5667 36.75 26.25 36.75C29.0167 36.75 31.25 33.81 31.25 30.1875C31.25 29.75 31.2167 29.295 31.15 28.875C31.1833 28.875 31.2167 28.875 31.25 28.875C33.3333 28.875 35 27.125 35 24.9375C35 22.75 33.3333 21 31.25 21Z" fill="#838383"/>
</svg>
