<svg width="354" height="174" viewBox="0 0 354 174" fill="none" xmlns="http://www.w3.org/2000/svg">
<path d="M0.292825 165.792C-0.0977 166.183 -0.0976994 166.816 0.292824 167.207L6.65679 173.57C7.04731 173.961 7.68048 173.961 8.071 173.57C8.46152 173.18 8.46152 172.547 8.071 172.156L2.41415 166.499L8.071 160.843C8.46152 160.452 8.46152 159.819 8.071 159.428C7.68048 159.038 7.04731 159.038 6.65679 159.428L0.292825 165.792ZM0.999931 167.499C112.748 167.499 195.56 159.883 253.143 135.294C281.96 122.989 304.486 106.423 321.156 84.4163C337.824 62.4129 348.593 35.0298 353.988 1.15729L352.012 0.842729C346.657 34.4702 335.988 61.5246 319.562 83.2086C303.139 104.89 280.915 121.261 252.357 133.455C195.189 157.866 112.752 165.499 0.999932 165.499L0.999931 167.499Z" fill="#F1F1F1"/>
</svg>
