<svg width="34" height="35" viewBox="0 0 34 35" fill="none" xmlns="http://www.w3.org/2000/svg">
<path d="M26.9166 26.7021V29.1667C26.9166 29.9402 26.6181 30.6821 26.0868 31.2291C25.5554 31.776 24.8348 32.0833 24.0833 32.0833H9.91665C9.1652 32.0833 8.44453 31.776 7.91318 31.2291C7.38182 30.6821 7.08331 29.9402 7.08331 29.1667V23.7708C6.43165 23.5083 5.59581 23.3333 4.24998 23.3333C3.87426 23.3333 3.51392 23.1797 3.24825 22.9062C2.98257 22.6327 2.83331 22.2618 2.83331 21.875C2.83331 21.4882 2.98257 21.1173 3.24825 20.8438C3.51392 20.5703 3.87426 20.4167 4.24998 20.4167C5.41165 20.4167 6.33248 20.5333 7.08331 20.7229V17.9375C6.43165 17.675 5.59581 17.5 4.24998 17.5C3.87426 17.5 3.51392 17.3464 3.24825 17.0729C2.98257 16.7994 2.83331 16.4284 2.83331 16.0417C2.83331 15.6549 2.98257 15.284 3.24825 15.0105C3.51392 14.737 3.87426 14.5833 4.24998 14.5833C5.41165 14.5833 6.33248 14.7 7.08331 14.8896V12.1042C6.43165 11.8417 5.59581 11.6667 4.24998 11.6667C3.87426 11.6667 3.51392 11.513 3.24825 11.2395C2.98257 10.966 2.83331 10.5951 2.83331 10.2083C2.83331 9.82156 2.98257 9.45063 3.24825 9.17714C3.51392 8.90365 3.87426 8.75 4.24998 8.75C5.41165 8.75 6.33248 8.86667 7.08331 9.05625V5.83334C7.08331 5.05979 7.38182 4.31792 7.91318 3.77094C8.44453 3.22396 9.1652 2.91667 9.91665 2.91667H24.0833C24.8348 2.91667 25.5554 3.22396 26.0868 3.77094C26.6181 4.31792 26.9166 5.05979 26.9166 5.83334V8.98334C29.4383 9.43542 30.515 10.3979 30.7558 10.6313C31.3083 11.2 31.3083 12.1333 30.7558 12.7021C30.2033 13.2708 29.4667 13.2563 28.7441 12.7021C28.7441 12.7021 27.2708 11.6667 24.0833 11.6667C22.2983 11.6667 21.1225 12.2646 19.7625 12.9792C18.2891 13.7229 16.6316 14.5833 14.1666 14.5833C13.6566 14.5833 13.1891 14.5833 12.75 14.525V11.5938C13.175 11.6667 13.6425 11.6667 14.1666 11.6667C15.9516 11.6667 17.1275 11.0688 18.4875 10.3688C19.9608 9.61042 21.6325 8.75 24.0833 8.75V5.83334H9.91665V29.1667H24.0833V26.25C26.2083 26.25 26.8741 26.6729 26.9166 26.7021ZM24.0833 14.5833C21.6325 14.5833 19.9608 15.4438 18.4875 16.2021C17.1275 16.9021 15.9516 17.5 14.1666 17.5C13.6425 17.5 13.175 17.5 12.75 17.4271V20.3583C13.1891 20.4167 13.6566 20.4167 14.1666 20.4167C16.6316 20.4167 18.2891 19.5563 19.7625 18.8125C21.1225 18.1125 22.2983 17.5 24.0833 17.5C27.2708 17.5 28.7441 18.5354 28.7441 18.5354C29.4667 19.1042 30.2033 19.1042 30.7558 18.5354C31.3083 17.9667 31.3083 17.0479 30.7558 16.4646C30.4583 16.1583 28.6875 14.5833 24.0833 14.5833ZM24.0833 20.4167C21.6325 20.4167 19.9608 21.2771 18.4875 22.0354C17.1275 22.7354 15.9516 23.3333 14.1666 23.3333C13.6425 23.3333 13.175 23.3333 12.75 23.2604V26.1917C13.1891 26.25 13.6566 26.25 14.1666 26.25C16.6316 26.25 18.2891 25.3896 19.7625 24.6458C21.1225 23.9458 22.2983 23.3333 24.0833 23.3333C27.2708 23.3333 28.7441 24.3688 28.7441 24.3688C29.4667 24.9375 30.2033 24.9375 30.7558 24.3688C31.3083 23.8 31.3083 22.8813 30.7558 22.2979C30.4583 21.9917 28.6875 20.4167 24.0833 20.4167Z" fill="#9753C0"/>
</svg>
