<svg width="1920" height="290" viewBox="0 0 1920 290" fill="none" xmlns="http://www.w3.org/2000/svg">
<g filter="url(#filter0_dd_147_71)">
<ellipse cx="190.5" cy="146.5" rx="103.5" ry="86.5" fill="white"/>
<ellipse cx="68" cy="174.5" rx="82" ry="74.5" fill="white"/>
<ellipse cx="295" cy="176" rx="79" ry="94" fill="white"/>
<ellipse cx="366.794" cy="154.5" rx="72.8252" ry="83.5" fill="white"/>
<ellipse cx="452.691" cy="183.5" rx="72.8252" ry="83.5" fill="white"/>
<ellipse cx="526.449" cy="161.5" rx="72.8252" ry="83.5" fill="white"/>
<ellipse cx="625.417" cy="161.5" rx="72.8252" ry="83.5" fill="white"/>
<ellipse cx="698.242" cy="165.5" rx="72.8252" ry="83.5" fill="white"/>
<ellipse cx="758.93" cy="176.5" rx="72.8252" ry="83.5" fill="white"/>
<ellipse cx="876.57" cy="177.5" rx="128.845" ry="83.5" fill="white"/>
<ellipse cx="1051.16" cy="183.5" rx="128.845" ry="83.5" fill="white"/>
<ellipse cx="1199.62" cy="165.5" rx="40.1472" ry="71.5" fill="white"/>
<ellipse cx="1146.4" cy="147.5" rx="57.8867" ry="71.5" fill="white"/>
<ellipse cx="1310.72" cy="161.5" rx="111.105" ry="71.5" fill="white"/>
<ellipse cx="1405.95" cy="137.5" rx="111.105" ry="71.5" fill="white"/>
<ellipse cx="1441.43" cy="158.5" rx="111.105" ry="71.5" fill="white"/>
<ellipse cx="1574.01" cy="158.5" rx="111.105" ry="71.5" fill="white"/>
<ellipse cx="1552.54" cy="117.5" rx="79.3608" ry="51.5" fill="white"/>
<ellipse cx="1668.31" cy="176.5" rx="79.3608" ry="51.5" fill="white"/>
<ellipse cx="1716.86" cy="145.5" rx="79.3608" ry="51.5" fill="white"/>
<ellipse cx="1846.64" cy="151.5" rx="79.3608" ry="51.5" fill="white"/>
</g>
<defs>
<filter id="filter0_dd_147_71" x="-54" y="0" width="2020" height="290" filterUnits="userSpaceOnUse" color-interpolation-filters="sRGB">
<feFlood flood-opacity="0" result="BackgroundImageFix"/>
<feColorMatrix in="SourceAlpha" type="matrix" values="0 0 0 0 0 0 0 0 0 0 0 0 0 0 0 0 0 0 127 0" result="hardAlpha"/>
<feOffset dy="-10"/>
<feComposite in2="hardAlpha" operator="out"/>
<feColorMatrix type="matrix" values="0 0 0 0 1 0 0 0 0 0.96 0 0 0 0 0 0 0 0 1 0"/>
<feBlend mode="normal" in2="BackgroundImageFix" result="effect1_dropShadow_147_71"/>
<feColorMatrix in="SourceAlpha" type="matrix" values="0 0 0 0 0 0 0 0 0 0 0 0 0 0 0 0 0 0 127 0" result="hardAlpha"/>
<feOffset dy="-20"/>
<feGaussianBlur stdDeviation="20"/>
<feComposite in2="hardAlpha" operator="out"/>
<feColorMatrix type="matrix" values="0 0 0 0 0 0 0 0 0 0 0 0 0 0 0 0 0 0 0.02 0"/>
<feBlend mode="normal" in2="effect1_dropShadow_147_71" result="effect2_dropShadow_147_71"/>
<feBlend mode="normal" in="SourceGraphic" in2="effect2_dropShadow_147_71" result="shape"/>
</filter>
</defs>
</svg>
