<svg width="1920" height="541" viewBox="0 0 1920 541" fill="none" xmlns="http://www.w3.org/2000/svg">
<g filter="url(#filter0_d_530_5)">
<ellipse cx="103.293" cy="101.445" rx="43" ry="59.4712" transform="rotate(78.6187 103.293 101.445)" fill="white"/>
<ellipse cx="161.869" cy="112.095" rx="43" ry="59.4712" transform="rotate(78.6187 161.869 112.095)" fill="white"/>
<ellipse cx="113.434" cy="172.848" rx="43" ry="59.4712" transform="rotate(78.6187 113.434 172.848)" fill="white"/>
<ellipse cx="150.553" cy="194.685" rx="37.5371" ry="45.029" transform="rotate(78.6187 150.553 194.685)" fill="white"/>
<ellipse cx="192.553" cy="163.685" rx="37.5371" ry="45.029" transform="rotate(78.6187 192.553 163.685)" fill="white"/>
<ellipse cx="214.553" cy="205.685" rx="37.5371" ry="45.029" transform="rotate(78.6187 214.553 205.685)" fill="white"/>
<ellipse cx="241.553" cy="157.685" rx="37.5371" ry="45.029" transform="rotate(78.6187 241.553 157.685)" fill="white"/>
<ellipse cx="289.552" cy="205.685" rx="37.5371" ry="45.029" transform="rotate(78.6187 289.552 205.685)" fill="white"/>
<ellipse cx="385.552" cy="208.685" rx="37.5371" ry="45.029" transform="rotate(78.6187 385.552 208.685)" fill="white"/>
<ellipse cx="341.552" cy="188.685" rx="37.5371" ry="45.029" transform="rotate(78.6187 341.552 188.685)" fill="white"/>
<ellipse cx="302.551" cy="146.685" rx="37.5371" ry="45.029" transform="rotate(78.6187 302.551 146.685)" fill="white"/>
<ellipse cx="361.551" cy="143.685" rx="37.5371" ry="45.029" transform="rotate(78.6187 361.551 143.685)" fill="white"/>
<ellipse cx="424.551" cy="155.685" rx="37.5371" ry="45.029" transform="rotate(78.6187 424.551 155.685)" fill="white"/>
<ellipse cx="484.551" cy="155.685" rx="37.5371" ry="45.029" transform="rotate(78.6187 484.551 155.685)" fill="white"/>
<ellipse cx="388.552" cy="180.685" rx="37.5371" ry="45.029" transform="rotate(78.6187 388.552 180.685)" fill="white"/>
<ellipse cx="436.552" cy="236.685" rx="37.5371" ry="45.029" transform="rotate(78.6187 436.552 236.685)" fill="white"/>
<ellipse cx="440.552" cy="203.685" rx="37.5371" ry="45.029" transform="rotate(78.6187 440.552 203.685)" fill="white"/>
<ellipse cx="469.552" cy="267.685" rx="37.5371" ry="45.029" transform="rotate(78.6187 469.552 267.685)" fill="white"/>
<ellipse cx="501.552" cy="318.685" rx="37.5371" ry="45.029" transform="rotate(78.6187 501.552 318.685)" fill="white"/>
<ellipse cx="543.552" cy="315.685" rx="37.5371" ry="45.029" transform="rotate(78.6187 543.552 315.685)" fill="white"/>
<ellipse cx="520.552" cy="262.685" rx="37.5371" ry="45.029" transform="rotate(78.6187 520.552 262.685)" fill="white"/>
<ellipse cx="461.552" cy="229.685" rx="37.5371" ry="45.029" transform="rotate(78.6187 461.552 229.685)" fill="white"/>
<ellipse cx="505.552" cy="203.685" rx="37.5371" ry="45.029" transform="rotate(78.6187 505.552 203.685)" fill="white"/>
<ellipse cx="573.594" cy="212.489" rx="51.1065" ry="67.8413" transform="rotate(78.6187 573.594 212.489)" fill="white"/>
<ellipse cx="603.594" cy="177.489" rx="51.1065" ry="67.8413" transform="rotate(78.6187 603.594 177.489)" fill="white"/>
<ellipse cx="525.592" cy="183.489" rx="51.1065" ry="67.8413" transform="rotate(78.6187 525.592 183.489)" fill="white"/>
<ellipse cx="445.593" cy="189.489" rx="51.1065" ry="67.8413" transform="rotate(78.6187 445.593 189.489)" fill="white"/>
<ellipse cx="640.594" cy="236.489" rx="51.1065" ry="67.8413" transform="rotate(78.6187 640.594 236.489)" fill="white"/>
<ellipse cx="679.594" cy="185.489" rx="51.1065" ry="67.8413" transform="rotate(78.6187 679.594 185.489)" fill="white"/>
<ellipse cx="669.594" cy="152.489" rx="51.1065" ry="67.8413" transform="rotate(78.6187 669.594 152.489)" fill="white"/>
<ellipse cx="735.594" cy="157.489" rx="51.1065" ry="67.8413" transform="rotate(78.6187 735.594 157.489)" fill="white"/>
<ellipse cx="761.594" cy="119.489" rx="51.1065" ry="67.8413" transform="rotate(78.6187 761.594 119.489)" fill="white"/>
<ellipse cx="919.592" cy="119.489" rx="51.1065" ry="67.8413" transform="rotate(78.6187 919.592 119.489)" fill="white"/>
<ellipse cx="1139.59" cy="113.489" rx="51.1065" ry="67.8413" transform="rotate(78.6187 1139.59 113.489)" fill="white"/>
<ellipse cx="1063.59" cy="130.489" rx="51.1065" ry="67.8413" transform="rotate(78.6187 1063.59 130.489)" fill="white"/>
<ellipse cx="997.592" cy="125.489" rx="51.1065" ry="67.8413" transform="rotate(78.6187 997.592 125.489)" fill="white"/>
<ellipse cx="824.592" cy="125.489" rx="51.1065" ry="67.8413" transform="rotate(78.6187 824.592 125.489)" fill="white"/>
<ellipse cx="1271.69" cy="81.288" rx="51.1065" ry="53.6582" transform="rotate(78.6187 1271.69 81.288)" fill="white"/>
<ellipse cx="1331.69" cy="74.6903" rx="51.1065" ry="53.6582" transform="rotate(78.6187 1331.69 74.6903)" fill="white"/>
<ellipse cx="1363.69" cy="62.6903" rx="28.0563" ry="31.3924" transform="rotate(78.6187 1363.69 62.6903)" fill="white"/>
<ellipse cx="1370.31" cy="43.6995" rx="28.0563" ry="31.3924" transform="rotate(78.6187 1370.31 43.6995)" fill="white"/>
<ellipse cx="1409.02" cy="51.0856" rx="30.4912" ry="40.3773" transform="rotate(78.6187 1409.02 51.0856)" fill="white"/>
<ellipse cx="1220.59" cy="101.489" rx="51.1065" ry="67.8413" transform="rotate(78.6187 1220.59 101.489)" fill="white"/>
<ellipse cx="816.594" cy="139.489" rx="51.1065" ry="67.8413" transform="rotate(78.6187 816.594 139.489)" fill="white"/>
<ellipse cx="1698.63" cy="50.5824" rx="40.179" ry="41.5205" transform="rotate(78.6187 1698.63 50.5824)" fill="white"/>
<ellipse cx="1744.63" cy="56.5824" rx="40.179" ry="41.5205" transform="rotate(78.6187 1744.63 56.5824)" fill="white"/>
<ellipse cx="1642.63" cy="56.5824" rx="40.179" ry="41.5205" transform="rotate(78.6187 1642.63 56.5824)" fill="white"/>
<ellipse cx="1607.63" cy="61.5824" rx="40.179" ry="41.5205" transform="rotate(78.6187 1607.63 61.5824)" fill="white"/>
<ellipse cx="1798.59" cy="53.4891" rx="51.1065" ry="67.8413" transform="rotate(78.6187 1798.59 53.4891)" fill="white"/>
<ellipse cx="1569.59" cy="78.4892" rx="51.1065" ry="67.8413" transform="rotate(78.6187 1569.59 78.4892)" fill="white"/>
<ellipse cx="1486.59" cy="70.4892" rx="51.1065" ry="67.8413" transform="rotate(78.6187 1486.59 70.4892)" fill="white"/>
<ellipse cx="1399.59" cy="187.489" rx="51.1065" ry="67.8413" transform="rotate(78.6187 1399.59 187.489)" fill="white"/>
<ellipse cx="1385.59" cy="150.489" rx="51.1065" ry="67.8413" transform="rotate(78.6187 1385.59 150.489)" fill="white"/>
<ellipse cx="520.552" cy="239.685" rx="37.5371" ry="45.029" transform="rotate(78.6187 520.552 239.685)" fill="white"/>
<ellipse cx="481.552" cy="297.685" rx="37.5371" ry="45.029" transform="rotate(78.6187 481.552 297.685)" fill="white"/>
<ellipse cx="469.552" cy="270.685" rx="37.5371" ry="45.029" transform="rotate(78.6187 469.552 270.685)" fill="white"/>
<ellipse cx="480.552" cy="355.685" rx="37.5371" ry="45.029" transform="rotate(78.6187 480.552 355.685)" fill="white"/>
<ellipse cx="228.433" cy="128.047" rx="50.6257" ry="52.4741" transform="rotate(78.6187 228.433 128.047)" fill="white"/>
<ellipse cx="20.5523" cy="83.6847" rx="37.5371" ry="45.029" transform="rotate(78.6187 20.5523 83.6847)" fill="white"/>
<ellipse cx="58.5522" cy="86.6847" rx="37.5371" ry="45.029" transform="rotate(78.6187 58.5522 86.6847)" fill="white"/>
<ellipse cx="20.5524" cy="60.6847" rx="37.5371" ry="45.029" transform="rotate(78.6187 20.5524 60.6847)" fill="white"/>
<ellipse cx="5.55234" cy="30.6847" rx="37.5371" ry="45.029" transform="rotate(78.6187 5.55234 30.6847)" fill="white"/>
<ellipse cx="49.088" cy="147.548" rx="64.5" ry="69.1526" transform="rotate(78.6187 49.088 147.548)" fill="white"/>
</g>
<ellipse cx="1361.59" cy="155.489" rx="51.1065" ry="67.8413" transform="rotate(78.6187 1361.59 155.489)" fill="white"/>
<ellipse cx="1429.59" cy="182.489" rx="51.1065" ry="67.8413" transform="rotate(78.6187 1429.59 182.489)" fill="white"/>
<g filter="url(#filter1_d_530_5)">
<ellipse cx="155.609" cy="206.051" rx="65.1911" ry="91.528" transform="rotate(78.6187 155.609 206.051)" fill="white" fill-opacity="0.5"/>
<ellipse cx="170.89" cy="314.321" rx="65.1911" ry="91.528" transform="rotate(78.6187 170.89 314.321)" fill="white" fill-opacity="0.5"/>
<ellipse cx="271.343" cy="284.822" rx="65.1911" ry="91.528" transform="rotate(78.6187 271.343 284.822)" fill="white" fill-opacity="0.5"/>
<ellipse cx="250.133" cy="227.69" rx="65.1911" ry="91.528" transform="rotate(78.6187 250.133 227.69)" fill="white" fill-opacity="0.5"/>
<ellipse cx="72.0293" cy="276.229" rx="97.7867" ry="106.428" transform="rotate(78.6187 72.0293 276.229)" fill="white" fill-opacity="0.5"/>
<ellipse cx="38.9816" cy="234.349" rx="97.7867" ry="106.428" transform="rotate(78.6187 38.9816 234.349)" fill="white" fill-opacity="0.5"/>
<ellipse cx="-25.4825" cy="187.51" rx="97.7867" ry="106.428" transform="rotate(78.6187 -25.4825 187.51)" fill="white" fill-opacity="0.5"/>
<ellipse cx="-85.3679" cy="152.793" rx="97.7867" ry="106.428" transform="rotate(78.6187 -85.3679 152.793)" fill="white" fill-opacity="0.5"/>
</g>
<g filter="url(#filter2_d_530_5)">
<ellipse cx="334.292" cy="240.445" rx="43" ry="59.4712" transform="rotate(78.6187 334.292 240.445)" fill="white" fill-opacity="0.5"/>
<ellipse cx="392.867" cy="251.095" rx="43" ry="59.4712" transform="rotate(78.6187 392.867 251.095)" fill="white" fill-opacity="0.5"/>
<ellipse cx="344.432" cy="311.848" rx="43" ry="59.4712" transform="rotate(78.6187 344.432 311.848)" fill="white" fill-opacity="0.5"/>
<ellipse cx="409.685" cy="292.593" rx="43" ry="59.4712" transform="rotate(78.6187 409.685 292.593)" fill="white" fill-opacity="0.5"/>
<ellipse cx="280.086" cy="286.548" rx="64.5" ry="69.1526" transform="rotate(78.6187 280.086 286.548)" fill="white" fill-opacity="0.5"/>
</g>
<g filter="url(#filter3_d_530_5)">
<ellipse cx="160.292" cy="252.445" rx="43" ry="59.4712" transform="rotate(78.6187 160.292 252.445)" fill="white" fill-opacity="0.5"/>
<ellipse cx="170.433" cy="323.848" rx="43" ry="59.4712" transform="rotate(78.6187 170.433 323.848)" fill="white" fill-opacity="0.5"/>
<ellipse cx="235.685" cy="304.593" rx="43" ry="59.4712" transform="rotate(78.6187 235.685 304.593)" fill="white" fill-opacity="0.5"/>
<ellipse cx="221.787" cy="266.89" rx="43" ry="59.4712" transform="rotate(78.6187 221.787 266.89)" fill="white" fill-opacity="0.5"/>
<ellipse cx="106.087" cy="298.549" rx="64.5" ry="69.1526" transform="rotate(78.6187 106.087 298.549)" fill="white" fill-opacity="0.5"/>
<ellipse cx="84.5211" cy="270.878" rx="64.5" ry="69.1526" transform="rotate(78.6187 84.5211 270.878)" fill="white" fill-opacity="0.5"/>
<ellipse cx="42.5211" cy="239.878" rx="64.5" ry="69.1526" transform="rotate(78.6187 42.5211 239.878)" fill="white" fill-opacity="0.5"/>
<ellipse cx="3.52101" cy="216.878" rx="64.5" ry="69.1526" transform="rotate(78.6187 3.52101 216.878)" fill="white" fill-opacity="0.5"/>
</g>
<g filter="url(#filter4_d_530_5)">
<circle cx="309.617" cy="320.157" r="43" transform="rotate(78.6187 309.617 320.157)" fill="white"/>
<circle cx="353.172" cy="333.831" r="43" transform="rotate(78.6187 353.172 333.831)" fill="white"/>
<circle cx="447.64" cy="343.079" r="43" transform="rotate(78.6187 447.64 343.079)" fill="white"/>
<ellipse cx="389.889" cy="322.333" rx="43" ry="76.9161" transform="rotate(78.6187 389.889 322.333)" fill="white"/>
<ellipse cx="485.29" cy="321.888" rx="43" ry="48.7634" transform="rotate(78.6187 485.29 321.888)" fill="white"/>
<ellipse cx="571.29" cy="327.777" rx="43" ry="48.7634" transform="rotate(78.6187 571.29 327.777)" fill="white"/>
<ellipse cx="613.29" cy="302.777" rx="43" ry="48.7634" transform="rotate(78.6187 613.29 302.777)" fill="white"/>
<ellipse cx="641.29" cy="323.777" rx="43" ry="48.7634" transform="rotate(78.6187 641.29 323.777)" fill="white"/>
<ellipse cx="581.29" cy="283.777" rx="43" ry="48.7634" transform="rotate(78.6187 581.29 283.777)" fill="white"/>
<ellipse cx="393.012" cy="399.74" rx="43" ry="62.7603" transform="rotate(78.6187 393.012 399.74)" fill="white"/>
<circle cx="490.64" cy="333.079" r="43" transform="rotate(78.6187 490.64 333.079)" fill="white"/>
<circle cx="498.64" cy="377.079" r="43" transform="rotate(78.6187 498.64 377.079)" fill="white"/>
<circle cx="451.64" cy="393.079" r="43" transform="rotate(78.6187 451.64 393.079)" fill="white"/>
<circle cx="392.64" cy="361.079" r="43" transform="rotate(78.6187 392.64 361.079)" fill="white"/>
<circle cx="320.885" cy="391.333" r="43" transform="rotate(78.6187 320.885 391.333)" fill="white"/>
<circle cx="367.737" cy="375.781" r="43" transform="rotate(78.6187 367.737 375.781)" fill="white"/>
<ellipse cx="272.31" cy="362.859" rx="64.5" ry="50" transform="rotate(78.6187 272.31 362.859)" fill="white"/>
<ellipse cx="674.745" cy="338.098" rx="64.5" ry="50" transform="rotate(78.6187 674.745 338.098)" fill="white"/>
<ellipse cx="739.745" cy="281.098" rx="64.5" ry="50" transform="rotate(78.6187 739.745 281.098)" fill="white"/>
<ellipse cx="695.745" cy="279.098" rx="64.5" ry="50" transform="rotate(78.6187 695.745 279.098)" fill="white"/>
<ellipse cx="781.745" cy="256.099" rx="64.5" ry="50" transform="rotate(78.6187 781.745 256.099)" fill="white"/>
<ellipse cx="697.142" cy="239.472" rx="57.458" ry="76.7389" transform="rotate(78.6187 697.142 239.472)" fill="white"/>
<ellipse cx="598.569" cy="229.472" rx="57.458" ry="76.7389" transform="rotate(78.6187 598.569 229.472)" fill="white"/>
<ellipse cx="485.569" cy="286.472" rx="57.458" ry="76.7389" transform="rotate(78.6187 485.569 286.472)" fill="white"/>
<ellipse cx="481.569" cy="233.472" rx="57.458" ry="76.7389" transform="rotate(78.6187 481.569 233.472)" fill="white"/>
<ellipse cx="603.569" cy="241.472" rx="57.458" ry="76.7389" transform="rotate(78.6187 603.569 241.472)" fill="white"/>
<ellipse cx="681.553" cy="207.742" rx="43.5414" ry="50.9629" transform="rotate(78.6187 681.553 207.742)" fill="white"/>
<ellipse cx="741.553" cy="181.742" rx="43.5414" ry="50.9629" transform="rotate(78.6187 741.553 181.742)" fill="white"/>
<ellipse cx="658.553" cy="164.742" rx="43.5414" ry="50.9629" transform="rotate(78.6187 658.553 164.742)" fill="white"/>
<ellipse cx="713.553" cy="149.742" rx="43.5414" ry="50.9629" transform="rotate(78.6187 713.553 149.742)" fill="white"/>
<ellipse cx="783.553" cy="132.742" rx="43.5414" ry="50.9629" transform="rotate(78.6187 783.553 132.742)" fill="white"/>
<ellipse cx="792.745" cy="215.098" rx="64.5" ry="50" transform="rotate(78.6187 792.745 215.098)" fill="white"/>
<ellipse cx="828.745" cy="179.098" rx="64.5" ry="50" transform="rotate(78.6187 828.745 179.098)" fill="white"/>
<ellipse cx="852.745" cy="255.098" rx="64.5" ry="50" transform="rotate(78.6187 852.745 255.098)" fill="white"/>
<ellipse cx="754.745" cy="282.098" rx="64.5" ry="50" transform="rotate(78.6187 754.745 282.098)" fill="white"/>
<ellipse cx="792.745" cy="277.098" rx="64.5" ry="50" transform="rotate(78.6187 792.745 277.098)" fill="white"/>
<ellipse cx="223.745" cy="400.098" rx="64.5" ry="50" transform="rotate(78.6187 223.745 400.098)" fill="white"/>
<ellipse cx="182.092" cy="372.006" rx="64.5" ry="79.9352" transform="rotate(78.6187 182.092 372.006)" fill="white"/>
<ellipse cx="91.0915" cy="343.006" rx="64.5" ry="79.9352" transform="rotate(78.6187 91.0915 343.006)" fill="white"/>
<ellipse cx="33.4572" cy="312.255" rx="64.5" ry="60.927" transform="rotate(78.6187 33.4572 312.255)" fill="white"/>
<ellipse cx="32.4572" cy="416.255" rx="64.5" ry="60.927" transform="rotate(78.6187 32.4572 416.255)" fill="white"/>
<ellipse cx="108.005" cy="428.104" rx="47.0048" ry="60.927" transform="rotate(78.6187 108.005 428.104)" fill="white"/>
<ellipse cx="197.005" cy="422.104" rx="47.0048" ry="60.927" transform="rotate(78.6187 197.005 422.104)" fill="white"/>
</g>
<g filter="url(#filter5_d_530_5)">
<circle cx="1646.05" cy="70.4467" r="34.8907" transform="rotate(78.6187 1646.05 70.4467)" fill="white"/>
<circle cx="1681.39" cy="81.5419" r="34.8907" transform="rotate(78.6187 1681.39 81.5419)" fill="white"/>
<circle cx="1758.05" cy="89.0462" r="34.8907" transform="rotate(78.6187 1758.05 89.0462)" fill="white"/>
<ellipse cx="1711.19" cy="72.2124" rx="34.8907" ry="62.4107" transform="rotate(78.6187 1711.19 72.2124)" fill="white"/>
<ellipse cx="1788.6" cy="71.8517" rx="34.8907" ry="39.5672" transform="rotate(78.6187 1788.6 71.8517)" fill="white"/>
<ellipse cx="1858.38" cy="76.63" rx="34.8907" ry="39.5672" transform="rotate(78.6187 1858.38 76.63)" fill="white"/>
<ellipse cx="1892.46" cy="56.3447" rx="34.8907" ry="39.5672" transform="rotate(78.6187 1892.46 56.3447)" fill="white"/>
<ellipse cx="1915.18" cy="73.3843" rx="34.8907" ry="39.5672" transform="rotate(78.6187 1915.18 73.3843)" fill="white"/>
<ellipse cx="1852.67" cy="49.0127" rx="34.8907" ry="39.5672" transform="rotate(78.6187 1852.67 49.0127)" fill="white"/>
<ellipse cx="1713.72" cy="135.022" rx="34.8907" ry="50.9245" transform="rotate(78.6187 1713.72 135.022)" fill="white"/>
<circle cx="1792.94" cy="80.9321" r="34.8907" transform="rotate(78.6187 1792.94 80.9321)" fill="white"/>
<circle cx="1799.43" cy="116.634" r="34.8907" transform="rotate(78.6187 1799.43 116.634)" fill="white"/>
<circle cx="1761.29" cy="129.617" r="34.8907" transform="rotate(78.6187 1761.29 129.617)" fill="white"/>
<circle cx="1713.42" cy="103.652" r="34.8907" transform="rotate(78.6187 1713.42 103.652)" fill="white"/>
<circle cx="1655.2" cy="128.2" r="34.8907" transform="rotate(78.6187 1655.2 128.2)" fill="white"/>
<circle cx="1693.21" cy="115.581" r="34.8907" transform="rotate(78.6187 1693.21 115.581)" fill="white"/>
<ellipse cx="1615.78" cy="105.095" rx="52.3361" ry="40.5706" transform="rotate(78.6187 1615.78 105.095)" fill="white"/>
<ellipse cx="1942.32" cy="85.0048" rx="52.3361" ry="40.5706" transform="rotate(78.6187 1942.32 85.0048)" fill="white"/>
<ellipse cx="1959.36" cy="37.1314" rx="52.3361" ry="40.5706" transform="rotate(78.6187 1959.36 37.1314)" fill="white"/>
<ellipse cx="1960.5" cy="4.97771" rx="46.6221" ry="62.2669" transform="rotate(78.6187 1960.5 4.97771)" fill="white"/>
<ellipse cx="1918.24" cy="33.993" rx="46.6221" ry="62.2669" transform="rotate(78.6187 1918.24 33.993)" fill="white"/>
<ellipse cx="1947.85" cy="-20.768" rx="35.3301" ry="41.352" transform="rotate(78.6187 1947.85 -20.768)" fill="white"/>
<ellipse cx="1576.37" cy="135.312" rx="52.3361" ry="40.5706" transform="rotate(78.6187 1576.37 135.312)" fill="white"/>
<ellipse cx="1542.58" cy="112.518" rx="52.3361" ry="64.8604" transform="rotate(78.6187 1542.58 112.518)" fill="white"/>
<ellipse cx="1388.69" cy="124.256" rx="52.3361" ry="60.5495" transform="rotate(78.6187 1388.69 124.256)" fill="white"/>
<ellipse cx="1482.46" cy="158.036" rx="38.1403" ry="49.437" transform="rotate(78.6187 1482.46 158.036)" fill="white"/>
<ellipse cx="1397.99" cy="178.146" rx="38.1403" ry="49.437" transform="rotate(78.6187 1397.99 178.146)" fill="white"/>
<ellipse cx="1337.99" cy="172.146" rx="38.1403" ry="49.437" transform="rotate(78.6187 1337.99 172.146)" fill="white"/>
<ellipse cx="1307.99" cy="156.146" rx="38.1403" ry="49.437" transform="rotate(78.6187 1307.99 156.146)" fill="white"/>
<ellipse cx="1219.99" cy="155.146" rx="38.1403" ry="49.437" transform="rotate(78.6187 1219.99 155.146)" fill="white"/>
<ellipse cx="1128.99" cy="156.146" rx="38.1403" ry="49.437" transform="rotate(78.6187 1128.99 156.146)" fill="white"/>
<ellipse cx="1031.99" cy="167.146" rx="38.1403" ry="49.437" transform="rotate(78.6187 1031.99 167.146)" fill="white"/>
<ellipse cx="949.991" cy="170.146" rx="38.1403" ry="49.437" transform="rotate(78.6187 949.991 170.146)" fill="white"/>
<ellipse cx="909.992" cy="139.146" rx="38.1403" ry="49.437" transform="rotate(78.6187 909.992 139.146)" fill="white"/>
<ellipse cx="975.991" cy="134.146" rx="38.1403" ry="49.437" transform="rotate(78.6187 975.991 134.146)" fill="white"/>
<ellipse cx="1046.99" cy="143.146" rx="38.1403" ry="49.437" transform="rotate(78.6187 1046.99 143.146)" fill="white"/>
<ellipse cx="1110.99" cy="142.146" rx="38.1403" ry="49.437" transform="rotate(78.6187 1110.99 142.146)" fill="white"/>
<ellipse cx="1181.99" cy="143.146" rx="38.1403" ry="49.437" transform="rotate(78.6187 1181.99 143.146)" fill="white"/>
<ellipse cx="1278.99" cy="136.146" rx="38.1403" ry="49.437" transform="rotate(78.6187 1278.99 136.146)" fill="white"/>
<ellipse cx="1314.99" cy="112.146" rx="38.1403" ry="49.437" transform="rotate(78.6187 1314.99 112.146)" fill="white"/>
<ellipse cx="1195.99" cy="355.146" rx="38.1403" ry="49.437" transform="rotate(78.6187 1195.99 355.146)" fill="white"/>
<ellipse cx="1452.99" cy="113.146" rx="38.1403" ry="49.437" transform="rotate(78.6187 1452.99 113.146)" fill="white"/>
<ellipse cx="1554.68" cy="153.168" rx="38.1403" ry="49.437" transform="rotate(78.6187 1554.68 153.168)" fill="white"/>
</g>
<defs>
<filter id="filter0_d_530_5" x="-61.2154" y="-29.1806" width="1949.08" height="444.731" filterUnits="userSpaceOnUse" color-interpolation-filters="sRGB">
<feFlood flood-opacity="0" result="BackgroundImageFix"/>
<feColorMatrix in="SourceAlpha" type="matrix" values="0 0 0 0 0 0 0 0 0 0 0 0 0 0 0 0 0 0 127 0" result="hardAlpha"/>
<feOffset/>
<feGaussianBlur stdDeviation="11"/>
<feComposite in2="hardAlpha" operator="out"/>
<feColorMatrix type="matrix" values="0 0 0 0 0 0 0 0 0 0 0 0 0 0 0 0 0 0 0.05 0"/>
<feBlend mode="normal" in2="BackgroundImageFix" result="effect1_dropShadow_530_5"/>
<feBlend mode="normal" in="SourceGraphic" in2="effect1_dropShadow_530_5" result="shape"/>
</filter>
<filter id="filter1_d_530_5" x="-213.491" y="32.6346" width="597.492" height="370.116" filterUnits="userSpaceOnUse" color-interpolation-filters="sRGB">
<feFlood flood-opacity="0" result="BackgroundImageFix"/>
<feColorMatrix in="SourceAlpha" type="matrix" values="0 0 0 0 0 0 0 0 0 0 0 0 0 0 0 0 0 0 127 0" result="hardAlpha"/>
<feOffset/>
<feGaussianBlur stdDeviation="11"/>
<feComposite in2="hardAlpha" operator="out"/>
<feColorMatrix type="matrix" values="0 0 0 0 0 0 0 0 0 0 0 0 0 0 0 0 0 0 0.05 0"/>
<feBlend mode="normal" in2="BackgroundImageFix" result="effect1_dropShadow_530_5"/>
<feBlend mode="normal" in="SourceGraphic" in2="effect1_dropShadow_530_5" result="shape"/>
</filter>
<filter id="filter2_d_530_5" x="189.097" y="174.676" width="301.512" height="202.94" filterUnits="userSpaceOnUse" color-interpolation-filters="sRGB">
<feFlood flood-opacity="0" result="BackgroundImageFix"/>
<feColorMatrix in="SourceAlpha" type="matrix" values="0 0 0 0 0 0 0 0 0 0 0 0 0 0 0 0 0 0 127 0" result="hardAlpha"/>
<feOffset/>
<feGaussianBlur stdDeviation="11"/>
<feComposite in2="hardAlpha" operator="out"/>
<feColorMatrix type="matrix" values="0 0 0 0 0 0 0 0 0 0 0 0 0 0 0 0 0 0 0.05 0"/>
<feBlend mode="normal" in2="BackgroundImageFix" result="effect1_dropShadow_530_5"/>
<feBlend mode="normal" in="SourceGraphic" in2="effect1_dropShadow_530_5" result="shape"/>
</filter>
<filter id="filter3_d_530_5" x="-87.4686" y="130.177" width="404.078" height="259.44" filterUnits="userSpaceOnUse" color-interpolation-filters="sRGB">
<feFlood flood-opacity="0" result="BackgroundImageFix"/>
<feColorMatrix in="SourceAlpha" type="matrix" values="0 0 0 0 0 0 0 0 0 0 0 0 0 0 0 0 0 0 127 0" result="hardAlpha"/>
<feOffset/>
<feGaussianBlur stdDeviation="11"/>
<feComposite in2="hardAlpha" operator="out"/>
<feColorMatrix type="matrix" values="0 0 0 0 0 0 0 0 0 0 0 0 0 0 0 0 0 0 0.05 0"/>
<feBlend mode="normal" in2="BackgroundImageFix" result="effect1_dropShadow_530_5"/>
<feBlend mode="normal" in="SourceGraphic" in2="effect1_dropShadow_530_5" result="shape"/>
</filter>
<filter id="filter4_d_530_5" x="-60.6254" y="56.8783" width="976.025" height="435.753" filterUnits="userSpaceOnUse" color-interpolation-filters="sRGB">
<feFlood flood-opacity="0" result="BackgroundImageFix"/>
<feColorMatrix in="SourceAlpha" type="matrix" values="0 0 0 0 0 0 0 0 0 0 0 0 0 0 0 0 0 0 127 0" result="hardAlpha"/>
<feOffset dx="-10" dy="-10"/>
<feGaussianBlur stdDeviation="11"/>
<feComposite in2="hardAlpha" operator="out"/>
<feColorMatrix type="matrix" values="0 0 0 0 0.521569 0 0 0 0 0.598118 0 0 0 0 1 0 0 0 0.05 0"/>
<feBlend mode="normal" in2="BackgroundImageFix" result="effect1_dropShadow_530_5"/>
<feBlend mode="normal" in="SourceGraphic" in2="effect1_dropShadow_530_5" result="shape"/>
</filter>
<filter id="filter5_d_530_5" x="838.939" y="-149.216" width="1310.92" height="555.013" filterUnits="userSpaceOnUse" color-interpolation-filters="sRGB">
<feFlood flood-opacity="0" result="BackgroundImageFix"/>
<feColorMatrix in="SourceAlpha" type="matrix" values="0 0 0 0 0 0 0 0 0 0 0 0 0 0 0 0 0 0 127 0" result="hardAlpha"/>
<feOffset dy="-10"/>
<feGaussianBlur stdDeviation="11"/>
<feComposite in2="hardAlpha" operator="out"/>
<feColorMatrix type="matrix" values="0 0 0 0 0.521569 0 0 0 0 0.598118 0 0 0 0 1 0 0 0 0.05 0"/>
<feBlend mode="normal" in2="BackgroundImageFix" result="effect1_dropShadow_530_5"/>
<feBlend mode="normal" in="SourceGraphic" in2="effect1_dropShadow_530_5" result="shape"/>
</filter>
</defs>
</svg>
