<svg width="25" height="28" viewBox="0 0 25 28" fill="none" xmlns="http://www.w3.org/2000/svg">
<path d="M18.75 6.96362V4.71362H20.8333V2.46362H6.24996C5.10413 2.46362 4.16663 3.47612 4.16663 4.71362V22.7136C4.16663 23.9511 5.10413 24.9636 6.24996 24.9636H20.8333V22.7136H16.6354C17.9166 21.6899 18.75 20.0586 18.75 18.2136V12.5886H8.33329V18.2136C8.33329 20.0586 9.17704 21.6899 10.4479 22.7136H6.24996V4.71362H8.33329V6.96362C8.33329 7.58237 8.80204 8.08862 9.37496 8.08862H17.7083C18.2812 8.08862 18.75 7.58237 18.75 6.96362ZM10.4166 18.2136V14.8386H16.6666V18.2136C16.6666 20.0699 15.2604 21.5886 13.5416 21.5886C11.8229 21.5886 10.4166 20.0699 10.4166 18.2136ZM13.5416 9.21362C14.1145 9.21362 14.5833 9.71987 14.5833 10.3386C14.5833 10.9574 14.1145 11.4636 13.5416 11.4636C12.9687 11.4636 12.5 10.9574 12.5 10.3386C12.5 9.71987 12.9687 9.21362 13.5416 9.21362Z" fill="#B17AD3"/>
</svg>
