<svg width="26" height="29" viewBox="0 0 26 29" fill="none" xmlns="http://www.w3.org/2000/svg">
<path d="M20.5834 14.2137C20.5834 12.592 19.5542 11.262 18.1784 10.8537C18.33 10.457 18.4167 10.0137 18.4167 9.54704C18.4167 7.61037 16.965 6.04704 15.1667 6.04704C14.7009 6.04704 14.2675 6.1637 13.8775 6.35037C14.0834 5.10204 14.5059 3.23537 15.6 2.78037L14.7334 1.38037C12.8917 2.2787 12.35 4.98537 12.1984 6.38537C11.7759 6.17537 11.3209 6.04704 10.8334 6.04704C9.03502 6.04704 7.58335 7.61037 7.58335 9.54704C7.58335 10.0137 7.67002 10.4454 7.82169 10.8537C6.43502 11.2504 5.41669 12.6037 5.41669 14.2137C5.41669 15.8354 6.44585 17.177 7.83252 17.5737C7.68085 17.9704 7.58335 18.4137 7.58335 18.8804C7.58335 20.502 8.60169 21.8437 9.98835 22.2404C9.83669 22.6487 9.75002 23.092 9.75002 23.547C9.75002 25.4837 11.2017 27.047 13 27.047C14.7984 27.047 16.25 25.4837 16.25 23.547C16.25 23.092 16.1634 22.6487 16.0117 22.2404C17.3984 21.8437 18.4167 20.502 18.4167 18.8804C18.4167 18.4137 18.33 17.982 18.1675 17.5737C19.5542 17.177 20.5834 15.8354 20.5834 14.2137ZM17.6692 11.7404V11.7637H17.6584L17.6692 11.7404ZM15.1667 7.79704C16.0659 7.79704 16.7917 8.5787 16.7917 9.54704C16.7917 10.5154 16.0659 11.297 15.1667 11.297C14.2675 11.297 13.5417 10.5154 13.5417 9.54704C13.5417 8.5787 14.2675 7.79704 15.1667 7.79704ZM14.625 14.2137C14.625 15.182 13.8992 15.9637 13 15.9637C12.1009 15.9637 11.375 15.182 11.375 14.2137C11.375 13.2454 12.1009 12.4637 13 12.4637C13.8992 12.4637 14.625 13.2454 14.625 14.2137ZM10.8334 7.79704C11.7325 7.79704 12.4584 8.5787 12.4584 9.54704C12.4584 10.5154 11.7325 11.297 10.8334 11.297C9.93419 11.297 9.20835 10.5154 9.20835 9.54704C9.20835 8.5787 9.93419 7.79704 10.8334 7.79704ZM7.04169 14.2137C7.04169 13.2454 7.76752 12.4637 8.66669 12.4637C9.56585 12.4637 10.2917 13.2454 10.2917 14.2137C10.2917 15.182 9.56585 15.9637 8.66669 15.9637C7.76752 15.9637 7.04169 15.182 7.04169 14.2137ZM9.20835 18.8804C9.20835 17.912 9.93419 17.1304 10.8334 17.1304C11.7325 17.1304 12.4584 17.912 12.4584 18.8804C12.4584 19.8487 11.7325 20.6304 10.8334 20.6304C9.93419 20.6304 9.20835 19.8487 9.20835 18.8804ZM13 25.297C12.1009 25.297 11.375 24.5154 11.375 23.547C11.375 22.5787 12.1009 21.797 13 21.797C13.8992 21.797 14.625 22.5787 14.625 23.547C14.625 24.5154 13.8992 25.297 13 25.297ZM15.1667 20.6304C14.2675 20.6304 13.5417 19.8487 13.5417 18.8804C13.5417 17.912 14.2675 17.1304 15.1667 17.1304C16.0659 17.1304 16.7917 17.912 16.7917 18.8804C16.7917 19.8487 16.0659 20.6304 15.1667 20.6304ZM17.3334 15.9637C16.4342 15.9637 15.7084 15.182 15.7084 14.2137C15.7084 13.2454 16.4342 12.4637 17.3334 12.4637C18.2325 12.4637 18.9584 13.2454 18.9584 14.2137C18.9584 15.182 18.2325 15.9637 17.3334 15.9637Z" fill="#B17AD3"/>
</svg>
