<svg width="311" height="350" viewBox="0 0 311 350" fill="none" xmlns="http://www.w3.org/2000/svg">
<path d="M267.088 222.194C267.088 222.194 269.667 222.417 270.044 221.945C270.421 221.474 270.61 215.061 270.61 215.061L280.794 214.778C280.794 214.778 280.135 221.662 280.889 222.134C281.643 222.605 282.964 222.7 282.964 222.7C282.964 222.7 283.152 227.887 274.57 228.358C265.989 228.83 267.088 222.194 267.088 222.194Z" fill="#FEC08F"/>
<path d="M238.822 197.086C238.822 197.086 238.594 194.365 239.449 192.157C240.524 189.379 242.586 187.676 242.138 186.511C241.622 185.169 239.628 187.317 238.374 189.379C238.374 189.379 236.85 186.959 237.119 184.27C237.388 181.581 237.925 180.416 237.119 179.61C236.312 178.803 235.326 181.761 235.058 183.912C234.789 186.063 234.968 186.959 234.968 186.959C234.968 186.959 234.52 185.256 234.52 183.344C234.52 181.543 234.789 178.803 233.803 178.266C232.818 177.728 232.548 181.283 232.369 183.344C232.19 185.405 232.369 187.168 232.369 187.168C232.369 187.168 231.987 184.748 231.891 183.404C231.772 181.731 232.07 180.446 231.533 179.819C230.995 179.192 230.358 180.683 230.218 182.926C230.039 185.794 230.476 187.728 230.457 187.646C229.702 186.375 229.77 182.836 229.023 182.867C228.439 182.89 228.347 184.479 228.426 186.093C228.515 187.945 229.143 190.633 230.218 192.546C231.281 194.435 232.1 195.921 232.728 197.983L238.822 197.086Z" fill="#FEC08F"/>
<path d="M238.526 188.925C237.437 189.218 236.543 189.82 235.867 190.624C235.19 191.427 234.748 192.41 234.642 193.533C234.473 192.99 234.49 192.385 234.642 191.823C234.791 191.256 235.081 190.73 235.456 190.278C235.838 189.833 236.308 189.458 236.842 189.215C237.37 188.97 237.962 188.851 238.526 188.925Z" fill="#D87B56"/>
<path d="M236.111 185.739C234.96 185.782 233.851 185.997 232.81 186.414C231.767 186.825 230.812 187.428 229.944 188.185C230.603 187.233 231.593 186.514 232.678 186.081C233.765 185.654 234.978 185.498 236.111 185.739Z" fill="#D87B56"/>
<path d="M59.6576 1.79229C62.5271 -0.144493 66.4402 -0.416298 69.55 1.10491C69.9974 1.32371 70.4467 1.59416 70.7033 2.02142C70.9593 2.44867 70.9535 3.06955 70.5685 3.38494C70.3236 3.58576 69.9889 3.62484 69.674 3.65629C68.8967 3.73356 68.0346 3.78793 67.4169 3.31081C68.4425 3.58306 69.4228 4.02604 70.3048 4.61682C71.1251 5.16627 71.901 5.91205 72.0915 6.88067C72.1404 7.12821 72.1436 7.40226 72.0061 7.61432C71.7127 8.06538 71.0339 7.95801 70.52 7.79672C69.5716 7.49886 68.6227 7.20099 67.6743 6.90358C69.4502 7.97777 70.7702 9.78023 71.2585 11.7974C71.3637 12.231 71.4306 12.6928 71.299 13.1192C71.1673 13.5455 70.7891 13.9233 70.3425 13.9242C69.8901 13.9251 69.5284 13.5666 69.2225 13.2333C67.7457 11.6267 66.2686 10.0197 64.7918 8.41311C65.5542 9.11621 66.0691 10.0826 66.2268 11.1078C66.3292 11.7736 65.9747 12.7153 65.3233 12.5441C64.8965 12.4318 64.7545 11.9156 64.6193 11.496C63.9297 9.35791 61.3846 8.0209 59.2331 8.66605C57.0815 9.31119 55.692 11.828 56.2922 13.9925C55.6048 11.509 54.9349 9.90557 55.6951 7.30028C56.3407 5.08765 57.7415 3.08527 59.6576 1.79229Z" fill="#E38D49"/>
<path d="M23.9105 19.3792C21.245 20.1097 19.0899 21.2262 17.3094 23.34C16.042 24.8445 15.042 26.997 14.9975 28.9639C14.993 29.1665 15.0132 29.3961 15.1691 29.5254C15.3668 29.6894 15.6642 29.6041 15.896 29.494C16.5924 29.1633 17.2124 28.6723 17.694 28.0703C16.9873 29.3053 16.2707 30.5664 15.9787 31.9591C15.6867 33.3518 15.8843 34.9234 16.8359 35.9814C17.1045 36.2801 17.4581 36.5425 17.8598 36.5497C18.2726 36.5569 18.6401 36.2945 18.9384 36.0088C21.0913 33.9444 21.103 30.4896 22.7172 27.9813C22.2352 28.8965 22.0096 29.9446 22.0716 30.9766C22.0999 31.4483 22.303 32.0296 22.7743 32.0638C23.1562 32.0912 23.4419 31.7295 23.6319 31.3975C24.3148 30.2029 24.7353 28.8596 24.8566 27.4889C24.6329 28.4809 24.6064 29.5165 24.7789 30.5183C24.8041 30.6634 24.8391 30.8189 24.9487 30.9173C25.1994 31.1415 25.5921 30.9065 25.8095 30.6495C26.4726 29.8664 26.7898 28.8529 27.0382 27.8573C27.2867 26.8618 27.488 25.8379 27.9718 24.9331C28.4557 24.0282 29.2877 23.2398 30.3053 23.1081C31.2923 22.9805 34.536 23.4446 34.6618 24.4712C33.0449 20.4898 27.7795 18.3194 23.9105 19.3792Z" fill="#E38D49"/>
<path d="M219.214 127.687L221.053 167.154L213.763 167.763C213.763 167.763 206.907 127.687 209.229 125.884C219.402 117.983 219.214 127.687 219.214 127.687Z" fill="#FFCCA9"/>
<path d="M215.254 165.598C209.461 171.933 220.404 179.093 221.724 185.998C221.875 186.789 222.455 187.85 223.162 187.465C223.323 187.377 223.437 187.224 223.536 187.069C224.459 185.629 224.462 183.651 223.543 182.208C226.961 183.973 229.795 186.849 231.51 190.293C231.852 190.979 232.452 191.982 233.142 191.648C234.629 190.928 232.063 184.929 229.536 182.782C232.717 184.114 234.421 190.703 235.32 190.678C236.496 190.646 236.219 188.566 235.918 187.429C235.221 184.803 233.849 182.962 231.952 180.409C234.398 182.187 236.195 187.896 236.944 187.618C238.901 186.893 237.342 183.306 236.251 181.528C234.923 179.365 233.09 177.515 230.939 176.168C227.598 174.076 223.931 172.373 221.903 168.993C221.054 167.578 220.488 158.667 220.488 158.667L215.254 165.598Z" fill="#FFCCA9"/>
<path d="M147.502 328.655C147.502 328.655 136.343 332.603 134.145 336.002C132.725 338.2 133.297 342.506 134.993 343.072C139.51 344.578 144.892 342.789 151.522 341.011C155.566 339.927 159.308 338.761 160.729 338.83C160.908 338.839 166.039 338.15 166.102 337.982C166.506 336.905 167.09 330.667 165.819 329.498C164.336 328.133 147.502 328.655 147.502 328.655Z" fill="#AE564E"/>
<path d="M149.829 265.554C149.829 265.554 157.937 322.276 155.131 324.147C152.324 326.017 145.963 329.426 142.221 331.296C138.479 333.167 134.819 336.879 135.997 338.086C138.356 340.503 145.075 338.893 149.983 336.284C153.512 334.408 165.886 334.413 166.354 332.542C166.822 330.671 164.857 262.962 164.857 262.962L149.829 265.554Z" fill="#FFCCA9"/>
<path d="M162.017 327.077C160.103 327.077 157.665 326.493 154.87 324.536C154.486 324.267 154.393 323.738 154.661 323.354C154.93 322.971 155.459 322.877 155.843 323.146C161.639 327.203 165.483 324.465 165.522 324.437C165.899 324.159 166.431 324.239 166.708 324.617C166.986 324.994 166.906 325.525 166.529 325.803C166.414 325.888 164.749 327.077 162.017 327.077Z" fill="#EA6662"/>
<path d="M166.386 333.457C166.669 332.325 166.386 324.407 166.386 324.407C166.386 324.407 162.709 325.821 161.578 328.932C160.447 332.042 160.164 335.154 160.164 335.154L166.386 333.457Z" fill="#EA6662"/>
<path d="M149.983 339.679C149.983 339.679 148.109 328.014 145.05 329.033C141.657 330.165 133.734 336.389 133.58 338.547C133.378 341.382 149.983 339.679 149.983 339.679Z" fill="#EA6662"/>
<path d="M170.545 85.9746C176.079 85.2827 181.669 86.201 187.238 86.4841C192.808 86.7671 198.703 86.3178 203.363 83.2548C208.023 80.1917 210.887 73.8323 208.459 68.8118C206.517 64.7931 201.573 61.8572 202.059 57.4202C202.481 53.5817 207.031 50.8183 206.559 46.9856C206.153 43.6961 202.357 42.0688 200.549 39.2906C198.157 35.6147 199.635 30.7581 199.148 26.3994C198.309 18.884 190.431 12.9353 182.973 14.1865C172.714 10.317 160.351 16.7316 158.169 27.4762C157.539 30.5789 157.669 33.8841 156.353 36.7634C153.978 41.9632 147.092 45.7851 148.472 51.3327C149.423 55.1617 154.231 57.5577 154.075 61.5C153.978 63.9534 151.944 65.8183 150.733 67.9541C148.195 72.432 149.468 78.3672 152.753 82.3302C156.038 86.2945 165.438 86.613 170.545 85.9746Z" fill="#AE564E"/>
<path d="M160.076 140.49L188.432 141.146C189.239 116.131 200.523 76.7692 200.523 76.7692C200.523 76.7692 182.864 71.2949 182.161 69.691C180.755 66.4837 181.587 52.645 181.587 52.645L168.856 58.2325C168.856 58.2325 169.855 70.1722 168.097 70.9741C163.422 73.1068 155.559 75.4902 155.559 75.4902C153.218 83.621 149.6 90.9521 148.106 99.2477C147.894 100.425 147.691 101.632 147.936 102.803C148.249 104.303 149.26 105.588 150.148 106.882C156.078 115.519 159.065 130.34 160.076 140.49Z" fill="#FFCCA9"/>
<path d="M185.124 71.3406C185.124 71.3406 183.315 85.3581 172.858 84.2978C162.4 83.2376 164.99 72.1892 164.99 72.1892L155.512 75.3485C155.512 75.3485 150.781 83.238 148.457 89.5992C146.133 95.9603 146.502 97.5597 151.68 106.36C155.674 113.15 160.076 140.489 160.076 140.489L188.432 141.146L200.523 76.7686L185.124 71.3406Z" fill="#74AAB7"/>
<path d="M137.137 124.386L115.502 160.444L122.289 164.686C122.289 164.686 142.227 142.202 146.045 129.9C149.863 117.598 137.137 124.386 137.137 124.386Z" fill="#FFCCA9"/>
<path d="M121.211 152.122L127.401 158.9L117.944 168.571L108.714 167.655L121.211 152.122Z" fill="#FFCCA9"/>
<path d="M106.667 177.008C106.161 177.634 105.148 178.295 104.707 177.622C104.607 177.469 104.579 177.281 104.564 177.098C104.43 175.392 105.36 173.646 106.852 172.808C103.005 172.752 99.1502 173.95 96.013 176.178C95.3881 176.621 94.3857 177.222 93.9347 176.602C92.9629 175.266 98.0562 171.188 101.298 170.487C97.864 170.161 93.2532 175.166 92.4714 174.72C91.4502 174.136 92.6754 172.434 93.4778 171.574C95.331 169.587 97.4097 168.611 100.286 167.255C97.2911 167.669 92.6305 171.481 92.1012 170.883C90.7184 169.32 94.167 167.266 95.9681 166.213C98.1591 164.932 100.649 164.166 103.181 163.994C107.113 163.725 111.422 164.788 114.772 162.71C115.163 162.468 115.624 162.175 116.046 162.358C116.394 162.509 121.059 161.33 121.152 161.697C123.27 170.015 111.089 171.542 106.667 177.008Z" fill="#FFCCA9"/>
<path d="M155.842 75.2078C155.842 75.2078 149.995 75.9621 145.015 100.483C141.764 116.491 136.604 125.378 136.604 125.378C136.604 125.378 140.184 134.285 147.074 134.359C147.074 134.359 164.975 102.763 165.25 89.9495C165.525 77.1351 155.842 75.2078 155.842 75.2078Z" fill="#74AAB7"/>
<path d="M134.178 73.9512C134.178 73.9512 145.688 116.094 149.181 122.104C152.674 128.115 173.634 153.358 173.634 153.358L167.812 161.772C167.812 161.772 141.532 136.266 138.238 130.438C130.882 117.424 118.905 88.4463 118.905 88.4463L134.178 73.9512Z" fill="#FFBE8C"/>
<path d="M168.926 170.048C169.168 171.095 169.997 172.481 170.92 171.931C171.13 171.806 171.274 171.596 171.398 171.384C172.557 169.415 172.459 166.776 171.158 164.898C175.809 167.078 179.738 170.769 182.204 175.276C182.695 176.174 183.547 177.481 184.451 177C186.398 175.964 182.666 168.091 179.184 165.355C183.497 166.97 186.108 175.674 187.307 175.595C188.875 175.491 188.398 172.73 187.937 171.229C186.873 167.761 184.947 165.375 182.286 162.066C185.64 164.313 189.009 171.612 189.994 171.203C192.567 170.136 189.626 165.655 188.079 163.338C186.197 160.52 183.656 158.145 180.717 156.459C176.152 153.838 170.357 152.597 167.549 148.145C167.222 147.626 166.838 147.005 166.225 146.978C165.72 146.956 165.308 147.362 164.981 147.749C157.578 156.498 166.811 160.901 168.926 170.048Z" fill="#FFBE8C"/>
<path d="M128.619 68.1968C141.067 76.1182 149.734 102.801 149.734 102.801L125.551 110.438C125.551 110.438 121.733 92.6188 123.006 83.7095C124.279 74.8001 128.619 68.1968 128.619 68.1968Z" fill="#FFB564"/>
<path d="M149.259 101.618L128.993 109.45L129.911 111.825L150.176 103.992L149.259 101.618Z" fill="#D4F0FF"/>
<path d="M57.0109 129.15C57.0109 129.15 23.445 127.506 29.3856 108.834C33.0246 97.397 43.8133 102.893 52.3004 106.288C60.7874 109.683 63.3334 113.927 63.3334 113.927L57.0109 129.15Z" fill="#FFBE8C"/>
<path d="M59.9343 53.6123C64.4611 53.8953 82.4542 55.4085 91.3052 61.1676C92.2644 61.7916 93.2923 62.7418 93.087 63.8677C92.9207 64.781 92.0033 65.3309 91.1668 65.7335C83.9655 69.1951 75.9623 70.5478 68.0813 71.8628C66.5219 72.1229 64.6548 72.2797 63.6259 71.0793C63.0185 70.3703 62.8977 69.3784 62.8029 68.4497C62.328 63.794 60.4092 65.1526 59.9343 60.4968V53.6123Z" fill="#FD5553"/>
<path d="M71.9285 305.476C71.9285 305.476 62.1646 316.826 64.2096 320.189C66.2547 323.551 73.0278 332.726 76.0626 336.552C79.0974 340.377 81.1424 343.74 79.1962 344.032C77.25 344.324 65.8378 337.78 62.5721 334.447C59.3064 331.115 46.6735 324.601 47.1021 322.397C47.5307 320.192 57.3247 301.973 57.3247 301.973L71.9285 305.476Z" fill="#D8B695"/>
<path d="M81.9234 341.828C81.9234 341.828 80.7076 345.553 76.7658 346.212C73.3087 346.791 65.965 345.557 59.7049 340.183C53.4449 334.81 42.6594 332.513 40.4926 327.813C39.0253 324.63 44.916 321.836 44.916 321.836C44.916 321.836 75.7734 342.887 81.9234 341.828Z" fill="#DEAE9C"/>
<path d="M67.0177 322.222C69.4846 323.555 69.1445 329.347 72.8204 332.129C76.4963 334.911 80.6969 335.985 81.7141 338.527C82.7312 341.068 82.2069 342.777 80.4485 343.819C78.6905 344.862 68.1058 342.331 62.7708 337.457C57.4358 332.583 44.4201 327.4 42.9663 323.969C42.0907 321.903 47.0142 315.001 49.0561 314.909C51.098 314.817 54.4832 321.825 57.0921 323.632C59.7014 325.44 64.859 321.055 67.0177 322.222Z" fill="#63759D"/>
<path d="M125.979 310.37C125.979 310.37 121.947 324.789 125.224 326.968C128.502 329.146 138.526 334.585 142.896 336.763C147.266 338.942 150.544 341.12 148.905 342.209C147.266 343.298 134.155 342.209 129.785 340.576C125.415 338.942 111.212 338.397 110.666 336.219C110.12 334.04 111.268 313.388 111.268 313.388L125.979 310.37Z" fill="#D8B695"/>
<path d="M126.733 150.43C126.733 150.43 141.067 199.846 138.049 246.621C135.125 291.949 128.619 322.064 128.619 322.064L107.117 321.686C107.117 321.686 109.758 242.848 100.328 201.354C100.328 201.354 99.5734 260.955 69.0189 318.291L51.2896 310.747C51.2896 310.747 68.2641 248.507 64.4921 207.013C61.4137 173.15 70.1501 150.43 70.1501 150.43H126.733Z" fill="#74AAB7"/>
<path d="M93.2548 30.0034L91.7619 61.7692L78.182 64.0326C78.182 64.0326 90.9721 81.2201 101.707 84.6574C112.442 88.0948 114.756 64.2361 114.756 64.2361L107.683 62.5387L107.667 44.1418L93.2548 30.0034Z" fill="#FFB176"/>
<path d="M101.46 75.5523C90.0014 74.1376 87.0309 62.397 87.0309 62.397L69.2742 64.7021C69.2742 64.7021 64.9635 75.5523 65.2465 83.4742C66.061 106.278 62.0172 155.555 61.5374 168.38C61.5374 168.38 83.2773 172.157 98.4962 171.824C113.925 171.485 133.397 167.249 133.397 167.249C133.397 167.249 129.832 138.307 129.23 111.906C128.823 94.0225 135.251 75.6278 130.599 69.8943C126.102 64.3522 113.966 63.8153 113.966 63.8153C113.966 63.8153 105.49 76.0501 101.46 75.5523Z" fill="#FFB564"/>
<path d="M101.125 76.0748C89.8797 76.0748 84.8852 63.1571 84.6893 62.6179L87.3782 62.1035C87.42 62.2172 91.675 73.5292 101.138 73.5292C101.208 73.5292 101.276 73.5288 101.346 73.5274C108.362 73.4052 113.073 63.5695 113.122 63.4666L115.809 64.0322C115.583 64.5102 109.988 75.922 101.391 76.0721C101.302 76.0739 101.213 76.0748 101.125 76.0748Z" fill="#D4F0FF"/>
<path d="M150.44 339.057C150.44 339.057 150.918 342.946 147.628 345.214C144.742 347.204 137.567 349.199 129.62 346.986C121.672 344.773 110.93 347.264 106.975 343.925C104.297 341.665 108.448 336.637 108.448 336.637C108.448 336.637 145.319 342.624 150.44 339.057Z" fill="#DEAE9C"/>
<path d="M128.629 327.618C131.429 327.78 133.576 333.17 138.084 334.132C142.593 335.094 146.853 334.286 148.852 336.157C150.85 338.027 151.1 339.797 149.949 341.486C148.799 343.176 138.139 345.37 131.241 343.217C124.344 341.064 110.358 341.888 107.587 339.397C105.918 337.896 107.452 329.558 109.262 328.609C111.072 327.661 117.109 332.572 120.238 333.104C123.367 333.635 126.18 327.477 128.629 327.618Z" fill="#63759D"/>
<path d="M129.899 86.5834L128.827 112.266L129.676 112.301L130.747 86.6188L129.899 86.5834Z" fill="#D17742"/>
<path d="M135.34 90.3325L129.18 101.023L129.915 101.446L136.075 90.7562L135.34 90.3325Z" fill="#D17742"/>
<g opacity="0.24">
<path d="M107.7 48.8497L107.37 34.8457L92.486 49.149L92.0453 55.9225C95.9355 56.5506 104.102 55.7181 107.7 48.8497Z" fill="#994F49"/>
</g>
<path d="M86.5165 9.38013C83.2661 14.7187 82.731 21.6199 85.1189 27.3961C85.321 27.8854 85.5596 28.3881 85.9832 28.7057C86.4073 29.0233 87.0696 29.084 87.4362 28.7017C87.6693 28.4586 87.7331 28.1042 87.7843 27.7717C88.2147 24.9795 88.5005 22.1424 89.3977 19.463C90.3541 16.6061 92.0043 13.9846 94.1657 11.8861L86.5165 9.38013Z" fill="#774B42"/>
<path d="M111.711 33.5267C112.24 32.4265 113.135 31.4839 114.26 30.8392C115.067 30.3769 116.146 30.0741 117.035 30.5144C118.158 31.0701 118.321 32.439 118.142 33.5271C117.747 35.928 116.414 38.146 114.417 39.7216C114.082 39.9867 113.688 40.2459 113.224 40.2306C112.435 40.2046 111.915 39.4327 111.683 38.7508C111.45 38.0688 111.272 37.2866 110.604 36.8755L111.711 33.5267Z" fill="#FFBE8C"/>
<path d="M116.173 32.4958C115.992 33.0961 115.623 33.6442 115.15 34.0809C114.68 34.5225 114.096 34.8482 113.467 35.0311L113.542 34.5036C114.111 34.8662 114.521 35.4367 114.701 36.0594C114.886 36.6776 114.853 37.3645 114.56 37.9086C114.617 37.2989 114.507 36.7239 114.276 36.2162C114.04 35.7135 113.685 35.2741 113.232 34.9974L112.661 34.6483L113.307 34.4695C113.859 34.3172 114.381 34.0562 114.862 33.7255C115.344 33.3903 115.777 32.9784 116.173 32.4958Z" fill="#AD6C58"/>
<path d="M103.589 6.65932C116.071 8.98741 116.178 21.7021 115.031 25.8775C114.322 28.4613 113.565 30.2624 112.363 34.702C111.216 38.9381 105.639 53.5864 94.3706 51.8415C82.8469 50.0574 84.4427 33.5955 84.706 28.6347C84.8942 25.0868 85.3938 23.1828 86.3885 19.2554C88.1873 12.1538 92.4374 4.57922 103.589 6.65932Z" fill="#FFBE8C"/>
<path d="M86.3203 28.9075C86.2744 27.6873 85.8319 26.4653 85.0578 25.4243C84.5025 24.6776 83.6355 23.9691 82.6444 24.0172C81.3927 24.0774 80.6964 25.2671 80.425 26.3359C79.8266 28.6941 80.1617 31.2603 81.3617 33.503C81.5634 33.8799 81.8204 34.2753 82.2522 34.4469C82.9854 34.7385 83.7702 34.2384 84.2563 33.7065C84.7424 33.1746 85.2182 32.5285 85.995 32.4194L86.3203 28.9075Z" fill="#FFBE8C"/>
<path d="M82.642 26.1782C82.8118 26.7789 83.0445 27.3301 83.3509 27.8297C83.66 28.3253 84.0343 28.7732 84.479 29.1335L85.0002 29.5558L84.3371 29.647C83.8114 29.7193 83.3101 29.9799 82.8931 30.347C82.478 30.7194 82.1478 31.2028 81.956 31.7842C81.9052 31.1682 82.1496 30.5253 82.5665 30.0329C82.9803 29.5342 83.5837 29.1748 84.2508 29.0701L84.1088 29.5837C83.6052 29.1649 83.2009 28.6326 82.9457 28.0395C82.6869 27.4505 82.5674 26.8009 82.642 26.1782Z" fill="#AD6C58"/>
<path d="M96.8312 30.5691C96.8698 32.9619 91.998 33.1007 92.4958 35.8601C92.7281 37.1486 94.1172 38.0498 95.3585 37.6338C96.6003 37.2173 97.3591 35.8983 97.5065 34.5972C97.6538 33.2961 97.3074 31.9951 96.9642 30.7317L96.8312 30.5691Z" fill="#FF9971"/>
<path d="M105.342 28.288C103.789 27.841 102.224 29.0487 101.666 30.5654L105.342 28.288Z" fill="white"/>
<path d="M102.08 22.7077C102.196 22.8725 102.394 22.9723 102.608 22.9534C102.756 22.9408 106.251 22.6847 107.776 26.1306C107.906 26.4253 108.251 26.5574 108.545 26.4276C108.839 26.2973 108.972 25.9531 108.842 25.6589C106.972 21.4358 102.549 21.7889 102.505 21.7929C102.185 21.8221 101.948 22.1056 101.978 22.4264C101.987 22.5311 102.023 22.6268 102.08 22.7077Z" fill="#774B42"/>
<path d="M94.4394 21.8788C94.5342 21.8299 94.6169 21.7539 94.6744 21.6542C94.8356 21.3757 94.7409 21.0194 94.4628 20.8581C93.3432 20.2094 91.0281 19.4542 88.1025 21.6758L88.0252 21.7333C87.7435 21.8887 87.6564 22.2338 87.8118 22.5154C87.9673 22.7971 88.3456 22.8807 88.6187 22.7351C88.6475 22.7194 88.7131 22.6749 88.8074 22.6035C90.6031 21.2377 92.357 20.9844 93.8783 21.8663C94.0571 21.97 94.2682 21.9678 94.4394 21.8788Z" fill="#774B42"/>
<path d="M101.287 29.6589C101.287 29.6589 100.837 31.7763 103.869 32.1425C106.9 32.5086 108.349 30.628 108.349 30.628C108.349 30.628 107.311 28.627 104.85 28.3794C102.389 28.1319 101.287 29.6589 101.287 29.6589Z" fill="white"/>
<path d="M93.8683 28.4088C93.8683 28.4088 92.7573 29.921 89.7818 29.2341C86.8796 28.5642 87.2583 26.1741 87.2583 26.1741C87.2583 26.1741 88.7287 24.8272 91.0842 25.5815C93.4397 26.3363 93.8683 28.4088 93.8683 28.4088Z" fill="white"/>
<path d="M101.136 29.6503C101.136 29.6503 101.1 31.6342 102.937 32.017C105.037 32.4537 105.461 28.5667 105.461 28.5667C105.461 28.5667 103.141 27.7216 101.136 29.6503Z" fill="#994F49"/>
<path d="M87.2618 26.1026C87.2618 26.1026 87.0471 28.3858 88.929 28.8957C90.9992 29.4569 91.4418 25.7158 91.4418 25.7158C91.4418 25.7158 89.1779 24.5176 87.2618 26.1026Z" fill="#994F49"/>
<path d="M101.246 29.8115C101.402 29.8438 101.567 29.7782 101.655 29.6358C101.693 29.5765 102.576 28.2202 104.794 28.5652C107.161 28.9314 108.047 30.3973 108.083 30.4593C108.192 30.644 108.429 30.7064 108.613 30.5995C108.798 30.4921 108.862 30.2567 108.756 30.0711C108.712 29.9961 107.661 28.226 104.913 27.7979C102.163 27.3702 101.04 29.1528 100.994 29.2292C100.882 29.4125 100.94 29.6515 101.123 29.7629C101.162 29.7868 101.203 29.8025 101.246 29.8115Z" fill="#272C3A"/>
<path d="M93.8183 28.3312C93.8776 28.3433 93.941 28.342 94.003 28.3245C94.2088 28.2661 94.3287 28.0531 94.2708 27.8469C94.2465 27.7611 93.6544 25.7367 91.2706 25.026C88.5557 24.2173 87.1548 25.6024 87.0969 25.6617C86.9468 25.8149 86.9491 26.0606 87.1023 26.2111C87.2555 26.3621 87.5012 26.3589 87.6513 26.2057C87.6953 26.1622 88.8019 25.1032 91.0486 25.7704C93.0097 26.3553 93.5034 27.9889 93.5232 28.0581C93.565 28.2014 93.6818 28.3029 93.8183 28.3312Z" fill="#272C3A"/>
<path d="M91.5829 15.4143C86.9533 13.9128 83.0927 9.20183 83.9908 4.41806C84.1355 3.64712 84.6512 2.73017 85.4235 2.86495C86.6572 3.08014 86.5233 5.60097 87.77 5.48191C87.3459 4.08335 87.3652 1.96192 88.8204 1.82939C89.1538 1.79884 89.4831 1.90442 89.8016 2.0082C92.0344 2.7378 94.2673 3.46696 96.5006 4.19612C95.6735 3.71855 94.7974 3.18932 94.3944 2.32358C93.9919 1.4574 94.3594 0.179688 95.3011 0.0179529C95.6659 -0.0444949 96.0351 0.0673731 96.3883 0.178342C99.1724 1.05261 101.956 1.92733 104.74 2.8016C107.221 3.58063 109.76 4.3893 111.82 5.97701C113.88 7.56471 115.397 10.1174 115.027 12.6917C116.341 11.8467 118.207 12.3934 119.234 13.5696C120.262 14.7458 120.605 16.3726 120.682 17.9324C120.968 23.7153 117.861 29.5423 112.901 32.5272C112.642 32.6827 112.358 32.8354 112.058 32.8071C111.346 32.7397 111.135 31.8093 111.134 31.0941C111.131 28.7795 111.64 25.2352 112.034 24.1201C112.751 22.0926 114.457 19.8063 112.986 18.8947C111.382 17.9019 110.297 19.4536 108.646 18.7649C105.656 17.5177 106.658 15.8249 103.503 15.2952C99.5529 14.6316 95.793 16.7796 91.5829 15.4143Z" fill="#774B42"/>
<path d="M90.661 40.2324C90.661 40.2324 96.4844 43.2232 101.411 40.6435C101.411 40.6435 100.405 46.5482 95.9232 46.4085C90.9539 46.2535 90.661 40.2324 90.661 40.2324Z" fill="#994F49"/>
<path d="M91.848 40.7319C91.848 41.1057 91.8646 41.4791 91.9141 41.847C92.8867 42.5092 94 42.5807 95.1214 42.7797C95.5342 42.8529 95.948 42.9261 96.3663 42.95C97.5577 43.0178 98.7442 42.6826 99.9092 42.3466C99.9186 41.9903 99.942 41.6107 99.9406 41.236C96.7792 42.2203 93.5359 41.3573 91.848 40.7319Z" fill="white"/>
<path d="M98.9958 45.3019C98.7154 44.9228 98.3232 44.6272 97.9103 44.3904C96.8793 43.7996 95.6748 43.4788 94.4923 43.6001C93.6562 43.6859 92.8399 44.0094 92.1844 44.5288C92.9657 45.5432 94.1437 46.3523 95.9237 46.408C97.2185 46.4485 98.2217 45.9826 98.9958 45.3019Z" fill="#FD4E4C"/>
<path d="M94.5142 33.2018C94.0322 33.4022 93.6561 33.7068 93.3749 34.0689C93.0995 34.4333 92.9158 34.8542 92.8875 35.2815C92.847 35.7078 92.9607 36.153 93.1736 36.5565C93.3933 36.959 93.7141 37.3202 94.1575 37.597C93.6292 37.5732 93.1134 37.2672 92.7671 36.8314C92.4126 36.3979 92.218 35.8174 92.2612 35.2307C92.3142 34.6444 92.5999 34.1035 93.02 33.7333C93.4311 33.3595 93.9891 33.1407 94.5142 33.2018Z" fill="#D87B56"/>
<path d="M71.8205 64.7019C52.0165 66.4154 48.9058 100.347 48.9058 100.347L78.431 106.237C78.431 106.237 87.5596 63.3402 71.8205 64.7019Z" fill="#FFB564"/>
<path d="M49.1938 99.2814L48.6266 101.406L70.6935 107.296L71.2607 105.172L49.1938 99.2814Z" fill="#D4F0FF"/>
<path d="M67.0701 133.266C67.0701 133.266 64.4073 135.255 63.8722 136.849C63.3372 138.444 65.0587 141.903 66.3171 144.1C67.5755 146.296 67.8864 149.444 70.2226 152.284C72.7425 155.347 75.1322 156.814 78.3934 155.026C81.5643 153.287 80.0682 148.714 80.0682 148.714L67.0701 133.266Z" fill="#49516B"/>
<path d="M59.2861 98.6731C59.2861 98.6731 81.8747 104.976 89.2637 113.419C96.6528 121.861 67.8639 139.957 67.8639 139.957L67.8998 132.657C67.8998 132.657 79.7393 119.325 78.9765 117.792C78.2136 116.258 61.1689 114.639 55.1775 109.646C49.1861 104.654 50.2194 99.0374 59.2861 98.6731Z" fill="#EB6860"/>
<path d="M75.431 134.434C75.431 134.434 76.6247 142.127 78.4132 145.055C80.2022 147.984 81.558 151.211 77.7658 152.931C73.9731 154.652 69.7976 148.594 68.0464 143.572C66.2951 138.55 65.2043 135.523 67.0701 133.267C68.9359 131.01 72.659 130.819 72.659 130.819L75.431 134.434Z" fill="#EB6860"/>
<path d="M71.4324 145.705C75.4426 151.264 78.414 144.722 78.414 144.722C78.414 144.722 80.5018 147.751 80.3634 150.476C80.225 153.201 77.3286 155.555 73.6765 153.554C70.0245 151.552 68.1106 144.701 66.9519 142.538C65.7933 140.376 64.0726 136.583 65.9384 134.327C67.8042 132.071 70.5649 131.112 70.5649 131.112C69.5985 132.34 67.8406 133.894 67.8954 136.425C67.9484 138.908 70.0379 143.773 71.4324 145.705Z" fill="#955A78"/>
<path d="M68.8463 142.51C68.8463 142.51 72.4458 137.731 76.9951 139.701L77.2242 141.33C77.2242 141.33 72.0073 140.688 70.0719 144.473L68.8463 142.51Z" fill="#507CA1"/>
<path d="M10.4204 32.9114C10.4204 32.9114 10.1931 30.1902 11.0476 27.9821C12.1231 25.2038 14.1844 23.5011 13.736 22.3357C13.2202 20.9946 11.2268 23.1421 9.97205 25.2038C9.97205 25.2038 8.44859 22.7841 8.71725 20.0952C8.98636 17.4068 9.52368 16.2414 8.71725 15.435C7.91082 14.6286 6.92468 17.5861 6.65602 19.7367C6.38736 21.8878 6.56662 22.7836 6.56662 22.7836C6.56662 22.7836 6.1187 21.0809 6.1187 19.1688C6.1187 17.3673 6.38736 14.6281 5.40167 14.0903C4.41598 13.5526 4.14687 17.1076 3.96762 19.1688C3.78836 21.2301 3.96762 22.9925 3.96762 22.9925C3.96762 22.9925 3.58574 20.5723 3.4896 19.2286C3.3701 17.5555 3.66886 16.2711 3.13108 15.6439C2.59331 15.0167 1.95671 16.5074 1.81654 18.751C1.63728 21.6187 2.07397 23.5523 2.05555 23.471C1.29988 22.2 1.36862 18.6612 0.62149 18.6913C0.0374455 18.7146 -0.0542055 20.3037 0.0239667 21.9179C0.11337 23.7702 0.740996 26.4586 1.81654 28.3707C2.87905 30.2598 3.69851 31.7465 4.32613 33.8077C4.95331 35.8689 10.8683 33.1805 10.8683 33.1805L10.4204 32.9114Z" fill="#FEC08F"/>
<path d="M10.1256 25.1735C9.03661 25.4664 8.14213 26.0689 7.46598 26.8731C6.78894 27.6764 6.34687 28.6589 6.24129 29.7821C6.07281 29.2389 6.08898 28.6346 6.24173 28.0722C6.39044 27.5052 6.68067 26.9787 7.05536 26.5271C7.43768 26.0815 7.90761 25.7068 8.44089 25.4646C8.96923 25.2184 9.56136 25.0998 10.1256 25.1735Z" fill="#D87B56"/>
<path d="M7.7104 21.9888C6.55938 22.0328 5.45015 22.2471 4.40965 22.6641C3.36646 23.0747 2.41176 23.6785 1.54333 24.4351C2.20286 23.4831 3.19259 22.7642 4.27756 22.3307C5.36478 21.9035 6.57735 21.7485 7.7104 21.9888Z" fill="#D87B56"/>
<path d="M57.2468 43.3799C57.2468 43.3799 55.408 51.7259 57.9539 53.4232C57.9539 53.4232 57.7158 57.7568 52.8763 57.7568C48.0369 57.7568 45.6472 53.1402 45.6472 53.1402C45.6472 53.1402 49.7495 54.979 48.5751 44.0452L57.2468 43.3799Z" fill="#FEC08F"/>
<path d="M66.1162 92.0912C66.4653 84.7767 71.7253 58.4255 65.9922 54.7536C65.5578 54.4751 61.7853 54.2114 57.954 53.1408C57.8969 53.1246 56.2939 56.2528 52.2959 56.2528C48.2629 56.2528 46.779 52.7162 46.779 52.7162C46.779 52.7162 35.3115 55.8754 24.0196 48.8853C12.7278 41.8952 10.8458 32.4854 10.8458 32.4854L3.85571 33.5609C3.85571 33.5609 5.49149 48.1481 17.3211 57.5579C29.1507 66.9678 38.3301 68.1238 38.3301 68.1238L39.1787 92.3041C39.1787 92.3041 49.466 95.2994 52.7537 95.2738C56.2005 95.2454 66.1162 92.0912 66.1162 92.0912Z" fill="#FD5553"/>
<path d="M57.8949 52.9178C57.8949 52.9178 56.73 56.144 52.5177 56.144C48.3058 56.144 47.1404 52.6487 47.1404 52.6487L44.8105 53.1865C44.8105 53.1865 45.8861 58.5637 52.3384 58.8324C58.7908 59.101 60.135 53.4551 60.135 53.4551L57.8949 52.9178Z" fill="#507CA1"/>
<path d="M10.8688 32.2842L3.8562 33.5605L4.32613 36.3172L11.496 34.7933L10.8688 32.2842Z" fill="#507CA1"/>
<path d="M65.7129 26.4927C65.7129 26.4927 66.7785 17.8538 60.0463 12.5502C53.2197 7.17249 44.0776 13.1324 44.0776 13.1324C44.0776 13.1324 33.7301 15.0297 31.2992 23.9552C28.8682 32.8808 40.5015 42.3365 40.5015 42.3365L65.7129 26.4927Z" fill="#E38D49"/>
<path d="M33.3141 17.4852C35.4342 18.1614 32.3657 21.1382 32.3657 21.1382C32.3657 21.1382 35.7671 19.3039 35.7837 21.5291C35.7994 23.6388 32.2376 22.397 32.2376 22.397C32.2376 22.397 34.6875 25.2166 32.544 25.7113C30.0883 26.2782 30.5637 22.7897 30.5637 22.7897C30.5637 22.7897 29.0218 25.9647 27.3469 24.4511C25.5759 22.8504 29.3197 21.5857 29.3197 21.5857C29.3197 21.5857 24.7906 21.0946 26.0935 19.1381C27.417 17.1514 29.919 20.4531 29.919 20.4531C29.919 20.4531 28.0132 17.1519 29.5155 16.7372C31.0179 16.3225 31.2928 19.6732 31.2928 19.6732C31.2928 19.6732 31.7461 16.9852 33.3141 17.4852Z" fill="#B3E2FF"/>
<path d="M32.0871 21.251C32.0412 20.6149 31.4886 20.1364 30.8525 20.1822C30.2163 20.2281 29.7378 20.7807 29.7837 21.4164C29.8295 22.0525 30.3821 22.531 31.0183 22.4852C31.6544 22.4398 32.1329 21.8867 32.0871 21.251Z" fill="#FF4545"/>
<path d="M44.4414 17.8184C55.6865 12.4609 60.575 18.7057 61.9637 21.2719C63.0581 23.2945 64.2913 26.7291 65.8835 29.8578C67.9299 33.8796 67.801 45.4222 57.9239 48.1878C49.3083 50.6004 42.9377 46.4537 39.6091 39.1504C36.9252 33.2624 33.5009 23.0303 44.4414 17.8184Z" fill="#FEC08F"/>
<path d="M53.0068 35.2798C53.1632 34.7766 53.4319 34.313 53.7634 33.8889C53.8501 33.7833 53.9377 33.6804 54.0518 33.5776C54.1826 33.4715 54.2998 33.3826 54.4508 33.3183C54.7415 33.1773 55.0955 33.1629 55.4127 33.2411C56.0636 33.4163 56.49 33.9401 56.7088 34.455C56.9289 34.9815 56.9927 35.5373 56.8948 36.0768C56.6109 35.6069 56.3979 35.1549 56.1198 34.7775C55.8493 34.4006 55.5447 34.0897 55.1943 33.9603C55.0209 33.8862 54.8367 33.8723 54.639 33.8938C54.5447 33.9046 54.4301 33.9374 54.3501 33.977C54.2598 34.0304 54.1614 34.1068 54.068 34.185C53.6897 34.5057 53.3348 34.8737 53.0068 35.2798Z" fill="#D87B56"/>
<path d="M60.402 26.8776C60.6599 25.7984 56.231 23.8648 55.8761 25.2175C55.6676 26.0118 60.2106 27.6759 60.402 26.8776Z" fill="#D17742"/>
<path d="M45.8961 29.1408C46.9465 29.6363 44.2352 33.7601 43.3771 33.3859C42.519 33.0116 44.7882 28.6183 45.8961 29.1408Z" fill="#D17742"/>
<path d="M55.859 15.978C57.6592 16.9251 59.755 18.4773 61.0637 22.2323L57.2337 23.0387L53.9173 18.7428L55.9798 23.2166C55.9798 23.2166 52.3053 24.6232 48.1918 26.5731C47.8252 26.7469 45.6521 22.7246 45.6521 22.7246C45.6521 22.7246 46.6998 27.0228 46.4932 27.1261C46.083 27.331 45.6724 27.548 45.2644 27.7735C45.0658 27.8836 43.9966 25.9328 43.7994 26.0465C43.603 26.1597 44.2783 28.3364 44.0847 28.4523C42.4969 29.4016 41.0022 30.4331 39.8086 31.3245C39.8086 31.3245 37.117 27.1194 39.3292 22.8999C41.5414 18.6808 50.8075 13.3211 55.859 15.978Z" fill="#E38D49"/>
<path d="M61.4435 20.7945C63.2042 23.4335 64.4105 27.3745 65.3167 30.4146C66.1788 26.8241 64.7987 23.0682 62.9589 19.8668C62.0271 18.2449 60.9516 16.6721 59.5135 15.4761C57.4545 13.7635 54.7432 12.9319 52.0647 12.9104C49.3866 12.8888 46.74 13.6373 44.3265 14.7986C44.8454 16.1159 45.3639 17.4336 45.8828 18.7508C45.615 18.0711 53.7607 16.1684 54.7472 16.2677C57.6333 16.5588 59.9116 18.4988 61.4435 20.7945Z" fill="#E38D49"/>
<path d="M45.9412 18.566C41.9975 20.0634 38.7507 22.7055 37.8674 26.8297C37.584 28.1524 37.9964 30.4387 38.7161 33.0539C39.3653 35.413 40.3968 37.8848 41.396 40.1186C38.8006 38.6724 37.1473 35.9498 36.1679 33.1451C34.8313 29.3164 34.5811 24.9653 36.2622 21.275C37.9434 17.5848 40.7351 15.7527 44.5255 14.8752L45.9412 18.566Z" fill="#E38D49"/>
<path d="M49.5712 34.9177C48.9804 34.4657 48.3083 34.1512 47.634 34.0758C46.9601 33.9958 46.288 34.2101 45.7305 34.5947C45.1774 34.9792 44.8023 35.5808 44.6253 36.2646C44.4451 36.9475 44.411 37.6878 44.4842 38.426C44.234 37.7247 44.136 36.9533 44.2506 36.1859C44.3602 35.424 44.7591 34.6459 45.4241 34.1728C46.0575 33.6912 46.9134 33.4558 47.7072 33.6269C48.4961 33.7995 49.153 34.2986 49.5712 34.9177Z" fill="#514247"/>
<path d="M56.7339 31.8732C56.5708 31.1441 56.6584 30.3237 57.0749 29.6318C57.495 28.9373 58.2538 28.4759 59.0387 28.3456C59.8397 28.1866 60.6789 28.431 61.3083 28.8739C61.9454 29.3174 62.4391 29.918 62.7774 30.5816C62.2909 30.0214 61.7289 29.5379 61.1084 29.2005C60.4893 28.86 59.7948 28.7198 59.1352 28.8582C58.4726 28.9997 57.8553 29.3416 57.4509 29.8866C57.043 30.4288 56.8103 31.1333 56.7339 31.8732Z" fill="#514247"/>
<g opacity="0.23">
<path d="M41.8259 40.9259C41.799 40.8723 41.7744 40.8177 41.748 40.7635C41.7861 40.7425 41.8151 40.7134 41.8214 40.6714C41.8151 40.7224 41.8004 40.8718 41.8259 40.9259Z" fill="#514247"/>
<path d="M41.8232 40.6696C41.8232 40.6705 41.8223 40.6709 41.8223 40.6718C41.8245 40.652 41.8259 40.6461 41.8232 40.6696Z" fill="#514247"/>
</g>
<path d="M41.3644 40.0136C40.8203 39.2939 40.035 38.7417 39.1257 38.4394C38.4733 38.2224 37.6485 38.1604 37.0689 38.6092C36.3366 39.1757 36.4184 40.1906 36.7068 40.9521C37.3425 42.6333 38.6319 44.0449 40.3077 44.8949C40.5894 45.0377 40.9124 45.1685 41.2462 45.0894C41.8136 44.9555 42.0773 44.3207 42.1461 43.7928C42.2153 43.2649 42.2301 42.6724 42.6542 42.2774L41.3644 40.0136Z" fill="#FEC08F"/>
<path d="M37.9823 39.918C38.6688 40.52 39.4864 40.896 40.3427 40.9634L40.7462 40.9953L40.4533 41.2756C39.8724 41.8318 39.6567 42.756 39.9397 43.6019C39.3809 42.8746 39.4891 41.6885 40.2039 41.0124L40.3144 41.3246C39.3615 41.2509 38.4482 40.7163 37.9823 39.918Z" fill="#AD5858"/>
<path d="M64.5191 30.1084C64.3744 29.218 64.5178 28.2687 64.9266 27.4021C65.22 26.7803 65.7451 26.1414 66.4698 26.0318C67.385 25.8934 68.0625 26.6536 68.4147 27.3881C69.1915 29.0091 69.3218 30.9162 68.779 32.7151C68.6878 33.0174 68.5589 33.3414 68.2714 33.5282C67.7826 33.8459 67.1415 33.5983 66.7124 33.2839C66.2829 32.9689 65.8444 32.5709 65.2658 32.6046L64.5191 30.1084Z" fill="#FEC08F"/>
<path d="M66.7857 27.5964C67.0413 28.4846 66.7974 29.5144 66.1927 30.2547L66.0431 29.9591C67.0261 29.9093 67.9583 30.6501 68.0985 31.5567C67.682 30.7678 66.8648 30.2853 66.0615 30.3212L65.6562 30.3392L65.9119 30.0256C66.4541 29.3598 66.7471 28.5084 66.7857 27.5964Z" fill="#AD5858"/>
<path d="M58.9715 6.50989C61.0912 7.18604 58.0231 10.1629 58.0231 10.1629C58.0231 10.1629 61.4245 8.32851 61.4412 10.5537C61.4569 12.6635 57.8951 11.4217 57.8951 11.4217C57.8951 11.4217 60.3449 14.2413 58.2015 14.7359C55.7458 15.3029 56.2211 11.8144 56.2211 11.8144C56.2211 11.8144 54.6793 14.9893 53.0044 13.4757C51.2334 11.8755 54.9771 10.6103 54.9771 10.6103C54.9771 10.6103 50.4481 10.1193 51.751 8.16274C53.074 6.17609 55.5764 9.47774 55.5764 9.47774C55.5764 9.47774 53.6707 6.17653 55.173 5.76186C56.6753 5.34719 56.9503 8.69781 56.9503 8.69781C56.9503 8.69781 57.4032 6.00986 58.9715 6.50989Z" fill="#B3E2FF"/>
<path d="M57.7442 10.2751C57.6984 9.63944 57.1458 9.16097 56.5096 9.20635C55.8739 9.25217 55.3955 9.80477 55.4408 10.4409C55.4867 11.0771 56.0393 11.5551 56.6754 11.5097C57.3116 11.4635 57.7901 10.9109 57.7442 10.2751Z" fill="#FF4545"/>
<path d="M59.6448 37.936C59.6448 37.936 57.4645 41.0652 51.7238 40.8275C51.7238 40.8275 53.444 44.8561 57.2344 43.4777C60.5743 42.2634 59.6448 37.936 59.6448 37.936Z" fill="#D8485A"/>
<path d="M38.0089 67.8675C37.8745 64.1035 37.2622 63.1443 35.3474 60.6806L36.0177 60.1594C38.0156 62.7306 38.7138 63.8236 38.8571 67.8369L38.0089 67.8675Z" fill="#AE564E"/>
<path d="M56.8044 137.023C56.8044 137.023 54.3667 139.282 54.0032 140.924C53.6398 142.566 55.7176 145.825 57.2011 147.876C58.685 149.927 59.327 153.024 61.9503 155.601C64.7798 158.38 67.3118 159.586 70.365 157.463C73.3342 155.398 71.3624 151.01 71.3624 151.01L56.8044 137.023Z" fill="#49516B"/>
<path d="M45.6171 103.343C45.6171 103.343 70.4363 107.831 78.599 115.528C86.7621 123.225 58.1057 143.616 58.1057 143.616L57.4431 136.346C57.4431 136.346 69.7467 122.62 68.8405 121.166C67.9343 119.712 49.0189 119.055 42.5773 114.659C36.1358 110.263 36.6268 104.573 45.6171 103.343Z" fill="#EB6860"/>
<path d="M65.2415 137.3C65.2415 137.3 67.2421 144.823 69.3307 147.546C71.4194 150.269 73.109 153.334 69.5199 155.446C65.9307 157.558 61.1379 151.977 58.8651 147.168C56.5923 142.359 55.1874 139.465 56.8043 137.023C58.4208 134.583 62.1025 133.998 62.1025 133.998L65.2415 137.3Z" fill="#EB6860"/>
<path d="M62.4579 148.931C67.0337 154.035 69.2966 147.216 69.2966 147.216C69.2966 147.216 71.693 150.007 71.8435 152.731C71.994 155.456 69.3631 158.103 65.5196 156.499C61.6766 154.895 59.0489 148.285 57.6674 146.257C56.2863 144.229 54.1739 140.64 55.7908 138.199C57.4073 135.758 60.0512 134.513 60.0512 134.513C59.22 135.836 57.6364 137.568 57.9585 140.078C58.2743 142.54 60.867 147.157 62.4579 148.931Z" fill="#955A78"/>
<path d="M59.5483 146.027C59.5483 146.027 62.6218 140.894 67.3543 142.372L67.7546 143.968C67.7546 143.968 62.4991 143.881 60.9748 147.85L59.5483 146.027Z" fill="#507CA1"/>
<path d="M59.9585 146.118C59.5618 146.03 59.1691 146.28 59.0811 146.677C58.9935 147.074 59.2437 147.466 59.6404 147.554C60.0371 147.642 60.4298 147.392 60.5178 146.995C60.6059 146.598 60.3552 146.206 59.9585 146.118Z" fill="#FFC82D"/>
<path d="M66.3725 89.5159C66.0225 94.5485 70.9168 98.2505 75.4377 100.49C79.9587 102.729 85.2007 105.093 86.708 109.908C84.5816 110.429 82.6022 108.828 80.7162 107.717C78.8297 106.606 75.8623 106.227 74.9157 108.201C74.6538 108.748 74.6174 109.378 74.3838 109.937C73.554 111.925 70.7631 112.129 68.7212 111.444C66.6789 110.758 64.7088 109.503 62.564 109.7C60.1151 109.926 58.2412 112.002 57.0736 114.166C55.9059 116.33 55.1593 118.748 53.6183 120.665C50.3894 124.681 43.7277 125.293 39.8213 121.932C36.2272 118.839 34.755 113.061 30.1729 111.843C28.229 111.326 25.8564 111.697 24.4807 110.229C23.9263 109.638 23.6487 108.831 23.5445 108.027C22.9883 103.735 26.8295 100.229 30.4793 97.9028C34.1287 95.5765 38.3487 93.0866 39.2854 88.8608L66.3725 89.5159Z" fill="#955A78"/>
<path d="M46.1289 117.968C45.9429 117.968 45.7735 117.843 45.7245 117.655C45.6666 117.432 45.8009 117.204 46.0242 117.146C47.4174 116.785 48.1613 115.158 48.076 113.794C47.9758 112.2 47.0278 110.751 46.2133 109.667C45.9945 109.376 45.769 109.088 45.5435 108.801C44.7698 107.813 43.9697 106.792 43.4328 105.613C42.7895 104.202 42.4961 102.498 42.5347 100.406C42.6107 96.3101 43.8879 92.166 46.1307 88.7372C46.2574 88.5436 46.5166 88.4897 46.7093 88.6164C46.9025 88.7431 46.9569 89.0019 46.8302 89.195C44.6723 92.494 43.4432 96.4812 43.3699 100.422C43.3335 102.386 43.6026 103.971 44.193 105.267C44.689 106.355 45.4577 107.336 46.2012 108.285C46.4303 108.577 46.659 108.869 46.8809 109.165C47.7651 110.342 48.7952 111.927 48.9089 113.742C49.014 115.421 48.1119 117.468 46.2326 117.955C46.1989 117.964 46.1639 117.968 46.1289 117.968Z" fill="#49516B"/>
<path d="M40.231 109.824C40.1488 109.824 40.0657 109.799 39.9925 109.749C37.7093 108.16 36.4752 105.028 36.8485 101.769C37.2043 98.6652 38.8329 95.8676 40.2122 93.7767C40.3389 93.5844 40.5976 93.5301 40.7908 93.6581C40.9836 93.7848 41.0366 94.044 40.9094 94.2367C39.5814 96.2499 38.0144 98.9365 37.6788 101.864C37.3396 104.821 38.4353 107.647 40.4696 109.062C40.6587 109.194 40.7059 109.454 40.5738 109.644C40.4934 109.761 40.3631 109.824 40.231 109.824Z" fill="#49516B"/>
<path d="M66.7245 86.8066C66.7245 86.8066 54.2386 90.6056 39.1792 87.2119V90.1815C39.1792 90.1815 43.4212 92.0905 52.5421 92.0905C61.6627 92.0905 66.442 90.7678 66.442 90.7678L66.7245 86.8066Z" fill="#507CA1"/>
<path d="M225.398 341.482C225.398 341.482 228.793 349.403 221.437 349.969C214.081 350.535 211.252 343.179 208.423 340.35C205.594 337.521 204.704 334.194 206.281 331.331C207.857 328.468 215.213 330.731 215.213 330.731L225.398 341.482Z" fill="#AE564E"/>
<g opacity="0.49">
<mask id="mask0_947_7220" style="mask-type:luminance" maskUnits="userSpaceOnUse" x="166" y="57" width="14" height="10">
<path d="M166.161 66.75C166.161 66.75 173.899 67.9918 179.173 62.7686L179.594 57.2336L166.392 60.9509L166.161 66.75Z" fill="white"/>
</mask>
<g mask="url(#mask0_947_7220)">
<path d="M176.346 68.3845L178.557 66.6072L178.223 68.6859L176.346 68.3845Z" fill="#C77D4F"/>
</g>
<mask id="mask1_947_7220" style="mask-type:luminance" maskUnits="userSpaceOnUse" x="166" y="57" width="14" height="10">
<path d="M166.161 66.75C166.161 66.75 173.899 67.9918 179.173 62.7686L179.594 57.2336L166.392 60.9509L166.161 66.75Z" fill="white"/>
</mask>
<g mask="url(#mask1_947_7220)">
<path d="M172.44 56.0859L166.393 60.9469L167.305 55.2615L172.44 56.0859Z" fill="#DE8B58"/>
</g>
</g>
<g opacity="0.24">
<path d="M169.951 64.351C169.736 64.3325 169.352 64.1385 169.139 64.103C169.032 62.1496 168.644 57.6668 168.644 57.6668L181.622 52.6099C181.622 52.6099 181.423 55.2444 181.339 58.3389C178.593 62.1087 174.499 64.7396 169.951 64.351Z" fill="#994F49"/>
</g>
<path d="M186.675 41.4194C186.763 40.1296 188.801 39.8712 189.667 40.8313C190.532 41.7914 190.504 43.2389 190.372 44.5247C190.154 46.6367 189.304 48.4374 187.706 49.8346C186.107 51.2318 183.444 51.4749 182.784 49.4568L186.675 41.4194Z" fill="#FFCCA9"/>
<path d="M174.971 23.9665C164.438 22.0737 158.737 28.0269 158.271 39.9311C157.904 49.3158 161.686 57.6906 167.317 59.3322C175.444 61.702 183.994 52.5838 185.805 44.1425C188.24 32.7887 180.453 24.9517 174.971 23.9665Z" fill="#FFCCA9"/>
<path d="M175.122 35.3156C175.298 35.4153 175.521 35.4212 175.708 35.3115C175.836 35.2365 178.898 33.5005 181.765 35.9715C182.009 36.1831 182.379 36.1548 182.59 35.9104C182.801 35.6656 182.774 35.2963 182.529 35.0851C179.015 32.0566 175.153 34.2805 175.114 34.3029C174.836 34.4674 174.743 34.8263 174.908 35.1049C174.961 35.1956 175.036 35.2666 175.122 35.3156Z" fill="#774B42"/>
<path d="M167.715 34.0904C167.822 34.0823 167.928 34.0446 168.02 33.9754C168.279 33.7818 168.332 33.4152 168.139 33.1564C167.359 32.1159 165.518 30.5057 161.94 31.4056L161.846 31.4285C161.524 31.4609 161.308 31.7452 161.341 32.0669C161.373 32.3881 161.69 32.6146 161.999 32.5876C162.032 32.5845 162.11 32.5692 162.226 32.5404C164.423 31.9865 166.143 32.4429 167.201 33.8572C167.326 34.0239 167.522 34.1052 167.715 34.0904Z" fill="#774B42"/>
<path d="M174.997 40.1787C174.997 40.1787 174.74 41.929 177.787 42.2543C180.835 42.5795 182.326 40.4473 182.326 40.4473C182.326 40.4473 181.093 39.0312 178.62 38.8129C176.148 38.5946 174.997 40.1787 174.997 40.1787Z" fill="white"/>
<path d="M184.767 47.0114C185.637 44.5247 185.712 44.4627 186.116 41.8987C186.522 39.3235 186.258 36.9254 184.762 34.79C183.54 33.0455 181.087 32.8541 179.081 30.8302C176.228 27.9522 173.527 17.9134 180.175 17.6079C183.605 17.4506 187.634 18.9597 190.074 21.622C192.514 24.2844 193.403 28.7402 192.558 32.2512C191.909 34.9477 192.34 39.3644 190.971 41.7765C187.919 39.9008 187.06 43.7785 184.767 47.0114Z" fill="#AE564E"/>
<path d="M158.258 42.2678C157.318 36.7413 155.595 28.9345 159.471 21.9151C163.355 14.8832 176.862 11.543 180.032 18.4158C183.202 25.2869 166.747 27.6249 162.687 28.6595C159.202 29.5477 158.881 35.2269 158.482 39.0816L158.258 42.2678Z" fill="#AE564E"/>
<path d="M178.498 16.0596C178.277 18.3378 177.214 20.598 175.385 22.4387C170.175 27.6286 163.242 24.0713 159.308 29.1902C158.588 30.1045 158.195 31.2928 158.365 32.4847C157.749 30.0852 159.614 27.8299 161.815 26.6429C164.543 25.0907 169.016 25.4465 172.183 24.0471C175.337 22.6467 177.796 19.6155 178.498 16.0596Z" fill="#774B42"/>
<path d="M176.916 40.4273C177.289 40.2539 177.79 39.7085 178.197 39.7674C178.567 39.8204 178.919 39.9704 179.289 40.0234C179.759 40.0904 180.342 40.1744 180.778 40.3626C181.131 41.0648 181.12 41.2958 180.667 41.9297C180.462 42.0326 179.465 42.3187 178.722 42.3187C178.081 42.3187 177.37 42.2702 176.989 42.1067C176.684 41.5384 176.643 41.0186 176.916 40.4273Z" fill="#82A182"/>
<path d="M189.366 43.9177C188.975 44.3391 188.554 44.6936 188.094 44.9748C187.633 45.252 187.139 45.4623 186.623 45.5715L186.019 45.6995L186.525 46.0522C186.926 46.3316 187.228 46.7548 187.415 47.2302C187.599 47.7091 187.668 48.2437 187.582 48.8008C187.881 48.3174 187.95 47.6875 187.814 47.1098C187.683 46.5275 187.339 45.9803 186.836 45.6155L186.738 46.0958C187.326 45.9632 187.88 45.6964 188.338 45.3167C188.797 44.9425 189.167 44.4595 189.366 43.9177Z" fill="#AD6C58"/>
<path d="M170.601 40.082C170.601 40.082 171.14 43.1541 169.819 44.8779C168.497 46.6022 167.022 45.8232 166.582 45.1731C166.141 44.523 166.145 43.0395 167.542 42.3899C169.254 41.5943 169.822 41.5574 170.601 40.082Z" fill="#FFBE8C"/>
<path d="M183.646 39.7684C183.646 39.7684 181.676 40.7379 178.608 40.3596C175.539 39.9813 174.008 39.1183 174.008 39.1183C174.008 39.1183 174.931 36.5269 178.153 37.4317C181.375 38.337 183.646 39.7684 183.646 39.7684Z" fill="#FFCCA9"/>
<path d="M182.972 40.0856C182.347 40.4068 181.664 40.587 180.976 40.6979C180.287 40.8089 179.585 40.848 178.886 40.8022C178.188 40.7631 177.492 40.6476 176.822 40.4473C176.149 40.2631 175.504 39.9706 174.915 39.5981C175.614 39.6723 176.274 39.7949 176.942 39.8641C177.605 39.9499 178.268 39.9993 178.93 40.0407C180.26 40.1305 181.583 40.1126 182.972 40.0856Z" fill="#272C3A"/>
<path d="M166.84 38.8184C166.84 38.8184 166.586 40.6981 163.871 39.9128C161.156 39.1275 160.644 36.6098 160.644 36.6098C160.644 36.6098 162.202 35.7315 164.389 36.4108C166.576 37.0896 166.84 38.8184 166.84 38.8184Z" fill="white"/>
<path d="M166.911 38.4996C166.655 38.2049 166.31 37.8365 165.942 37.7458C165.607 37.6631 165.254 37.677 164.919 37.5944C164.494 37.4892 163.966 37.3589 163.528 37.3787C162.976 37.9062 162.809 38.7562 162.968 39.5087C163.402 39.8155 163.976 40.0559 164.86 40.0909C165.451 40.1147 166.027 39.9849 166.522 39.7729C166.985 39.3528 166.933 39.1479 166.911 38.4996Z" fill="#82A182"/>
<path d="M159.762 35.5061C159.762 35.5061 161.095 37.1123 163.848 37.8558C166.6 38.5989 168.215 38.3419 168.215 38.3419C168.215 38.3419 168.352 35.5991 165.281 35.2914C162.21 34.9836 159.762 35.5061 159.762 35.5061Z" fill="#FFCCA9"/>
<path d="M160.224 36.043C161.397 36.5718 162.513 37.0646 163.678 37.4573C164.254 37.6644 164.841 37.8405 165.437 38.0009C166.033 38.1729 166.64 38.2911 167.269 38.4659C166.637 38.5961 165.98 38.6357 165.337 38.5633C164.688 38.5121 164.053 38.3558 163.438 38.1487C162.826 37.9321 162.234 37.6581 161.689 37.3059C161.145 36.9586 160.631 36.5511 160.224 36.043Z" fill="#272C3A"/>
<path d="M200.354 76.7166C200.354 76.7166 203.796 77.3294 212.364 103.445C217.456 118.966 219.554 128.42 219.554 128.42C219.554 128.42 215.859 131.663 208.969 131.736C208.969 131.736 202.179 109.103 189.501 89.9492C182.426 79.2616 200.354 76.7166 200.354 76.7166Z" fill="#74AAB7"/>
<path d="M155.841 118.635C155.63 118.635 155.447 118.477 155.42 118.262L154.013 106.719C150.293 97.6001 151.39 93.2108 156.332 85.4475C156.459 85.2498 156.721 85.1928 156.918 85.3172C157.116 85.443 157.174 85.7054 157.048 85.903C151.905 93.9813 151.447 98.2057 154.82 106.45L154.848 106.559L156.263 118.158C156.291 118.391 156.126 118.603 155.893 118.631C155.876 118.634 155.858 118.635 155.841 118.635Z" fill="#49516B"/>
<path d="M189.076 269.046C189.076 269.046 206.281 328.992 206.281 331.331C206.281 333.67 208.152 336.476 210.49 338.815C212.829 341.153 216.345 344.311 218.608 345.443C223.229 347.753 224.462 343.353 225.398 341.482C226.333 339.611 217.506 331.331 214.7 327.122C211.893 322.912 206.176 270.601 206.176 270.601L189.076 269.046Z" fill="#FFCCA9"/>
<path d="M151.813 318.339C157.191 320.937 163.48 321.656 169.038 319.469C170.248 299.266 170.566 279.021 170.883 258.784C170.995 251.602 171.108 244.42 171.22 237.238C171.485 220.305 172.551 206.439 172.817 189.505C176.635 235.723 185.572 276.665 198.804 321.112C204.411 321.635 210.411 320.285 215.059 317.105C211.746 292.49 209.573 271.184 206.259 246.571C205.434 240.443 204.608 234.3 204.499 228.118C204.37 220.805 205.245 213.514 205.548 206.205C206.577 181.447 200.897 156.441 189.272 134.557C180.132 141.179 169.381 140.614 159.158 135.664C144.692 162.23 142.663 195.764 145.165 225.91C147.668 256.056 151.331 288.093 151.813 318.339Z" fill="#955A78"/>
<path d="M175.079 209.308C174.796 209.308 174.551 209.095 174.518 208.806L174.395 207.708C173.622 200.771 171.27 179.661 166.959 176.32C166.712 176.128 166.667 175.772 166.858 175.525C167.05 175.279 167.405 175.234 167.652 175.425C171.855 178.683 174.155 195.338 175.519 207.583L175.642 208.679C175.678 208.989 175.455 209.27 175.144 209.305C175.123 209.307 175.101 209.308 175.079 209.308Z" fill="#49516B"/>
<path d="M174.342 139.864C169.854 139.864 164.634 138.916 158.913 136.174C158.632 136.039 158.513 135.701 158.648 135.419C158.783 135.137 159.121 135.018 159.403 135.153C174.619 142.447 186.138 136.653 189.306 134.703C189.572 134.539 189.92 134.622 190.084 134.889C190.248 135.155 190.165 135.503 189.899 135.667C187.805 136.956 182.197 139.864 174.342 139.864Z" fill="#49516B"/>
<path d="M222.568 334.692C222.568 334.692 219.739 332.428 215.779 334.126C211.818 335.823 210.49 338.815 210.49 338.815C210.49 338.815 217.205 349.05 222.569 346.574C229.924 343.179 222.568 334.692 222.568 334.692Z" fill="#EA6662"/>
<path d="M206.724 336.107C206.297 336.107 205.93 335.786 205.882 335.352C205.495 331.872 206.197 329.222 207.966 327.478C210.601 324.878 214.584 325.341 214.752 325.363C215.217 325.421 215.547 325.845 215.488 326.31C215.431 326.774 215.006 327.105 214.543 327.047C214.511 327.043 211.19 326.671 209.148 328.694C207.774 330.056 207.242 332.233 207.568 335.164C207.62 335.63 207.284 336.049 206.819 336.101C206.787 336.105 206.756 336.107 206.724 336.107Z" fill="#EA6662"/>
<path d="M168.805 41.6462C168.293 41.7127 167.871 41.8938 167.515 42.1418C167.162 42.3925 166.89 42.7191 166.734 43.0789C166.58 43.4402 166.527 43.8611 166.586 44.2897C166.649 44.7188 166.805 45.1496 167.107 45.5697C166.606 45.4133 166.198 44.9699 166 44.4515C165.797 43.9334 165.78 43.3148 166.019 42.7694C166.254 42.2226 166.716 41.8116 167.233 41.6054C167.746 41.396 168.348 41.3893 168.805 41.6462Z" fill="#D87B56"/>
<path d="M310.126 281.998C310.038 280.43 309.49 278.158 308.568 276.546C307.656 274.953 306.953 273.7 306.409 271.958C305.865 270.217 300.873 272.531 300.873 272.531L301.254 272.755C301.254 272.755 301.464 275.058 300.754 276.933C299.861 279.292 298.126 280.747 298.513 281.731C298.957 282.861 300.626 281.039 301.676 279.288C301.68 279.288 301.683 279.287 301.688 279.287C301.742 279.374 302.983 281.368 302.777 283.596C302.566 285.875 302.118 286.864 302.806 287.542C303.494 288.22 304.31 285.71 304.525 283.887C304.628 283.012 304.644 282.388 304.634 281.97C304.665 281.967 304.697 281.964 304.728 281.961C304.84 282.533 304.976 283.416 304.983 284.364C304.995 285.889 304.784 288.211 305.622 288.66C306.46 289.109 306.666 286.097 306.805 284.351C306.908 283.042 306.843 281.877 306.804 281.375C306.81 281.373 306.816 281.37 306.822 281.367C306.914 281.948 307.138 283.402 307.209 284.297C307.32 285.713 307.076 286.802 307.535 287.33C307.994 287.858 308.524 286.592 308.629 284.691C308.763 282.262 308.381 280.627 308.396 280.696C309.044 281.767 309.008 284.764 309.64 284.734C310.135 284.711 310.202 283.365 310.126 281.998ZM304.614 281.583C304.599 281.4 304.581 281.306 304.581 281.306C304.581 281.306 304.607 281.402 304.645 281.57L304.614 281.583Z" fill="#FFBE8C"/>
<path d="M307.038 275.382C308.177 262.639 305.762 249.598 300.135 238.108C297.514 239.091 293.053 240.007 290.432 240.99C295.836 251.084 301.861 264.465 301.07 275.887C304.326 276.601 303.783 274.668 307.038 275.382Z" fill="#FFBE8C"/>
<path d="M259.733 226.72L244.775 218.898L238.735 196.718L232.573 197.297C232.573 197.297 234.726 221.267 239.363 226.72C244.001 232.173 259.733 234.641 259.733 234.641V226.72Z" fill="#FFBE8C"/>
<path d="M259.167 327.437L258.601 339.885L265.391 340.451V324.608L259.167 327.437Z" fill="#D8B695"/>
<path d="M280.102 328.003L279.537 340.452L286.327 341.017V325.174L280.102 328.003Z" fill="#D8B695"/>
<path d="M291.572 270.254C291.572 270.254 289.662 297.944 289.026 307.81C288.389 317.677 287.753 334.227 287.753 334.227H277.886C277.886 334.227 276.613 310.675 276.295 303.673C275.977 296.67 273.43 285.213 273.43 285.213C273.43 285.213 268.974 302.718 268.338 306.856C267.701 310.993 268.338 333.273 268.338 333.273L257.516 332.954C257.516 332.954 255.606 308.447 255.606 305.264C255.606 302.082 257.516 268.663 257.516 268.663L291.572 270.254Z" fill="#FD5553"/>
<path d="M266.588 336.354C266.726 338.911 267.265 341.438 268.182 343.812C268.395 344.365 268.47 344.974 268.317 345.555C267.576 348.368 263.08 346.89 257.357 347.903C251.957 348.858 244.142 348.511 243.97 345.813C243.78 342.842 246.086 342.774 251.015 341.665C253.094 341.197 254.71 340.668 256.077 339.232C256.959 338.305 257.303 337.297 257.743 335.794C258.064 335.428 258.491 335.043 259.466 335.537C259.883 335.747 260.29 335.97 260.7 336.192C262.014 336.902 263.629 336.964 264.959 336.23C265.256 336.067 265.579 335.951 265.907 335.857C266.243 335.761 266.57 336.006 266.588 336.354Z" fill="#53688C"/>
<path d="M268.233 343.474C267.225 344.224 265.877 345.69 262.996 345.974C259.595 346.31 256.294 346.425 253.064 346.85C249.912 347.264 246.748 346.841 246.602 344.957C246.53 344.017 245.889 343.527 245.265 343.272C244.03 343.671 243.385 344.682 243.726 345.874C244.711 349.315 251.956 348.857 257.356 347.902C262.756 346.947 267.063 348.209 268.155 345.992C268.502 345.288 268.453 344.412 268.233 343.474Z" fill="#FAD2B8"/>
<path d="M280.749 338.996C280.749 338.996 281.773 335.925 284.333 335.925C286.892 335.925 287.404 338.996 287.404 338.996C287.404 338.996 286.892 336.437 288.428 336.437C289.964 336.437 288.428 340.02 289.964 341.556C291.5 343.092 292.445 345.73 291.5 346.675C288.785 349.39 278.857 349.39 276.142 346.675C275.251 345.784 276.142 343.091 278.19 342.068C280.238 341.044 276.142 336.437 278.19 336.437C280.237 336.437 280.749 338.996 280.749 338.996Z" fill="#53688C"/>
<path d="M286.816 212.159C291.327 209.009 294.847 206.629 297.446 201.78C300.045 196.93 300.502 190.598 297.317 186.112C295.675 183.8 292.752 182.066 290.037 182.886C289.176 192.27 285.682 202.242 281.707 210.786C282.315 211.102 286.208 211.843 286.816 212.159Z" fill="#774B42"/>
<path d="M284.274 183.437C272.028 176.321 269.09 179.136 267.319 181.942C265.924 184.154 261.968 189.482 259.603 194.803C257.389 199.779 255.279 210.778 265.173 215.929C275.521 221.318 283.22 216.065 286.04 212.111C288.848 208.174 299.261 192.147 284.274 183.437Z" fill="#FEC08F"/>
<path d="M270.99 200.519C270.422 200.691 269.883 200.908 269.383 201.171C268.841 201.399 268.689 201.851 268.666 202.262C268.653 202.687 268.851 203.14 269.134 203.585C269.411 204.041 269.798 204.457 270.172 204.957C269.561 204.831 269.004 204.525 268.541 204.07C268.092 203.619 267.723 202.946 267.815 202.186C267.862 201.816 268.034 201.45 268.307 201.205C268.439 201.072 268.583 200.987 268.75 200.895C268.907 200.818 269.053 200.77 269.201 200.723C269.789 200.554 270.393 200.469 270.99 200.519Z" fill="#D87B56"/>
<path d="M264.213 190.023C264.324 188.766 269.798 188.279 269.692 189.866C269.63 190.797 264.131 190.953 264.213 190.023Z" fill="#804E43"/>
<path d="M281.034 194.975C279.918 195.682 283.561 199.952 284.476 199.408C285.391 198.865 282.21 194.228 281.034 194.975Z" fill="#804E43"/>
<path d="M284.612 191.006C285.717 193.321 287.537 195.255 288.695 197.546C290.566 201.251 290.519 205.814 288.57 209.486C292.502 206.369 294.667 201.273 294.138 196.378C293.777 193.039 291.592 187.649 288.134 186.102C283.888 184.203 282.784 187.174 284.612 191.006Z" fill="#774B42"/>
<path d="M270.012 175.757C266.389 175.703 262.259 173.811 261.681 170.233C260.831 172.369 261.356 174.984 262.966 176.625C261.274 175.875 259.895 174.446 259.205 172.728C258.943 177.616 261.579 182.415 265.502 185.342C269.424 188.269 274.479 189.44 279.367 189.202C277.488 189.904 275.609 190.606 273.73 191.307C279.571 192.95 295.443 191.876 291.783 182.255C288.259 172.991 277.257 175.865 270.012 175.757Z" fill="#774B42"/>
<path d="M286.936 209.657C287.589 208.866 288.508 208.277 289.555 207.977C290.307 207.762 291.247 207.732 291.884 208.269C292.688 208.948 292.546 210.098 292.181 210.949C291.377 212.828 289.844 214.369 287.899 215.253C287.572 215.402 287.198 215.534 286.823 215.428C286.185 215.248 285.916 214.514 285.864 213.911C285.811 213.308 285.823 212.635 285.36 212.165L286.936 209.657Z" fill="#FEC08F"/>
<path d="M290.782 209.712C290.214 210.597 289.151 211.16 288.064 211.198L288.205 210.848C288.591 211.251 288.808 211.789 288.835 212.326C288.87 212.862 288.708 213.408 288.379 213.803C288.567 213.327 288.597 212.828 288.517 212.362C288.432 211.898 288.229 211.459 287.909 211.135L287.58 210.802L288.049 210.785C289.026 210.75 289.974 210.363 290.782 209.712Z" fill="#AD5858"/>
<path d="M265.161 205.183C265.161 205.183 269.62 209.808 275.014 208.974C275.014 208.974 272.207 214.139 268.089 212.588C263.523 210.868 265.161 205.183 265.161 205.183Z" fill="#994F49"/>
<path d="M266.104 206.024C265.986 206.371 265.883 206.723 265.812 207.081C266.505 208.004 267.516 208.424 268.495 208.964C268.855 209.163 269.216 209.362 269.597 209.517C270.682 209.958 271.89 210.023 273.079 210.08C273.2 209.752 273.342 209.407 273.46 209.059C270.212 208.971 267.473 207.14 266.104 206.024Z" fill="white"/>
<path d="M271.293 212.536C271.153 212.094 270.883 211.695 270.574 211.345C269.804 210.468 268.787 209.789 267.651 209.526C266.847 209.341 265.986 209.383 265.212 209.657C265.616 210.847 266.454 211.972 268.089 212.588C269.279 213.036 270.358 212.922 271.293 212.536Z" fill="#FD4E4C"/>
<path d="M276.021 202.065C276.021 202.065 275.008 203.848 277.888 205.293C280.768 206.738 282.878 205.388 282.878 205.388C282.878 205.388 282.561 203.03 280.205 201.906C277.85 200.782 276.021 202.065 276.021 202.065Z" fill="white"/>
<path d="M269.289 198.017C269.289 198.017 268.019 199.324 265.31 197.58C262.667 195.879 263.522 193.439 263.522 193.439C263.522 193.439 265.463 192.626 267.533 194.216C269.604 195.806 269.289 198.017 269.289 198.017Z" fill="white"/>
<path d="M276.064 201.843C276.064 201.843 275.284 203.768 276.972 204.804C278.902 205.987 280.745 202.309 280.745 202.309C280.745 202.309 278.744 200.643 276.064 201.843Z" fill="#994F49"/>
<path d="M263.552 193.369C263.552 193.369 262.79 195.787 264.21 196.737C266.091 197.997 267.84 194.476 267.84 194.476C267.84 194.476 266.02 192.479 263.552 193.369Z" fill="#994F49"/>
<path d="M276.116 202.042C276.259 202.13 276.446 202.124 276.585 202.014C276.643 201.968 278.004 200.936 280.084 202.071C282.304 203.279 282.66 205.051 282.674 205.125C282.716 205.347 282.93 205.495 283.151 205.454C283.373 205.413 283.521 205.202 283.481 204.98C283.465 204.89 283.053 202.757 280.476 201.351C277.898 199.945 276.146 201.315 276.073 201.373C275.897 201.515 275.869 201.773 276.011 201.949C276.041 201.988 276.077 202.019 276.116 202.042Z" fill="#272C3A"/>
<path d="M269.268 197.922C269.322 197.956 269.385 197.977 269.453 197.982C269.678 197.997 269.874 197.828 269.89 197.603C269.897 197.509 270.03 195.287 267.917 193.731C265.51 191.959 263.624 192.834 263.545 192.873C263.342 192.971 263.256 193.216 263.355 193.42C263.453 193.624 263.699 193.709 263.902 193.61C263.961 193.583 265.438 192.926 267.431 194.391C269.17 195.671 269.077 197.469 269.072 197.545C269.062 197.703 269.142 197.845 269.268 197.922Z" fill="#272C3A"/>
<path d="M267.088 222.194C267.088 222.194 267.065 227.604 273.749 227.604C280.432 227.604 282.66 222.512 282.66 222.512C282.66 222.512 288.28 221.438 295.601 226.849C302.921 232.259 306.849 243.518 306.849 243.518L294.436 249.565L292.527 247.337L294.752 270.7C294.752 270.7 285.239 273.247 274.099 273.247C262.96 273.247 254.295 268.72 254.295 268.72L256.558 239.297L247.284 239.168V219.93L267.088 222.194Z" fill="#74AAB7"/>
<path d="M164.43 49.046C164.43 49.046 170.457 51.6014 175.18 48.6672C175.18 48.6672 174.61 54.6299 170.131 54.819C165.163 55.0288 164.43 49.046 164.43 49.046Z" fill="#994F49"/>
<path d="M165.65 49.4569C165.678 49.8298 165.722 50.2005 165.798 50.5639C166.816 51.1529 167.932 51.143 169.065 51.2589C169.482 51.3016 169.9 51.3443 170.319 51.3375C171.512 51.3178 172.671 50.8964 173.808 50.4759C173.791 50.12 173.787 49.7395 173.758 49.3657C170.677 50.5796 167.379 49.957 165.65 49.4569Z" fill="white"/>
<path d="M173.114 53.4901C172.806 53.1325 172.394 52.8661 171.965 52.6608C170.893 52.1472 169.668 51.9159 168.498 52.1234C167.67 52.2703 166.88 52.6527 166.264 53.2187C167.117 54.173 168.352 54.8941 170.131 54.8186C171.425 54.7642 172.392 54.226 173.114 53.4901Z" fill="#FD4E4C"/>
<path d="M195.828 101.069C195.64 101.069 195.469 100.944 195.418 100.754C193.913 95.0902 193.999 89.1266 195.667 83.5081C195.734 83.2835 195.969 83.1554 196.194 83.2224C196.419 83.2889 196.547 83.5252 196.48 83.7498C194.856 89.2182 194.773 95.0228 196.238 100.536C196.298 100.763 196.163 100.995 195.937 101.055C195.901 101.065 195.865 101.069 195.828 101.069Z" fill="#49516B"/>
<path d="M180.054 17.7952C179.593 20.3259 179.889 22.959 180.913 25.262C182.951 30.1711 188.095 32.1541 191.31 36.4186C192.935 38.5777 193.702 41.3048 193.72 43.9622C193.741 53.5104 185.969 56.0038 190.594 61.6978C191.756 63.1503 193.409 64.6131 193.91 66.4969C194.425 68.4031 193.927 70.5277 192.468 71.9442C193.309 70.9666 193.756 69.7055 193.787 68.4557C193.935 62.8942 185.534 62.2962 189.13 54.5904C190.192 52.2933 192.638 49.0838 192.589 43.9707C192.589 34.1857 183.245 33.1695 180.401 25.4673C179.51 23.0022 179.343 20.2765 180.054 17.7952Z" fill="#774B42"/>
<path d="M154.921 42.9731C153.359 45.1359 152.774 47.9011 153.422 50.3406C154.472 54.1837 158.398 56.452 159.04 60.8925C159.689 65.5959 155.141 66.3502 154.977 69.9039C154.951 70.5338 155.136 71.1996 155.627 71.6695C155.058 71.2989 154.723 70.6097 154.663 69.9147C154.443 67.5646 156.282 66.0474 157.252 64.5109C158.712 62.3216 157.974 59.8143 156.547 57.5895C155.259 55.527 153.085 53.2523 152.566 50.5406C152.003 47.7623 152.992 44.8322 154.921 42.9731Z" fill="#774B42"/>
<path d="M59.5386 40.9352C58.746 40.6764 57.7033 40.6113 56.5397 41.2582C54.921 42.1572 54.3329 42.9407 54.1182 43.3936C54.7822 43.7148 55.585 43.8757 56.5442 43.6757C56.5478 43.6748 56.5514 43.6739 56.5545 43.673C56.7733 43.6268 56.9998 43.563 57.2343 43.4776C58.5996 42.9807 59.2452 41.964 59.5386 40.9352Z" fill="#FD5553"/>
<path d="M72.6796 131.245L72.0929 130.632L78.8449 124.175C80.1361 122.94 81.2269 121.8 81.4992 120.352C81.9031 118.207 80.3279 116.174 78.9357 114.846C77.1085 113.104 75.0091 111.708 72.6954 110.698L73.0346 109.92C75.4399 110.97 77.6225 112.421 79.5215 114.232C81.0661 115.704 82.8074 117.989 82.3334 120.509C81.9889 122.342 80.5108 123.756 79.4317 124.788L72.6796 131.245Z" fill="#AE564E"/>
<path d="M58.2416 119.019C58.2416 119.019 67.5782 120.662 71.4895 118.985C75.4008 117.309 79.7048 116.835 80.0965 118.237C80.4883 119.64 72.969 122.495 72.969 122.495C72.969 122.495 78.3619 123.928 82.3698 122.752C86.3782 121.576 87.8792 121.485 88.2727 122.488C88.6667 123.491 85.352 125.771 82.1488 126.152C78.9455 126.532 76.0644 126.657 76.0644 126.657C76.0644 126.657 80.2394 127.641 83.4413 127.46C86.4208 127.292 88.7503 126.192 89.0428 127.494C89.3348 128.796 86.1257 130.177 82.6232 130.456C79.1207 130.735 74.722 130.308 74.722 130.308C74.722 130.308 78.3678 132.09 80.9137 131.946C84.1157 131.766 86.2205 131.078 86.7129 132.382C87.2053 133.685 82.0949 135.154 78.9972 134.636C75.8995 134.117 73.5139 134.014 73.5139 134.014C73.5139 134.014 77.56 135.26 80.3607 135.277C82.7944 135.292 83.8582 135.798 82.5513 136.891C81.2444 137.983 78.4424 138.166 74.8478 137.144C71.2532 136.122 65.7403 133.107 63.0478 131.791C60.3549 130.474 52.4856 128.396 52.4856 128.396L58.2416 119.019Z" fill="#FFBE8C"/>
<path d="M68.052 75.2815L67.2061 75.2115L67.8233 67.7779C67.9334 66.4512 68.0583 64.948 68.6585 63.615C69.3495 62.0812 70.638 61.0183 72.0213 60.8408L72.1291 61.6832C70.8231 61.8503 69.8796 62.9708 69.4326 63.9637C68.8921 65.1637 68.7789 66.5285 68.6693 67.848L68.052 75.2815Z" fill="#AE564E"/>
<path d="M234.092 190.062C233.974 190.062 233.863 189.988 233.824 189.869C232.7 186.514 230.504 183.519 227.641 181.437C227.514 181.345 227.486 181.168 227.578 181.042C227.67 180.915 227.847 180.887 227.973 180.98C230.93 183.13 233.199 186.223 234.36 189.69C234.41 189.838 234.33 189.998 234.181 190.048C234.152 190.057 234.122 190.062 234.092 190.062Z" fill="#D87B56"/>
<path d="M236 187.996C235.868 187.996 235.751 187.903 235.723 187.769C235.121 184.828 233.282 181.855 230.68 179.616C230.562 179.514 230.549 179.336 230.65 179.217C230.752 179.098 230.931 179.085 231.049 179.187C233.745 181.507 235.65 184.594 236.277 187.656C236.309 187.809 236.21 187.958 236.057 187.99C236.038 187.994 236.019 187.996 236 187.996Z" fill="#D87B56"/>
<path d="M290.228 344.494C289.669 345.083 288.946 345.613 288.135 345.588C286.347 345.533 285.354 342.93 283.569 343.059C282.715 343.121 282.064 343.809 281.446 344.401C280.862 344.961 280.216 345.484 279.454 345.756C278.692 346.028 277.793 346.017 277.124 345.563C276.656 345.245 276.367 344.708 276.335 344.147C276.334 344.123 276.373 343.918 276.433 343.7C275.729 344.827 275.578 346.111 276.141 346.675C278.856 349.39 288.785 349.39 291.5 346.675C292.171 346.003 291.885 344.475 291.113 343.096C290.953 343.612 290.606 344.096 290.228 344.494Z" fill="#FAD2B8"/>
<path d="M276.815 343.262C276.807 343.243 276.801 343.223 276.792 343.204C276.79 343.207 276.788 343.209 276.786 343.212C276.796 343.227 276.806 343.24 276.815 343.262Z" fill="#FAD2B8"/>
</svg>
