<svg width="278" height="408" viewBox="0 0 278 408" fill="none" xmlns="http://www.w3.org/2000/svg">
<path d="M198.454 38.9618L196.728 50.995L207.375 52.141L208.498 37.95L198.454 38.9618Z" fill="#FFCCA9"/>
<g opacity="0.24">
<path d="M198.454 38.962L197.458 45.9015C200.087 47.0744 203.368 47.6667 207.393 47.194C207.522 47.179 207.644 47.1558 207.77 47.1381L208.498 37.9497L198.454 38.962Z" fill="#994F49"/>
</g>
<path d="M189.323 33.5573C186.17 28.954 183.681 25.4363 182.959 19.9113C182.237 14.3863 184.087 8.22654 188.736 5.12417C191.132 3.52499 194.536 2.93354 196.823 4.68468C194.255 13.8794 193.979 24.5755 194.677 34.0937C193.984 34.1742 190.015 33.4767 189.323 33.5573Z" fill="#804E43"/>
<path d="M201.547 7.62613C215.246 5.37272 216.96 8.95872 217.607 12.1325C218.117 14.6334 219.889 20.8654 220.207 26.5397C220.505 31.8472 218.614 42.6139 207.755 43.8891C196.396 45.2231 191.166 37.764 189.957 33.1794C188.752 28.6143 184.782 10.3841 201.547 7.62613Z" fill="#FFCCA9"/>
<path d="M208.573 28.2217C209.159 28.3891 209.702 28.6867 210.201 29.0575C210.325 29.1548 210.446 29.253 210.568 29.3818C210.693 29.5297 210.799 29.6621 210.877 29.835C211.048 30.1653 211.08 30.5738 210.991 30.9405C210.804 31.6944 210.21 32.1985 209.62 32.4642C209.016 32.7285 208.375 32.8177 207.749 32.7176C208.285 32.3782 208.803 32.1238 209.231 31.7917C209.66 31.4719 210.013 31.1139 210.154 30.7071C210.28 30.3099 210.298 29.8272 209.865 29.4164C209.485 28.9887 209.051 28.5888 208.573 28.2217Z" fill="#D87B56"/>
<path d="M217.078 21.006C217.426 19.7762 212.397 17.3481 211.925 18.8886C211.647 19.7931 216.821 21.9164 217.078 21.006Z" fill="#804E43"/>
<path d="M201.023 19.3645C201.828 20.435 196.824 23.1694 196.149 22.3259C195.475 21.4819 200.173 18.2353 201.023 19.3645Z" fill="#804E43"/>
<path d="M199.051 14.3208C197.165 16.1165 194.736 17.2935 192.809 19.0469C189.692 21.8818 188.091 26.2193 188.619 30.3959C186.004 26.0314 185.784 20.4291 188.054 15.9846C189.602 12.9532 193.625 8.63428 197.472 8.41271C202.195 8.14019 202.172 11.3499 199.051 14.3208Z" fill="#804E43"/>
<path d="M218.438 5.12817C221.903 6.3784 226.513 6.0713 228.354 2.89159C228.392 5.21961 226.948 7.5067 224.825 8.48213C226.705 8.37931 228.532 7.52216 229.808 6.14364C228.293 10.8652 224.055 14.4621 219.269 15.8238C214.482 17.1855 209.253 16.479 204.69 14.4972C206.224 15.8366 207.757 17.1759 209.291 18.5158C203.144 17.9726 188.438 11.2533 195.39 3.45892C202.084 -4.04563 211.509 2.62817 218.438 5.12817Z" fill="#804E43"/>
<path d="M190.112 31.1456C189.776 30.162 189.115 29.2743 188.227 28.6141C187.59 28.1405 186.707 27.7743 185.907 28.0546C184.897 28.4085 184.618 29.5478 184.657 30.4845C184.744 32.5523 185.645 34.5623 187.176 36.0983C187.434 36.3567 187.741 36.616 188.136 36.651C188.808 36.7102 189.328 36.1119 189.595 35.5595C189.863 35.0077 190.095 34.3653 190.704 34.0873L190.112 31.1456Z" fill="#FFCCA9"/>
<path d="M186.434 29.8164C186.968 30.7231 187.729 31.4301 188.645 31.8141L189.085 31.9988L188.653 32.1954C188.231 32.3874 187.88 32.73 187.631 33.139C187.388 33.5512 187.236 34.0343 187.243 34.5525C187.073 34.0607 187.115 33.4856 187.342 32.9906C187.562 32.492 187.963 32.0602 188.475 31.8177L188.483 32.199C187.463 31.7732 186.654 30.8578 186.434 29.8164Z" fill="#AD5858"/>
<path d="M212.434 34.7324C212.434 34.7324 206.523 37.5086 201.695 34.782C201.695 34.782 202.501 40.681 206.976 40.6919C211.94 40.7038 212.434 34.7324 212.434 34.7324Z" fill="#994F49"/>
<path d="M211.233 35.1899C211.22 35.5612 211.191 35.9315 211.13 36.2955C210.137 36.9206 209.024 36.9548 207.898 37.1149C207.484 37.1741 207.069 37.2327 206.651 37.2423C205.46 37.2696 204.288 36.8974 203.136 36.5248C203.139 36.1709 203.128 35.7928 203.142 35.4206C206.263 36.5039 209.528 35.755 211.233 35.1899Z" fill="white"/>
<path d="M203.948 39.4905C204.24 39.1233 204.641 38.8427 205.061 38.6216C206.11 38.0692 207.322 37.7908 208.498 37.9505C209.329 38.0637 210.133 38.4123 210.77 38.95C209.956 39.9318 208.754 40.6961 206.976 40.6916C205.683 40.6889 204.698 40.1925 203.948 39.4905Z" fill="#FD4E4C"/>
<path d="M203.49 27.3543C203.49 27.3543 203.691 29.2983 200.611 29.4552C197.53 29.6122 196.201 27.6245 196.201 27.6245C196.201 27.6245 197.386 25.6886 199.884 25.6113C202.382 25.5339 203.49 27.3543 203.49 27.3543Z" fill="white"/>
<path d="M210.95 26.404C210.95 26.404 211.559 28.0314 214.605 27.5487C217.577 27.0783 217.767 24.6205 217.767 24.6205C217.767 24.6205 216.379 23.167 213.952 23.7602C211.526 24.3539 210.95 26.404 210.95 26.404Z" fill="white"/>
<path d="M203.539 27.1443C203.539 27.1443 203.481 29.1234 201.602 29.3795C199.455 29.672 199.256 25.7562 199.256 25.7562C199.256 25.7562 201.652 25.0702 203.539 27.1443Z" fill="#507CA1"/>
<path d="M217.768 24.5477C217.768 24.5477 217.504 26.9494 215.894 27.2347C213.76 27.6123 213.583 23.8693 213.583 23.8693C213.583 23.8693 215.948 22.8243 217.768 24.5477Z" fill="#507CA1"/>
<path d="M203.416 27.299C203.257 27.3208 203.095 27.2435 203.016 27.0943C202.983 27.0319 202.187 25.6102 199.928 25.8022C197.517 26.0056 196.522 27.4145 196.481 27.4746C196.359 27.6525 196.114 27.6984 195.936 27.5783C195.758 27.4578 195.71 27.2166 195.83 27.0383C195.878 26.966 197.061 25.263 199.861 25.0242C202.662 24.7858 203.67 26.6529 203.711 26.7326C203.811 26.9241 203.736 27.1598 203.544 27.2589C203.503 27.2799 203.46 27.2931 203.416 27.299Z" fill="#272C3A"/>
<path d="M211.005 26.3295C210.944 26.3377 210.881 26.3318 210.82 26.31C210.616 26.2368 210.51 26.0147 210.583 25.8123C210.613 25.7277 211.352 23.7377 213.804 23.1904C216.596 22.5671 217.911 24.0543 217.966 24.118C218.106 24.2823 218.087 24.5289 217.922 24.669C217.757 24.8096 217.509 24.7895 217.369 24.6253C217.327 24.5784 216.286 23.4392 213.975 23.9528C211.958 24.4037 211.347 26.0084 211.322 26.0766C211.27 26.2168 211.145 26.3104 211.005 26.3295Z" fill="#272C3A"/>
<path d="M58.7573 65.8567C61.5283 63.8981 65.3617 63.5419 68.4488 64.9564C68.893 65.1597 69.3404 65.4136 69.6018 65.8249C69.8631 66.2362 69.8718 66.8431 69.5008 67.1602C69.2654 67.3618 68.9373 67.4077 68.6294 67.4459C67.8685 67.5392 67.024 67.6125 66.4062 67.1607C67.4193 67.4027 68.3913 67.8131 69.2704 68.3695C70.0879 68.8873 70.8666 69.5979 71.0763 70.5401C71.1298 70.7812 71.1399 71.0487 71.0096 71.2585C70.7323 71.7062 70.0633 71.6166 69.5556 71.471C68.6179 71.2021 67.6802 70.9327 66.7426 70.6639C68.5101 71.6725 69.8476 73.4027 70.3735 75.3622C70.4864 75.7835 70.5632 76.233 70.4439 76.6525C70.3246 77.0724 69.9618 77.45 69.524 77.4614C69.0803 77.4728 68.7171 77.1307 68.4086 76.8122C66.9222 75.2767 65.4357 73.7408 63.9492 72.2053C64.7137 72.8745 65.241 73.8072 65.4202 74.8049C65.5362 75.4532 65.2104 76.3813 64.567 76.2289C64.1457 76.1293 63.9944 75.6279 63.8519 75.2207C63.1258 73.1479 60.597 71.9004 58.5005 72.5806C56.404 73.2608 55.0989 75.7517 55.7386 77.8527C55.0066 75.4423 54.312 73.8909 54.9974 71.3281C55.5792 69.1529 56.9075 67.1647 58.7573 65.8567Z" fill="#E38D49"/>
<path d="M24.1891 82.79C21.7051 83.5311 19.7082 84.6211 18.0851 86.6348C16.9299 88.0679 16.0393 90.1002 16.0416 91.9378C16.0416 92.1275 16.0659 92.3409 16.2153 92.4583C16.404 92.6071 16.6814 92.5206 16.8961 92.4128C17.5423 92.0884 18.1126 91.6166 18.5512 91.0434C17.9161 92.2126 17.2717 93.4059 17.0286 94.713C16.7855 96.0201 17.0058 97.4833 17.922 98.4506C18.1806 98.7235 18.5179 98.961 18.8948 98.9587C19.2823 98.9565 19.6214 98.7031 19.8947 98.4296C21.8678 96.4542 21.8029 93.2276 23.2611 90.8496C22.8293 91.7149 22.6405 92.6985 22.7218 93.6612C22.7589 94.1011 22.9622 94.6393 23.405 94.6607C23.7637 94.678 24.0237 94.334 24.1946 94.0192C24.8083 92.8886 25.1734 91.6248 25.2566 90.3418C25.0688 91.2731 25.0669 92.2408 25.2506 93.1726C25.2776 93.3077 25.3137 93.4519 25.4188 93.5411C25.6592 93.7449 26.022 93.517 26.2203 93.2722C26.8248 92.5261 27.0999 91.5729 27.3111 90.6375C27.5222 89.7021 27.688 88.7417 28.1217 87.8864C28.5553 87.0306 29.3185 86.2758 30.2703 86.1307C31.1934 85.9897 34.2463 86.3518 34.387 87.3072C32.7822 83.6253 27.7945 81.7144 24.1891 82.79Z" fill="#E38D49"/>
<path d="M192.699 48.4163L211.115 48.1296C211.115 48.1296 213.705 57.5842 203.922 58.4436C194.138 59.3035 192.699 48.4163 192.699 48.4163Z" fill="#FFCCA9"/>
<path d="M100.098 140.629C94.4697 139.928 88.7838 140.858 83.1194 141.144C77.4545 141.431 71.4583 140.976 66.7183 137.874C61.9784 134.772 59.0662 128.332 61.5351 123.248C63.511 119.179 68.5393 116.205 68.0444 111.712C67.6163 107.825 62.9873 105.027 63.468 101.145C63.8806 97.8142 67.7415 96.1663 69.5803 93.3533C72.0135 89.6308 70.5106 84.7127 71.0055 80.2987C71.8586 72.6882 79.8723 66.6641 87.4577 67.9311C97.8918 64.0126 110.466 70.5084 112.686 81.3892C113.327 84.5312 113.194 87.8783 114.533 90.7942C116.949 96.0599 123.953 99.9302 122.55 105.548C121.581 109.425 116.691 111.852 116.85 115.844C116.949 118.329 119.018 120.217 120.249 122.38C122.831 126.915 121.537 132.925 118.195 136.938C114.854 140.952 105.293 141.276 100.098 140.629Z" fill="#AE564E"/>
<path d="M80.5023 129.853C76.4185 131.469 71.6798 131.197 67.8373 133.319C68.127 130.093 66.6625 125.485 66.6625 125.485C66.6625 125.485 65.781 118.626 69.1565 119.373C72.6097 120.137 74.7451 122.178 76.4217 123.891C76.8402 124.32 80.8953 129.697 80.5023 129.853Z" fill="#FFB564"/>
<path d="M149.805 32.0756C149.805 32.0756 148.384 29.6998 148.181 27.3103C147.925 24.304 149.051 21.839 148.121 20.9778C147.052 19.986 146.186 22.8259 145.958 25.259C145.958 25.259 143.487 23.7325 142.534 21.1661C141.581 18.5997 141.553 17.3003 140.456 16.9241C139.359 16.5478 139.777 19.6775 140.49 21.7544C141.203 23.8318 141.766 24.5679 141.766 24.5679C141.766 24.5679 140.597 23.2171 139.745 21.4764C138.942 19.8367 137.967 17.2239 136.826 17.172C135.685 17.1202 137.024 20.4751 137.779 22.4309C138.534 24.3868 139.484 25.9114 139.484 25.9114C139.484 25.9114 138.056 23.8782 137.369 22.6976C136.514 21.228 136.214 19.9259 135.442 19.5938C134.671 19.2617 134.754 20.9009 135.626 23.0051C136.74 25.6952 138.001 27.2612 137.948 27.1953C136.691 26.3741 135.176 23.1224 134.507 23.481C133.983 23.7612 134.608 25.2485 135.399 26.6829C136.307 28.329 138.079 30.4978 139.914 31.7607C141.728 33.0087 143.14 33.9978 144.632 35.5956C146.125 37.1934 150.334 32.1206 150.334 32.1206L149.805 32.0756Z" fill="#FEC08F"/>
<path d="M146.085 25.1641C145.22 25.9143 144.671 26.8597 144.411 27.8915C144.15 28.9229 144.185 30.0135 144.589 31.0826C144.192 30.6632 143.937 30.1058 143.826 29.5262C143.71 28.9443 143.74 28.3365 143.881 27.7587C144.032 27.1836 144.295 26.6341 144.674 26.1764C145.048 25.7178 145.537 25.3474 146.085 25.1641Z" fill="#D87B56"/>
<path d="M142.457 23.3369C141.425 23.8874 140.506 24.5753 139.741 25.417C138.97 26.2537 138.367 27.2273 137.91 28.3014C138.088 27.1422 138.673 26.0489 139.472 25.1727C140.275 24.3005 141.314 23.6208 142.457 23.3369Z" fill="#D87B56"/>
<path d="M254.189 33.1439C254.189 33.1439 255.61 30.7681 255.813 28.3787C256.069 25.3723 254.943 22.9074 255.873 22.0462C256.942 21.0543 257.807 23.8942 258.035 26.3273C258.035 26.3273 260.507 24.8009 261.46 22.2345C262.413 19.6681 262.44 18.3687 263.538 17.9925C264.635 17.6162 264.218 20.7459 263.504 22.8232C262.791 24.9001 262.228 25.6367 262.228 25.6367C262.228 25.6367 263.396 24.2854 264.249 22.5452C265.052 20.9055 266.027 18.2927 267.168 18.2408C268.309 18.189 266.97 21.5443 266.215 23.4997C265.46 25.4556 264.51 26.9802 264.51 26.9802C264.51 26.9802 265.939 24.947 266.625 23.7664C267.48 22.2968 267.78 20.9947 268.551 20.6626C269.323 20.33 269.24 21.9697 268.368 24.0739C267.254 26.7636 265.992 28.33 266.045 28.2641C267.303 27.4429 268.818 24.1913 269.487 24.5498C270.011 24.8305 269.386 26.3173 268.595 27.7517C267.687 29.3978 265.915 31.5666 264.079 32.8295C262.266 34.0775 260.854 35.0666 259.361 36.6644C257.869 38.2622 253.66 33.1894 253.66 33.1894L254.189 33.1439Z" fill="#FEC08F"/>
<path d="M257.909 26.2317C258.457 26.415 258.946 26.7858 259.32 27.244C259.7 27.7012 259.962 28.2513 260.113 28.8263C260.255 29.4041 260.285 30.012 260.168 30.5938C260.057 31.1739 259.803 31.7308 259.406 32.1507C259.81 31.0816 259.844 29.991 259.583 28.9592C259.323 27.9273 258.773 26.9819 257.909 26.2317Z" fill="#D87B56"/>
<path d="M261.537 24.405C262.679 24.6889 263.719 25.3686 264.523 26.2403C265.322 27.1166 265.906 28.2099 266.084 29.3691C265.627 28.2949 265.024 27.3213 264.253 26.4847C263.488 25.6439 262.569 24.956 261.537 24.405Z" fill="#D87B56"/>
<path d="M233.06 359.345C233.06 359.345 242.992 370.839 240.911 374.244C238.831 377.649 231.942 386.94 228.856 390.815C225.769 394.689 223.689 398.094 225.668 398.389C227.647 398.685 239.255 392.058 242.577 388.683C245.899 385.309 258.748 378.712 258.312 376.48C257.876 374.247 247.914 355.798 247.914 355.798L233.06 359.345Z" fill="#D8B695"/>
<path d="M222.895 396.157C222.895 396.157 224.131 399.929 228.14 400.597C231.657 401.183 239.126 399.933 245.493 394.492C251.861 389.05 262.831 386.724 265.034 381.964C266.527 378.741 260.535 375.912 260.535 375.912C260.535 375.912 229.15 397.23 222.895 396.157Z" fill="#DEAE9C"/>
<path d="M238.055 376.302C235.546 377.652 235.892 383.517 232.153 386.335C228.415 389.153 224.142 390.24 223.108 392.814C222.073 395.388 222.606 397.118 224.395 398.174C226.183 399.229 236.949 396.666 242.375 391.73C247.801 386.795 261.04 381.547 262.519 378.072C263.409 375.979 258.401 368.99 256.325 368.897C254.248 368.804 250.804 375.9 248.151 377.731C245.497 379.562 240.251 375.121 238.055 376.302Z" fill="#63759D"/>
<path d="M178.085 364.3C178.085 364.3 182.186 378.902 178.852 381.108C175.519 383.314 165.323 388.822 160.879 391.028C156.434 393.234 153.1 395.44 154.767 396.543C156.434 397.646 169.769 396.543 174.213 394.889C178.658 393.234 193.104 392.683 193.66 390.477C194.216 388.271 193.048 367.357 193.048 367.357L178.085 364.3Z" fill="#D8B695"/>
<path d="M177.317 202.334C177.317 202.334 162.738 252.376 165.807 299.743C168.781 345.646 175.399 376.143 175.399 376.143L197.268 375.76C197.268 375.76 194.583 295.923 204.174 253.903C204.174 253.903 204.942 314.259 236.019 372.322L254.052 364.682C254.052 364.682 236.787 301.653 240.624 259.633C243.755 225.341 234.869 202.333 234.869 202.333H177.317V202.334Z" fill="#49516B"/>
<path d="M153.205 393.351C153.205 393.351 152.719 397.29 156.065 399.586C159.001 401.601 166.298 403.621 174.381 401.38C182.465 399.139 193.391 401.662 197.414 398.281C200.138 395.992 195.915 390.901 195.915 390.901C195.915 390.901 158.413 396.963 153.205 393.351Z" fill="#DEAE9C"/>
<path d="M175.389 381.768C172.542 381.931 170.358 387.389 165.772 388.364C161.186 389.338 156.854 388.52 154.821 390.414C152.788 392.309 152.534 394.101 153.705 395.811C154.875 397.522 165.717 399.744 172.733 397.564C179.749 395.384 193.974 396.218 196.792 393.695C198.49 392.176 196.93 383.732 195.089 382.771C193.247 381.81 187.107 386.784 183.925 387.323C180.741 387.86 177.881 381.624 175.389 381.768Z" fill="#63759D"/>
<path d="M251.566 128.64C251.566 128.64 262.02 169.049 263.909 175.833C265.798 182.616 269.936 216.551 269.936 216.551L262.039 223.301C262.039 223.301 252.735 187.745 250.995 181.191C247.109 166.555 232.804 138.924 232.804 138.924L251.566 128.64Z" fill="#FFBE8C"/>
<path d="M257.839 234.103C257.437 235.115 257.331 236.747 258.421 236.819C258.67 236.836 258.912 236.743 259.137 236.639C261.245 235.663 262.687 233.406 262.682 231.092C265.318 235.584 266.476 240.92 265.938 246.095C265.831 247.126 265.79 248.705 266.825 248.823C269.053 249.079 270.474 240.37 269.138 236.088C271.817 239.914 268.978 248.671 270.028 249.294C271.401 250.109 272.595 247.534 273.076 246.017C274.188 242.514 273.953 239.418 273.635 235.129C275.146 238.93 273.753 246.953 274.813 247.178C277.585 247.767 277.709 242.341 277.751 239.519C277.803 236.088 277.045 232.648 275.559 229.552C273.249 224.743 269.114 220.377 269.333 215.052C269.359 214.431 269.396 213.693 268.898 213.317C268.488 213.009 267.909 213.111 267.412 213.245C263.774 214.227 260.805 217.849 260.805 217.849C260.805 217.849 260.214 228.12 257.839 234.103Z" fill="#FFBE8C"/>
<path d="M181.77 118.45C181.77 118.45 148.257 146.416 142.289 150.193C136.322 153.97 105.582 166.903 105.582 166.903L106.903 177.181C106.903 177.181 143.616 168.202 149.318 164.496C162.05 156.221 188.162 139.572 188.162 139.572L181.77 118.45Z" fill="#FFBE8C"/>
<path d="M211.369 80.3809L212.808 112.755L225.757 117.053C225.757 117.053 213.691 132.247 202.772 135.728C191.853 139.208 189.5 115.047 189.5 115.047L196.694 113.329L196.71 94.6984L211.369 80.3809Z" fill="#FFBE8C"/>
<path d="M203.024 126.507C214.678 125.074 217.7 113.185 217.7 113.185L235.76 115.519C235.76 115.519 240.145 126.507 239.857 134.529C239.028 157.622 242.122 207.2 242.61 220.188C242.61 220.188 221.517 224.336 206.038 223.998C190.345 223.655 172.398 220.76 172.398 220.76C172.398 220.76 174.167 190.056 174.778 163.321C175.192 145.211 168.654 126.583 173.385 120.777C177.96 115.164 190.303 114.621 190.303 114.621C190.303 114.621 198.925 127.011 203.024 126.507Z" fill="#74AAB7"/>
<path d="M181.03 114.183C167.218 121.823 149.318 134.415 149.318 134.415L165.513 157.478C165.513 157.478 182.404 143.79 181.109 134.767C179.814 125.745 181.03 114.183 181.03 114.183Z" fill="#74AAB7"/>
<path d="M203.364 127.036C203.274 127.036 203.184 127.035 203.094 127.034C194.35 126.881 188.847 115.509 188.617 115.025L190.957 113.922C191.007 114.026 196.004 124.331 203.139 124.456C212.901 124.605 217.304 113.004 217.347 112.886L219.78 113.768C219.58 114.314 214.8 127.036 203.364 127.036Z" fill="#D4F0FF"/>
<path d="M150.364 133.687L148.284 135.221L165.548 158.428L167.628 156.894L150.364 133.687Z" fill="#D4F0FF"/>
<path d="M174.858 162.586C174.629 162.586 174.438 162.407 174.427 162.177L173.241 137.701C173.23 137.464 173.414 137.262 173.652 137.251C173.889 137.233 174.092 137.423 174.104 137.659L175.289 162.136C175.301 162.373 175.117 162.574 174.879 162.585C174.872 162.586 174.865 162.586 174.858 162.586Z" fill="#49516B"/>
<path d="M174.124 150.138C173.992 150.138 173.86 150.077 173.776 149.963L167.857 141.946C167.716 141.754 167.757 141.485 167.949 141.344C168.142 141.203 168.412 141.245 168.553 141.436L174.471 149.454C174.613 149.645 174.571 149.914 174.379 150.055C174.303 150.111 174.213 150.138 174.124 150.138Z" fill="#49516B"/>
<path d="M233.689 115.186C253.833 116.921 261.537 148.166 261.537 148.166L226.447 157.581C226.447 157.581 217.681 113.807 233.689 115.186Z" fill="#74AAB7"/>
<path d="M143.712 34.9139C152.291 44.6546 164.697 54.2396 177.103 58.1463C178.219 55.539 180.677 51.6295 181.794 49.0222C170.57 45.9275 156.331 38.5003 148.478 29.938C145.669 31.8247 146.523 33.0272 143.712 34.9139Z" fill="#FEC08F"/>
<path d="M259.833 36.6329C251.254 46.3735 238.849 55.9587 226.442 59.8654C225.326 57.258 222.868 53.3485 221.752 50.7412C232.975 47.6465 247.214 40.2193 255.067 31.657C257.877 33.5437 257.022 34.7462 259.833 36.6329Z" fill="#FEC08F"/>
<path d="M228.019 140.336L226.343 152.844L219.444 152.19L222.298 136.4L228.019 140.336Z" fill="#D8B695"/>
<path d="M188.623 140.467L189.198 153.073L182.292 153.646V137.602L188.623 140.467Z" fill="#D8B695"/>
<path d="M187.965 151.599C187.965 151.599 186.923 148.489 184.32 148.489C181.716 148.489 181.195 151.599 181.195 151.599C181.195 151.599 181.716 149.007 180.154 149.007C178.592 149.007 180.154 152.636 178.592 154.191C177.03 155.746 176.069 158.419 177.03 159.376C179.791 162.125 189.889 162.125 192.651 159.376C193.557 158.473 192.651 155.747 190.568 154.71C188.485 153.673 192.651 149.007 190.568 149.007C188.486 149.007 187.965 151.599 187.965 151.599Z" fill="#53688C"/>
<path d="M191.623 157.149C191.893 156.933 191.749 156.441 192.435 156.499C193.08 157.606 193.202 158.827 192.651 159.375C189.89 162.125 179.791 162.125 177.03 159.375C176.348 158.697 176.636 157.156 177.417 155.762C177.386 157.755 178.256 158.473 179.447 158.876C181.534 155.223 184.614 154.847 186.807 156.517C187.309 156.899 187.672 157.443 188.187 157.808C188.86 158.285 189.718 158.28 190.469 157.974C190.861 157.813 191.293 157.413 191.623 157.149Z" fill="#FAD2B8"/>
<path d="M44.3066 399.374C44.3066 399.374 40.8534 407.395 48.3351 407.969C55.8169 408.542 58.6943 401.093 61.5718 398.227C64.4492 395.363 65.354 391.993 63.7506 389.094C62.1471 386.195 54.6654 388.487 54.6654 388.487L44.3066 399.374Z" fill="#EA6662"/>
<path d="M110.747 195.834L81.9049 196.499C81.0846 171.167 69.6068 131.306 69.6068 131.306C69.6068 131.306 87.5679 125.763 88.283 124.138C89.7133 120.89 88.9068 107.28 88.9068 107.28L101.577 113.07C101.577 113.07 100.8 124.626 102.588 125.438C107.343 127.598 113.663 129.878 113.663 129.878C116.044 138.111 121.401 145.669 122.922 154.07C123.137 155.262 123.344 156.484 123.095 157.67C122.776 159.189 121.748 160.49 120.845 161.8C114.812 170.546 111.774 185.556 110.747 195.834Z" fill="#FFCCA9"/>
<g opacity="0.49">
<mask id="mask0_956_8" style="mask-type:luminance" maskUnits="userSpaceOnUse" x="90" y="111" width="15" height="11">
<path d="M104.557 121.16C104.557 121.16 96.6866 122.417 91.3229 117.128L90.8943 111.523L104.322 115.287L104.557 121.16Z" fill="white"/>
</mask>
<g mask="url(#mask0_956_8)">
<path d="M94.1982 122.815L91.9491 121.015L92.2886 123.12L94.1982 122.815Z" fill="#C77D4F"/>
</g>
<mask id="mask1_956_8" style="mask-type:luminance" maskUnits="userSpaceOnUse" x="90" y="111" width="15" height="11">
<path d="M104.557 121.16C104.557 121.16 96.6866 122.417 91.3229 117.128L90.8943 111.523L104.322 115.287L104.557 121.16Z" fill="white"/>
</mask>
<g mask="url(#mask1_956_8)">
<path d="M98.1707 110.36L104.322 115.283L103.394 109.526L98.1707 110.36Z" fill="#DE8B58"/>
</g>
</g>
<g opacity="0.24">
<path d="M100.702 118.731C100.921 118.712 101.138 118.682 101.354 118.646C101.463 116.668 101.577 112.688 101.577 112.688L88.9397 106.954C88.9397 106.954 89.1028 109.467 89.1878 112.6C91.9817 116.418 96.0764 119.125 100.702 118.731Z" fill="#994F49"/>
</g>
<path d="M125.463 173.773L143.238 215.412L137.675 219.232C137.675 219.232 117.849 190.939 115.718 178.069C113.587 165.198 125.463 173.773 125.463 173.773Z" fill="#FFCCA9"/>
<path d="M137.292 217.322C134.798 222.097 145.132 224.692 148.825 230.789C149.247 231.487 150.175 232.291 150.714 231.678C150.837 231.538 150.891 231.352 150.931 231.171C151.305 229.478 150.611 227.599 149.224 226.55C153.108 227.028 156.825 228.765 159.676 231.435C160.244 231.967 161.169 232.708 161.71 232.149C162.876 230.944 158.313 226.145 155.144 224.992C158.649 225.142 162.597 230.803 163.447 230.464C164.557 230.02 163.56 228.142 162.872 227.168C161.281 224.918 159.323 223.65 156.614 221.891C159.574 222.722 163.738 227.192 164.355 226.666C165.966 225.29 162.778 222.751 161.11 221.445C159.081 219.856 156.68 218.742 154.153 218.217C150.228 217.402 145.749 217.006 142.664 214.457L137.292 217.322Z" fill="#FFCCA9"/>
<path d="M83.6921 95.5073C83.6021 94.2016 81.5303 93.9395 80.6497 94.9118C79.7696 95.884 79.7975 97.3499 79.9323 98.652C80.1534 100.791 81.018 102.614 82.6443 104.029C84.2706 105.444 86.979 105.69 87.6503 103.646L83.6921 95.5073Z" fill="#FFCCA9"/>
<path d="M95.596 77.8342C106.309 75.918 112.108 81.9462 112.581 94.0012C112.955 103.505 109.108 111.986 103.381 113.648C95.1143 116.048 86.418 106.814 84.5765 98.266C82.1003 86.7678 90.0202 78.8315 95.596 77.8342Z" fill="#FFCCA9"/>
<path d="M101.591 105.902C101.336 105.949 101.073 105.975 100.805 105.979C99.4621 105.995 98.2145 105.438 97.467 104.489C97.3102 104.291 97.3454 104.003 97.5451 103.847C97.7444 103.691 98.0336 103.726 98.1903 103.925C98.7615 104.651 99.7349 105.077 100.793 105.064C101.852 105.051 102.814 104.602 103.367 103.862C103.519 103.659 103.807 103.618 104.01 103.768C104.214 103.919 104.256 104.206 104.104 104.408C103.526 105.182 102.619 105.713 101.591 105.902Z" fill="#E66C61"/>
<path d="M95.4421 89.3262C95.2634 89.4272 95.0367 89.4331 94.8466 89.3221C94.7155 89.2461 91.6018 87.4882 88.6855 89.9904C88.4369 90.2047 88.0608 90.1761 87.8461 89.9286C87.6318 89.6806 87.6592 89.3066 87.9082 89.0928C91.4821 86.0259 95.411 88.278 95.4503 88.3007C95.7331 88.4672 95.8273 88.8308 95.66 89.1128C95.6057 89.2047 95.5298 89.2766 95.4421 89.3262Z" fill="#774B42"/>
<path d="M102.977 88.0868C102.868 88.0786 102.76 88.0404 102.666 87.9703C102.403 87.7742 102.349 87.4025 102.546 87.1409C103.338 86.0872 105.211 84.4566 108.85 85.3679L108.946 85.3911C109.273 85.4239 109.493 85.7119 109.46 86.0376C109.427 86.3634 109.105 86.5922 108.79 86.5654C108.756 86.5618 108.677 86.5468 108.559 86.5176C106.324 85.9567 104.575 86.4189 103.499 87.8511C103.372 88.019 103.173 88.1013 102.977 88.0868Z" fill="#774B42"/>
<path d="M85.6332 101.171C84.7476 98.6531 84.6722 98.5903 84.2609 95.9938C83.8478 93.386 84.116 90.9574 85.6377 88.795C86.8806 87.0284 89.3761 86.8346 91.4164 84.785C94.3176 81.8705 97.0648 71.7045 90.3032 71.3951C86.8148 71.2359 82.7169 72.7641 80.2351 75.4601C77.7534 78.1562 76.8486 82.6685 77.7082 86.224C78.3685 88.9547 77.609 92.5575 79.0014 95.0002C80.5016 95.7272 83.3004 97.8969 85.6332 101.171Z" fill="#AE564E"/>
<path d="M112.596 96.3663C113.552 90.7699 115.305 82.8641 111.362 75.7558C107.412 68.6348 93.6733 65.2522 90.4491 72.2121C87.2252 79.1703 103.962 81.5378 108.091 82.5856C111.636 83.4851 111.962 89.2362 112.368 93.1397L112.596 96.3663Z" fill="#AE564E"/>
<path d="M81.1993 99.0635C81.5082 99.3951 81.8413 99.6745 82.2055 99.8961C82.5702 100.114 82.9609 100.28 83.3685 100.366L83.846 100.467L83.4462 100.745C83.1291 100.965 82.8905 101.298 82.7416 101.672C82.5958 102.049 82.5414 102.47 82.61 102.908C82.3732 102.528 82.3189 102.032 82.4263 101.577C82.5295 101.119 82.8014 100.688 83.1994 100.4L83.2771 100.778C82.8119 100.674 82.3737 100.464 82.0118 100.165C81.6494 99.8701 81.357 99.4902 81.1993 99.0635Z" fill="#AD6C58"/>
<path d="M100.041 94.1528C100.041 94.1528 99.4929 97.2638 100.837 99.0095C102.181 100.755 103.682 99.9668 104.129 99.3084C104.577 98.6501 104.573 97.1478 103.152 96.4899C101.411 95.6842 100.833 95.6469 100.041 94.1528Z" fill="#FFBE8C"/>
<path d="M83.352 126.249C83.352 126.249 87.1095 140.004 97.7461 138.931C108.383 137.857 104.646 126.058 104.646 126.058L118.075 130.832C118.075 130.832 120.201 137.857 122.565 144.299C124.929 150.741 124.552 152.36 119.287 161.272C115.224 168.147 110.747 195.834 110.747 195.834L81.9049 196.498L69.6068 131.306L83.352 126.249Z" fill="#FD5553"/>
<path d="M69.6068 131.033C69.6068 131.033 63.6261 139.363 60.2383 155.32C56.802 171.504 50.2506 183.611 50.2506 183.611C50.2506 183.611 55.3237 189.551 62.3321 189.625C62.3321 189.625 80.5394 157.629 80.8191 144.653C81.0983 131.677 69.6068 131.033 69.6068 131.033Z" fill="#FD5553"/>
<path d="M118.075 131.024C118.075 131.024 123.055 135.956 124.213 152.224C125.389 168.725 130.272 185.519 130.272 185.519C130.272 185.519 124.429 190.71 117.477 189.828C117.477 189.828 103.847 155.649 105.357 142.757C106.866 129.865 118.075 131.024 118.075 131.024Z" fill="#FD5553"/>
<path d="M106.318 103.231C106.318 103.231 100.188 105.819 95.3832 102.847C95.3832 102.847 95.9631 108.885 100.519 109.077C105.572 109.29 106.318 103.231 106.318 103.231Z" fill="#994F49"/>
<path d="M105.076 103.648C105.048 104.025 105.004 104.401 104.926 104.769C103.89 105.365 102.756 105.355 101.603 105.473C101.179 105.516 100.754 105.559 100.328 105.552C99.1141 105.532 97.9356 105.105 96.7791 104.679C96.796 104.319 96.8006 103.934 96.8303 103.555C99.9636 104.784 103.318 104.154 105.076 103.648Z" fill="white"/>
<path d="M97.4851 107.732C97.7977 107.37 98.2176 107.1 98.654 106.892C99.7438 106.372 100.99 106.138 102.18 106.348C103.022 106.497 103.826 106.884 104.452 107.457C103.584 108.424 102.329 109.154 100.519 109.078C99.2028 109.022 98.2199 108.477 97.4851 107.732Z" fill="#FD4E4C"/>
<path d="M75.0046 162.82C77.9333 156.792 78.6996 149.75 77.1359 143.238L75.0046 162.82Z" fill="#FD5553"/>
<path d="M123.535 386.384C123.535 386.384 134.885 390.382 137.12 393.824C138.565 396.05 137.983 400.411 136.257 400.984C131.663 402.508 126.19 400.697 119.445 398.896C115.332 397.798 111.527 396.618 110.081 396.687C109.899 396.696 104.68 395.999 104.616 395.828C104.205 394.739 103.611 388.42 104.904 387.237C106.413 385.855 123.535 386.384 123.535 386.384Z" fill="#EA6662"/>
<path d="M121.169 322.483C121.169 322.483 112.922 379.924 115.776 381.819C118.631 383.714 125.101 387.165 128.907 389.059C132.713 390.954 136.436 394.713 135.237 395.935C132.838 398.382 126.005 396.753 121.012 394.11C117.423 392.211 104.837 392.216 104.361 390.321C103.885 388.426 105.883 319.859 105.883 319.859L121.169 322.483Z" fill="#FFCCA9"/>
<path d="M81.2505 326.02C81.2505 326.02 63.751 386.726 63.751 389.094C63.751 391.462 61.8482 394.304 59.4693 396.672C57.0909 399.041 53.5152 402.238 51.213 403.384C46.5133 405.724 45.2584 401.268 44.3071 399.374C43.3557 397.479 52.3335 389.094 55.1881 384.831C58.0427 380.568 63.8574 327.595 63.8574 327.595L81.2505 326.02Z" fill="#FFCCA9"/>
<path d="M108.772 384.786C105.993 384.786 104.3 383.582 104.183 383.496L105.207 382.113C105.364 382.224 109.21 384.877 115.052 380.805L116.041 382.213C113.199 384.195 110.719 384.786 108.772 384.786Z" fill="#FF647A"/>
<path d="M104.329 391.247C104.041 390.101 104.329 382.082 104.329 382.082C104.329 382.082 108.068 383.514 109.218 386.664C110.369 389.814 110.656 392.965 110.656 392.965L104.329 391.247Z" fill="#EA6662"/>
<path d="M121.012 397.547C121.012 397.547 122.918 385.734 126.029 386.767C129.481 387.913 137.539 394.216 137.696 396.402C137.901 399.272 121.012 397.547 121.012 397.547Z" fill="#EA6662"/>
<path d="M119.151 375.938C113.68 378.568 107.284 379.297 101.631 377.082C100.4 356.623 100.077 336.121 99.7545 315.628C99.6403 308.355 99.5256 301.082 99.4114 293.809C99.1418 276.661 97.5232 261.813 97.2536 244.665C93.3704 291.468 84.8135 333.735 71.3557 378.746C65.652 379.275 59.5493 377.908 54.8217 374.687C58.1917 349.762 60.4029 328.186 63.7729 303.26C64.6119 297.055 65.4523 290.833 65.5633 284.574C65.6949 277.167 64.8048 269.784 64.4959 262.383C63.4494 237.31 69.2272 211.988 81.0504 189.826C90.3476 196.533 101.283 195.96 111.68 190.947C126.394 217.85 128.457 251.809 125.912 282.338C123.367 312.866 119.642 345.309 119.151 375.938Z" fill="#74AAB7"/>
<path d="M97.5774 252.913L96.4337 252.783C96.4881 252.307 96.5439 251.797 96.6019 251.26C97.3157 244.705 98.3941 234.798 103.04 231.212L103.745 232.117C99.4857 235.406 98.3968 245.408 97.7461 251.383C97.688 251.922 97.6323 252.434 97.5774 252.913Z" fill="#49516B"/>
<path d="M97.427 195.358C87.6641 195.358 80.8034 190.357 80.7052 190.284L81.3952 189.366C81.5327 189.469 95.2821 199.461 111.398 190.447L111.962 191.447C106.766 194.352 101.804 195.358 97.427 195.358Z" fill="#49516B"/>
<path d="M47.1845 392.497C47.1845 392.497 50.0619 390.205 54.0904 391.925C58.119 393.643 59.4693 396.673 59.4693 396.673C59.4693 396.673 52.6396 407.037 47.1845 404.531C39.7027 401.092 47.1845 392.497 47.1845 392.497Z" fill="#EA6662"/>
<path d="M64.1562 393.166L62.4407 392.975C62.772 390.007 62.231 387.802 60.8332 386.423C58.7568 384.374 55.379 384.751 55.3461 384.756L55.134 383.05C55.3045 383.029 59.3563 382.558 62.0368 385.192C63.8363 386.958 64.5496 389.641 64.1562 393.166Z" fill="#FF647A"/>
<path d="M101.868 95.7382C102.333 95.4775 102.945 95.4848 103.467 95.6972C103.993 95.9061 104.463 96.3223 104.702 96.876C104.945 97.4283 104.927 98.0548 104.721 98.5794C104.519 99.1039 104.105 99.5535 103.595 99.7118C103.902 99.2864 104.061 98.8501 104.125 98.4156C104.185 97.9816 104.131 97.5548 103.975 97.1895C103.815 96.8246 103.539 96.4943 103.18 96.24C102.818 95.9884 102.389 95.8055 101.868 95.7382Z" fill="#D87B56"/>
<path d="M95.8375 94.42C95.8375 94.42 96.0033 96.3808 92.8992 96.4809C89.7951 96.5814 88.4946 94.556 88.4946 94.556C88.4946 94.556 89.7252 92.6292 92.2407 92.5983C94.7558 92.5669 95.8375 94.42 95.8375 94.42Z" fill="white"/>
<path d="M103.364 93.6027C103.364 93.6027 103.947 95.2519 107.023 94.8234C110.023 94.4052 110.261 91.9348 110.261 91.9348C110.261 91.9348 108.891 90.4453 106.437 90.9976C103.983 91.5499 103.364 93.6027 103.364 93.6027Z" fill="white"/>
<path d="M95.8904 94.2094C95.8904 94.2094 95.7949 96.2007 93.8986 96.4232C91.7317 96.6775 91.6051 92.7321 91.6051 92.7321C91.6051 92.7321 94.0306 92.0861 95.8904 94.2094Z" fill="#507CA1"/>
<path d="M110.264 91.8619C110.264 91.8619 109.953 94.2746 108.326 94.5316C106.171 94.8719 106.063 91.1008 106.063 91.1008C106.063 91.1008 108.463 90.093 110.264 91.8619Z" fill="#507CA1"/>
<path d="M95.7642 94.3624C95.6038 94.3811 95.442 94.3005 95.3653 94.1486C95.3328 94.0853 94.5588 92.6391 92.2804 92.7901C89.8494 92.9498 88.8217 94.3497 88.7792 94.4093C88.6526 94.5858 88.4063 94.6281 88.2295 94.5039C88.0517 94.3793 88.0079 94.1359 88.1321 93.958C88.1829 93.8861 89.4052 92.1936 92.2283 92.0057C95.0527 91.8178 96.032 93.7164 96.0722 93.7974C96.1691 93.9921 96.0891 94.2282 95.894 94.3242C95.8519 94.3447 95.8081 94.3569 95.7642 94.3624Z" fill="#272C3A"/>
<path d="M103.421 93.5288C103.36 93.5361 103.296 93.5289 103.235 93.5057C103.032 93.4283 102.929 93.2026 103.006 93.0002C103.038 92.9156 103.819 90.9261 106.297 90.4206C109.12 89.8455 110.416 91.3669 110.469 91.432C110.608 91.5999 110.584 91.8478 110.415 91.9856C110.246 92.1239 109.997 92.0994 109.859 91.9315C109.818 91.8837 108.792 90.7172 106.456 91.1913C104.416 91.6071 103.771 93.2113 103.744 93.2795C103.69 93.4206 103.563 93.5125 103.421 93.5288Z" fill="#272C3A"/>
<path d="M59.116 190.279C59.116 190.279 22.9018 189.252 30.0303 172.918C34.397 162.912 47.3425 167.72 57.5258 170.69C67.7095 173.66 70.7642 177.373 70.7642 177.373L59.116 190.279Z" fill="#FFBE8C"/>
<path d="M50.0517 164.193L49.4747 166.345L71.9189 172.31L72.4959 170.157L50.0517 164.193Z" fill="#D4F0FF"/>
<path d="M68.2182 198.608C68.2182 198.608 65.5099 200.622 64.9656 202.236C64.4214 203.851 66.172 207.355 67.4524 209.579C68.7323 211.803 69.0485 214.991 71.4247 217.867C73.9877 220.969 76.4187 222.455 79.7353 220.644C82.9605 218.883 81.4389 214.252 81.4389 214.252L68.2182 198.608Z" fill="#49516B"/>
<path d="M60.301 163.576C60.301 163.576 83.2763 169.959 90.7918 178.509C98.3074 187.058 69.0256 205.383 69.0256 205.383L69.0627 197.991C69.0627 197.991 81.1048 184.49 80.3289 182.937C79.553 181.384 62.2166 179.744 56.1226 174.689C50.0282 169.633 51.0787 163.946 60.301 163.576Z" fill="#8D4059"/>
<path d="M76.7222 199.79C76.7222 199.79 77.9363 207.581 79.7555 210.546C81.5751 213.512 82.9542 216.78 79.097 218.522C75.2394 220.264 70.9924 214.13 69.2112 209.044C67.43 203.958 66.3205 200.893 68.2183 198.608C70.116 196.323 73.9028 196.129 73.9028 196.129L76.7222 199.79Z" fill="#8D4059"/>
<path d="M72.6546 211.205C76.7334 216.834 79.7557 210.21 79.7557 210.21C79.7557 210.21 81.8792 213.277 81.7385 216.036C81.5977 218.796 78.6517 221.18 74.9371 219.153C71.2225 217.126 69.2759 210.188 68.0974 207.998C66.9189 205.808 65.1688 201.967 67.0665 199.682C68.9643 197.398 71.7723 196.427 71.7723 196.427C70.7893 197.671 69.0013 199.244 69.057 201.807C69.1114 204.321 71.2367 209.248 72.6546 211.205Z" fill="#FD5553"/>
<path d="M70.0245 207.968C70.0245 207.968 73.6857 203.129 78.3128 205.124L78.5458 206.774C78.5458 206.774 73.2397 206.124 71.2711 209.957L70.0245 207.968Z" fill="#FD5553"/>
<path d="M10.5988 96.9817C10.5988 96.9817 10.3676 94.226 11.2367 91.9899C12.3306 89.1764 14.4271 87.4521 13.9716 86.272C13.447 84.9139 11.419 87.0891 10.1432 89.1764C10.1432 89.1764 8.59367 86.726 8.86693 84.0031C9.14064 81.2806 9.68716 80.1005 8.86693 79.2838C8.04669 78.4671 7.04367 81.4621 6.77041 83.64C6.49669 85.8184 6.67901 86.7255 6.67901 86.7255C6.67901 86.7255 6.22343 85.0012 6.22343 83.0649C6.22343 81.2405 6.49668 78.4667 5.49412 77.9221C4.49156 77.3775 4.21784 80.9776 4.03551 83.0649C3.85319 85.1523 4.03551 86.9371 4.03551 86.9371C4.03551 86.9371 3.64712 84.4862 3.54933 83.1255C3.42778 81.4312 3.73164 80.1305 3.18466 79.4953C2.63769 78.8602 1.9902 80.3698 1.84763 82.6418C1.6653 85.5463 2.10945 87.504 2.09072 87.4216C1.32212 86.1346 1.39203 82.5508 0.632109 82.5813C0.0380675 82.605 -0.0551313 84.2142 0.024379 85.8484C0.11577 87.7242 0.753675 90.4467 1.84763 92.383C2.92833 94.2961 3.76181 95.8015 4.40018 97.8889C5.03854 99.9762 11.0548 97.2537 11.0548 97.2537L10.5988 96.9817Z" fill="#FFCCA9"/>
<path d="M10.2992 89.1464C9.19151 89.4431 8.28172 90.0532 7.594 90.8671C6.90537 91.6806 6.45572 92.6756 6.34833 93.8125C6.17697 93.2625 6.19341 92.6505 6.34878 92.0809C6.50003 91.5068 6.79524 90.974 7.17634 90.5163C7.56521 90.0655 8.04318 89.6856 8.58558 89.4403C9.12296 89.1919 9.72523 89.0718 10.2992 89.1464Z" fill="#D87B56"/>
<path d="M7.84247 85.9204C6.67175 85.965 5.54351 86.182 4.4852 86.6042C3.42415 87.0201 2.45312 87.6315 1.56982 88.3977C2.24063 87.4336 3.24731 86.7057 4.35085 86.2671C5.45669 85.834 6.69003 85.677 7.84247 85.9204Z" fill="#D87B56"/>
<path d="M57.8834 108.529C57.8834 108.529 56.7895 113.702 58.9774 119.148C58.9774 119.148 58.7041 122.143 53.7818 122.143C48.8595 122.143 47.219 119.692 47.219 119.692C47.219 119.692 49.9534 115.609 49.4064 108.257L57.8834 108.529Z" fill="#FFCCA9"/>
<path d="M67.2481 156.911C69.3478 133.697 70.4989 119.755 70.4989 119.755C70.4989 119.755 61.4827 118.036 58.8858 117.242C58.8283 117.224 57.4834 120.508 53.417 120.508C49.3153 120.508 47.9477 116.969 47.9477 116.969C47.9477 116.969 35.9156 120.236 24.4305 113.157C12.9453 106.078 11.0312 96.5493 11.0312 96.5493L3.92139 97.6385C3.92139 97.6385 5.58518 112.411 17.6173 121.94C29.6494 131.469 38.9859 132.639 38.9859 132.639L39.8486 157.126C39.8486 157.126 50.312 160.159 53.656 160.133C57.1626 160.106 67.2481 156.911 67.2481 156.911Z" fill="#FFB564"/>
<path d="M58.8863 117.241C58.8863 117.241 57.7014 120.508 53.417 120.508C49.133 120.508 47.9477 116.969 47.9477 116.969L45.5779 117.513C45.5779 117.513 46.6719 122.959 53.2346 123.231C59.7974 123.503 61.1646 117.785 61.1646 117.785L58.8863 117.241Z" fill="#FD5553"/>
<path d="M11.0548 96.3457L3.92175 97.6387L4.40018 100.43L11.6927 98.8871L11.0548 96.3457Z" fill="#FD5553"/>
<g opacity="0.24">
<path d="M57.8318 114.824C57.314 111.253 57.8834 108.529 57.8834 108.529L49.4064 108.257C49.5997 110.855 49.3799 113.036 49.0189 114.781C51.603 115.608 54.5549 115.683 57.8318 114.824Z" fill="#994F49"/>
</g>
<path d="M66.8377 90.4813C66.8377 90.4813 67.9216 81.7329 61.0741 76.3621C54.1307 70.9163 44.8321 76.9518 44.8321 76.9518C44.8321 76.9518 34.3075 78.8731 31.8349 87.9113C29.3623 96.9499 41.1947 106.525 41.1947 106.525L66.8377 90.4813Z" fill="#E38D49"/>
<path d="M33.8843 81.3602C36.0407 82.0449 32.9197 85.0594 32.9197 85.0594C32.9197 85.0594 36.3793 83.2018 36.3962 85.4552C36.4122 87.5917 32.7895 86.3342 32.7895 86.3342C32.7895 86.3342 35.2812 89.1896 33.1011 89.6905C30.6034 90.2642 31.0868 86.7319 31.0868 86.7319C31.0868 86.7319 29.5186 89.9471 27.815 88.4143C26.0137 86.7937 29.8215 85.5126 29.8215 85.5126C29.8215 85.5126 25.215 85.0153 26.5401 83.0339C27.8859 81.0221 30.4311 84.3656 30.4311 84.3656C30.4311 84.3656 28.4927 81.0226 30.0208 80.6026C31.5488 80.1827 31.8285 83.5758 31.8285 83.5758C31.8285 83.5758 32.2896 80.8538 33.8843 81.3602Z" fill="#B3E2FF"/>
<path d="M32.6363 85.1728C32.5896 84.529 32.0276 84.0445 31.3805 84.0904C30.734 84.1368 30.2473 84.6964 30.2934 85.3407C30.34 85.9849 30.9021 86.4694 31.5491 86.423C32.1962 86.3766 32.6829 85.817 32.6363 85.1728Z" fill="#FF4545"/>
<path d="M44.907 81.8248C56.0663 76.5313 60.9169 82.701 62.2951 85.237C63.3813 87.2352 64.605 90.6287 66.1851 93.7201C68.2163 97.6938 68.0879 109.098 58.2862 111.83C49.7366 114.214 43.4146 110.117 40.1113 102.901C37.4486 97.0841 34.0502 86.9749 44.907 81.8248Z" fill="#FFCCA9"/>
<path d="M53.9139 99.3795C54.073 98.87 54.3462 98.4004 54.6834 97.971C54.7716 97.864 54.8607 97.7599 54.9768 97.6557C55.1098 97.5483 55.2291 97.4582 55.3826 97.3932C55.6782 97.2503 56.0383 97.2357 56.3609 97.3149C57.0231 97.4923 57.4567 98.0228 57.6792 98.5442C57.9032 99.0774 57.968 99.6402 57.8684 100.187C57.5796 99.7107 57.363 99.253 57.0802 98.8709C56.8051 98.4892 56.4953 98.1744 56.1388 98.0433C55.9625 97.9683 55.7751 97.9537 55.5741 97.976C55.4781 97.9869 55.3616 98.0201 55.2802 98.0602C55.1884 98.1143 55.0883 98.1916 54.9933 98.2708C54.6085 98.5961 54.2475 98.9687 53.9139 99.3795Z" fill="#D87B56"/>
<path d="M61.4045 88.4113C61.0668 87.3394 56.1907 87.9591 56.5868 89.3194C56.8194 90.1183 61.6545 89.2048 61.4045 88.4113Z" fill="#E38D49"/>
<path d="M47.4744 92.9648C48.168 93.917 43.7314 96.2546 43.1493 95.504C42.5676 94.7528 46.7428 91.9607 47.4744 92.9648Z" fill="#E38D49"/>
<path d="M56.8151 79.8339C58.6462 80.7929 60.7778 82.3648 62.1089 86.1674L58.2134 86.984L54.8402 82.6337L56.938 87.1641C56.938 87.1641 53.2006 88.5887 49.0167 90.5632C48.6438 90.7392 46.4336 86.666 46.4336 86.666C46.4336 86.666 47.4992 91.0186 47.289 91.1232C46.8718 91.3307 46.4541 91.5504 46.0392 91.7788C45.8372 91.8903 44.7497 89.9153 44.5495 90.03C44.3498 90.1446 45.0366 92.3489 44.8397 92.4667C43.2248 93.428 41.7041 94.4726 40.4904 95.3753C40.4904 95.3753 37.7528 91.1168 40.0028 86.8439C42.2524 82.5709 51.6771 77.1428 56.8151 79.8339Z" fill="#E38D49"/>
<path d="M62.7758 85.5703C64.5671 88.2427 65.5129 91.3737 66.4346 94.4529C67.3115 90.8173 65.9078 87.0134 64.0365 83.7714C63.0888 82.129 61.9948 80.5361 60.5321 79.325C58.4379 77.5903 55.6802 76.7486 52.9558 76.7268C50.2319 76.7049 47.54 77.4629 45.0852 78.639C45.613 79.9729 46.1403 81.3073 46.6681 82.6412C46.3958 81.9529 54.6031 80.3883 55.6066 80.4888C58.5416 80.7832 61.218 83.2454 62.7758 85.5703Z" fill="#E38D49"/>
<path d="M46.7275 82.4541C42.7163 83.9705 39.7361 87.8917 39.36 92.147C39.2101 93.8453 39.4427 95.5564 39.7978 97.2243C40.3137 99.6483 41.0882 102.018 42.1045 104.28C39.4651 102.815 37.7831 100.058 36.7869 97.2179C35.4275 93.3408 35.1729 88.9345 36.8829 85.1974C38.5928 81.4604 41.4323 79.6051 45.2876 78.7166L46.7275 82.4541Z" fill="#E38D49"/>
<g opacity="0.23">
<path d="M42.5419 105.098C42.5146 105.043 42.4895 104.988 42.4626 104.933C42.5014 104.912 42.531 104.882 42.5374 104.84C42.5305 104.892 42.5159 105.043 42.5419 105.098Z" fill="#514247"/>
<path d="M42.5391 104.837C42.5391 104.838 42.5382 104.839 42.5382 104.839C42.5404 104.82 42.5417 104.815 42.5391 104.837Z" fill="#514247"/>
</g>
<path d="M42.0723 104.174C41.5189 103.445 40.7202 102.886 39.7953 102.579C39.1318 102.36 38.2928 102.297 37.7033 102.751C36.9585 103.325 37.0417 104.352 37.335 105.124C37.9816 106.826 39.2931 108.256 40.9975 109.116C41.284 109.261 41.6126 109.393 41.9521 109.313C42.5293 109.178 42.7975 108.535 42.8674 108C42.9373 107.466 42.9524 106.866 43.3842 106.466L42.0723 104.174Z" fill="#FFCCA9"/>
<path d="M38.6324 104.077C39.3302 104.687 40.1623 105.068 41.0333 105.136L41.4436 105.168L41.1457 105.452C40.5549 106.015 40.3355 106.951 40.6234 107.808C40.0549 107.071 40.1651 105.87 40.8921 105.185L41.0045 105.502C40.0353 105.427 39.1063 104.886 38.6324 104.077Z" fill="#AD5858"/>
<path d="M65.6236 94.1435C65.4764 93.2418 65.6222 92.2804 66.038 91.4028C66.3364 90.7732 66.8706 90.1257 67.6076 90.0152C68.5385 89.875 69.2275 90.6449 69.5858 91.3887C70.3759 93.0302 70.5084 94.9615 69.9564 96.7832C69.8636 97.0894 69.7325 97.4174 69.44 97.6066C68.9429 97.9283 68.2908 97.6776 67.8539 97.3592C67.4171 97.0407 66.9711 96.6371 66.3825 96.6712L65.6236 94.1435Z" fill="#FFCCA9"/>
<path d="M67.9288 91.5994C68.1893 92.4988 67.9407 93.542 67.3256 94.2914L67.1735 93.992C68.1733 93.9415 69.1215 94.6917 69.264 95.6094C68.8404 94.8105 68.0092 94.3218 67.1922 94.3582L66.78 94.3764L67.04 94.0589C67.5916 93.3846 67.8895 92.5229 67.9288 91.5994Z" fill="#AD5858"/>
<g opacity="0.14">
<path d="M44.4575 77.0327C46.0674 77.8635 47.5383 78.8357 48.7588 80.4749C46.7578 79.3502 44.6864 78.2074 42.4912 77.6119C43.3613 77.3079 44.0572 77.126 44.4575 77.0327Z" fill="black"/>
</g>
<path d="M59.9808 70.2456C62.1371 70.9303 59.0161 73.9449 59.0161 73.9449C59.0161 73.9449 62.4757 72.0873 62.4926 74.3407C62.5086 76.4772 58.8859 75.2197 58.8859 75.2197C58.8859 75.2197 61.3777 78.075 59.1975 78.5759C56.6998 79.1496 57.1833 75.6173 57.1833 75.6173C57.1833 75.6173 55.615 78.8325 53.9115 77.2998C52.1102 75.6792 55.918 74.3981 55.918 74.3981C55.918 74.3981 51.3114 73.9003 52.6366 71.9194C53.9823 69.9076 56.5276 73.2511 56.5276 73.2511C56.5276 73.2511 54.5891 69.9081 56.1172 69.4881C57.6453 69.0682 57.9249 72.4613 57.9249 72.4613C57.9249 72.4613 58.386 69.7392 59.9808 70.2456Z" fill="#B3E2FF"/>
<path d="M58.7328 74.058C58.6861 73.4138 58.1241 72.9297 57.4775 72.9757C56.8304 73.0221 56.3438 73.5816 56.3904 74.2259C56.437 74.8701 56.9991 75.3546 57.6456 75.3082C58.2927 75.2618 58.7794 74.7022 58.7328 74.058Z" fill="#FF4545"/>
<path d="M67.8709 152.81C67.8663 152.81 67.8617 152.81 67.8576 152.81C67.6196 152.803 67.4317 152.605 67.439 152.367C67.5364 149.159 69.1202 127.396 70.2822 124.008C70.3594 123.784 70.6053 123.664 70.8306 123.74C71.0558 123.817 71.1765 124.061 71.0997 124.286C70.0044 127.478 68.4211 148.481 68.3023 152.393C68.2949 152.626 68.1035 152.81 67.8709 152.81Z" fill="#D17742"/>
<path d="M39.1661 133.092C38.95 133.092 38.7631 132.93 38.738 132.711C38.3254 129.151 37.8652 127.552 35.9524 125.102C35.8062 124.915 35.8404 124.645 36.0287 124.499C36.2165 124.353 36.4879 124.387 36.6342 124.575C38.6576 127.167 39.1693 128.934 39.5952 132.612C39.6226 132.848 39.4526 133.061 39.2159 133.089C39.1995 133.09 39.183 133.092 39.1661 133.092Z" fill="#D17742"/>
<path d="M57.7768 202.414C57.7768 202.414 55.2973 204.702 54.9277 206.364C54.558 208.027 56.6714 211.327 58.1807 213.404C59.6901 215.481 60.343 218.618 63.0112 221.227C65.8891 224.041 68.4645 225.263 71.57 223.113C74.59 221.022 72.5849 216.578 72.5849 216.578L57.7768 202.414Z" fill="#49516B"/>
<path d="M46.398 168.305C46.398 168.305 71.6421 172.85 79.945 180.645C88.2474 188.439 59.1009 209.089 59.1009 209.089L58.4269 201.727C58.4269 201.727 70.9411 187.827 70.0194 186.355C69.0977 184.882 49.8586 184.217 43.3067 179.765C36.7544 175.313 37.2539 169.552 46.398 168.305Z" fill="#8D4059"/>
<path d="M66.3582 202.693C66.3582 202.693 68.393 210.312 70.5174 213.069C72.6418 215.827 74.3604 218.931 70.7098 221.069C67.0592 223.208 62.1844 217.556 59.8726 212.686C57.5609 207.816 56.132 204.885 57.7766 202.413C59.4212 199.941 63.1659 199.349 63.1659 199.349L66.3582 202.693Z" fill="#8D4059"/>
<path d="M63.5271 214.472C68.1812 219.64 70.4829 212.735 70.4829 212.735C70.4829 212.735 72.9203 215.561 73.0733 218.32C73.2264 221.079 70.5505 223.76 66.6412 222.135C62.732 220.511 60.0592 213.817 58.6546 211.763C57.2499 209.71 55.1013 206.075 56.7459 203.603C58.3904 201.131 59.5977 200.514 59.5977 200.514C58.7524 201.854 58.623 202.963 58.9507 205.505C59.2719 208 61.909 212.676 63.5271 214.472Z" fill="#FD5553"/>
<path d="M60.5676 211.531C60.5676 211.531 63.6937 206.333 68.5072 207.83L68.9144 209.446C68.9144 209.446 63.5689 209.358 62.0185 213.377L60.5676 211.531Z" fill="#FD5553"/>
<path d="M60.9849 211.623C60.5814 211.534 60.182 211.788 60.0925 212.19C60.0034 212.591 60.2579 212.989 60.6614 213.078C61.0649 213.167 61.4643 212.913 61.5538 212.512C61.6434 212.11 61.3884 211.712 60.9849 211.623Z" fill="#FFC82D"/>
<path d="M47.0632 183.248L46.7744 182.138C48.1161 181.792 48.8317 180.219 48.7485 178.899C48.6493 177.325 47.7002 175.881 46.8841 174.8C46.6625 174.506 46.434 174.216 46.2055 173.926C45.4127 172.918 44.5934 171.877 44.0396 170.667C43.3756 169.216 43.0722 167.47 43.1124 165.33C43.1901 161.153 44.4979 156.929 46.7946 153.432L47.7578 154.06C45.5781 157.378 44.337 161.387 44.2635 165.35C44.2265 167.316 44.4961 168.9 45.0869 170.191C45.5836 171.277 46.3257 172.22 47.1112 173.219C47.3443 173.515 47.5778 173.812 47.804 174.112C48.7165 175.321 49.7785 176.95 49.8968 178.827C50.0079 180.587 49.0524 182.734 47.0632 183.248Z" fill="#D17742"/>
<path d="M40.5916 174.916C38.2241 173.275 36.9437 170.049 37.3299 166.695C37.6954 163.52 39.3629 160.667 40.7749 158.536L41.7358 159.167C40.3942 161.192 38.8113 163.891 38.4736 166.826C38.135 169.766 39.2239 172.573 41.2487 173.974L40.5916 174.916Z" fill="#D17742"/>
<path d="M58.4465 184.088C58.4465 184.088 67.3073 184.74 70.379 183.429C73.4506 182.118 76.8307 181.747 77.1382 182.844C77.4458 183.941 71.5405 186.174 71.5405 186.174C71.5405 186.174 75.7756 187.294 78.9236 186.375C82.0711 185.455 83.25 185.384 83.5594 186.168C83.8687 186.952 81.2655 188.735 78.7499 189.033C76.2344 189.331 73.9715 189.428 73.9715 189.428C73.9715 189.428 77.2502 190.197 79.7648 190.056C82.1044 189.924 83.9341 189.064 84.1635 190.082C84.3929 191.1 81.8728 192.18 79.1219 192.398C76.371 192.616 72.9169 192.282 72.9169 192.282C72.9169 192.282 75.7802 193.675 77.7794 193.563C80.294 193.422 81.9468 192.884 82.3334 193.903C82.72 194.922 78.7065 196.071 76.2741 195.665C73.8413 195.26 71.9678 195.18 71.9678 195.18C71.9678 195.18 75.145 196.154 77.3448 196.167C79.2558 196.179 80.0915 196.575 79.0652 197.429C78.0389 198.283 75.8382 198.426 73.0151 197.627C70.1921 196.827 65.1998 195.363 63.085 194.334C60.9702 193.304 55.7605 189.817 55.7605 189.817L58.4465 184.088Z" fill="#FFBE8C"/>
<path d="M183.862 97.0855C183.862 97.0855 175.107 117.671 175.755 126.019C176.402 134.366 177.481 146.841 177.481 146.841L190.429 143.969C190.429 143.969 188.379 129.788 188.703 123.864C189.027 117.94 202.314 109.741 202.314 109.741C202.314 109.741 217.405 120.364 218.052 123.864C218.7 127.365 218.915 145.404 218.915 145.404L230.137 147.558C230.137 147.558 233.59 123.685 233.59 120.992C233.59 118.299 218.5 95.7388 218.5 95.7388L183.862 97.0855Z" fill="#FD5553"/>
<path d="M194.112 48.0773C194.112 48.0773 196.378 53.3926 203.176 53.3926C209.975 53.3926 209.951 47.7452 209.951 47.7452L229.597 45.8912L233.05 62.2206L224.418 66.5181L226.144 96.5987C226.144 96.5987 215.802 100.896 204.471 100.896C193.141 100.896 179.53 97.4586 179.53 97.4586L181.256 65.6587L169.171 58.7829L176.94 44.1724L194.112 48.0773Z" fill="#FFB564"/>
<path d="M196.709 94.6973L195.932 117.225L210.606 118.085L212.333 101.755L196.709 94.6973Z" fill="#FFBE8C"/>
<g opacity="0.24">
<path d="M196.425 99.4274L197.489 85.5366L212.683 98.9975L211.82 106.733C207.863 107.369 200.084 106.383 196.425 99.4274Z" fill="#994F49"/>
</g>
<path d="M218.222 59.4956C221.528 64.9023 222.073 71.8905 219.644 77.7399C219.439 78.2353 219.196 78.7445 218.765 79.0661C218.334 79.3878 217.661 79.4492 217.287 79.062C217.05 78.8163 216.985 78.4574 216.933 78.1203C216.495 75.2927 216.205 72.4192 215.292 69.7062C214.319 66.8132 212.641 64.1585 210.443 62.0334L218.222 59.4956Z" fill="#774B42"/>
<path d="M192.597 83.9477C192.058 82.8335 191.149 81.879 190.004 81.2262C189.183 80.758 188.086 80.4514 187.181 80.8972C186.039 81.46 185.873 82.8462 186.055 83.9477C186.457 86.379 187.813 88.6251 189.844 90.2207C190.185 90.4891 190.586 90.7516 191.058 90.7362C191.86 90.7098 192.388 89.9282 192.625 89.2375C192.862 88.5469 193.043 87.7548 193.723 87.3385L192.597 83.9477Z" fill="#FFCCA9"/>
<path d="M188.058 82.9041C188.242 83.5119 188.617 84.0669 189.098 84.5091C189.577 84.9564 190.171 85.2862 190.811 85.4714L190.735 84.9373C190.155 85.3044 189.739 85.8822 189.556 86.5128C189.367 87.1384 189.401 87.8344 189.699 88.3854C189.641 87.768 189.753 87.1857 189.988 86.6716C190.227 86.1625 190.588 85.7175 191.049 85.4373L191.631 85.0838L190.973 84.9027C190.412 84.7484 189.881 84.4841 189.391 84.1492C188.902 83.8098 188.461 83.3927 188.058 82.9041Z" fill="#AD6C58"/>
<path d="M200.858 56.7398C188.162 59.0974 188.053 71.9732 189.219 76.2016C189.941 78.818 190.711 80.642 191.934 85.1379C193.1 89.4277 198.773 104.262 210.234 102.495C221.955 100.688 220.332 84.0174 220.063 78.9937C219.872 75.4009 219.364 73.4727 218.352 69.4955C216.523 62.3039 212.201 54.6329 200.858 56.7398Z" fill="#FFCCA9"/>
<path d="M218.423 79.2702C218.469 78.0345 218.919 76.7975 219.707 75.7434C220.271 74.9872 221.153 74.2697 222.161 74.318C223.434 74.3789 224.143 75.5837 224.419 76.666C225.027 79.0541 224.687 81.6528 223.466 83.924C223.261 84.3057 222.999 84.7061 222.56 84.8799C221.815 85.1752 221.016 84.6688 220.522 84.1301C220.027 83.5914 219.544 82.9372 218.753 82.8266L218.423 79.2702Z" fill="#FFCCA9"/>
<path d="M222.163 76.5063C221.991 77.1146 221.754 77.6729 221.442 78.1788C221.128 78.6806 220.747 79.1342 220.295 79.4991L219.765 79.9267L220.439 80.0191C220.974 80.0923 221.484 80.3562 221.908 80.7279C222.33 81.105 222.667 81.5946 222.861 82.1833C222.913 81.5596 222.664 80.9085 222.24 80.4099C221.819 79.9049 221.206 79.5409 220.527 79.4349L220.671 79.9549C221.184 79.5309 221.595 78.9918 221.855 78.3912C222.118 77.7948 222.239 77.1369 222.163 76.5063Z" fill="#AD6C58"/>
<path d="M207.732 80.9529C207.692 83.376 212.15 83.8874 212.142 86.3105C212.137 87.6367 210.492 88.5284 209.23 88.1067C207.967 87.6849 207.195 86.3491 207.045 85.0316C206.895 83.714 207.248 82.3965 207.597 81.1172L207.732 80.9529Z" fill="#FF9971"/>
<path d="M199.075 78.6428C200.655 78.1901 202.246 79.413 202.814 80.949L199.075 78.6428Z" fill="white"/>
<path d="M202.393 72.9908C202.275 73.1574 202.074 73.2588 201.856 73.2397C201.705 73.227 198.151 72.9676 196.599 76.4572C196.467 76.7556 196.117 76.8894 195.818 76.7579C195.518 76.626 195.383 76.2775 195.515 75.9795C197.417 71.7029 201.916 72.0604 201.961 72.0645C202.287 72.0941 202.527 72.3812 202.497 72.706C202.488 72.8125 202.45 72.9094 202.393 72.9908Z" fill="#774B42"/>
<path d="M210.164 72.1522C210.068 72.1021 209.984 72.0257 209.925 71.9247C209.761 71.6426 209.858 71.2818 210.14 71.1185C211.279 70.4615 213.634 69.6968 216.61 71.9466L216.688 72.0048C216.975 72.1622 217.063 72.5116 216.905 72.7968C216.747 73.0821 216.362 73.1667 216.084 73.0193C216.055 73.0029 215.988 72.9584 215.892 72.886C214.065 71.503 212.282 71.2464 210.734 72.1394C210.553 72.2445 210.338 72.2418 210.164 72.1522Z" fill="#774B42"/>
<path d="M203.319 80.2364C203.319 80.2364 203.656 82.175 200.573 82.5458C197.49 82.9166 196.016 81.0121 196.016 81.0121C196.016 81.0121 197.072 78.9857 199.575 78.735C202.079 78.4843 203.319 80.2364 203.319 80.2364Z" fill="white"/>
<path d="M210.745 78.7649C210.745 78.7649 211.471 80.3572 214.497 79.6616C217.449 78.9833 217.468 76.5019 217.468 76.5019C217.468 76.5019 215.972 75.1379 213.576 75.9018C211.181 76.6661 210.745 78.7649 210.745 78.7649Z" fill="white"/>
<path d="M203.353 80.0216C203.353 80.0216 203.433 82.0138 201.564 82.4006C199.428 82.8432 198.954 78.9238 198.954 78.9238C198.954 78.9238 201.314 78.0684 203.353 80.0216Z" fill="#994F49"/>
<path d="M217.464 76.4299C217.464 76.4299 217.367 78.8608 215.769 79.2584C213.652 79.7852 213.213 76.0382 213.213 76.0382C213.213 76.0382 215.515 74.8249 217.464 76.4299Z" fill="#994F49"/>
<path d="M203.241 80.1859C203.083 80.2187 202.914 80.1523 202.825 80.0081C202.787 79.948 201.889 78.5745 199.633 78.9239C197.225 79.2947 196.324 80.7792 196.287 80.842C196.177 81.029 195.935 81.0922 195.748 80.9839C195.56 80.8752 195.495 80.6363 195.603 80.4489C195.647 80.3729 196.716 78.5804 199.511 78.1468C202.308 77.7137 203.451 79.519 203.498 79.5964C203.612 79.7815 203.553 80.024 203.367 80.1368C203.327 80.1605 203.284 80.1768 203.241 80.1859Z" fill="#272C3A"/>
<path d="M210.795 78.6866C210.735 78.6989 210.671 78.6975 210.608 78.6797C210.398 78.6206 210.276 78.4045 210.335 78.1961C210.36 78.1092 210.962 76.0592 213.387 75.3395C216.148 74.5205 217.573 75.9231 217.632 75.9832C217.784 76.1383 217.782 76.3872 217.626 76.5396C217.471 76.6925 217.221 76.6893 217.068 76.5342C217.023 76.4901 215.898 75.4177 213.612 76.0933C211.618 76.6857 211.116 78.3399 211.096 78.4099C211.054 78.5551 210.934 78.6579 210.795 78.6866Z" fill="#272C3A"/>
<path d="M213.07 65.6063C217.779 64.0858 221.705 59.315 220.792 54.4711C220.645 53.6904 220.12 52.7619 219.334 52.8983C218.08 53.1163 218.216 55.669 216.948 55.5485C217.379 54.1322 217.36 51.9838 215.879 51.8496C215.54 51.8187 215.205 51.9256 214.881 52.0307C212.61 52.7696 210.339 53.508 208.068 54.2464C208.909 53.7628 209.8 53.2272 210.21 52.3501C210.619 51.4729 210.246 50.1786 209.288 50.0152C208.917 49.952 208.541 50.0653 208.182 50.1777C205.35 51.063 202.518 51.9488 199.687 52.8342C197.163 53.6231 194.582 54.442 192.486 56.0498C190.391 57.6577 188.848 60.2427 189.223 62.8496C187.887 61.9938 185.99 62.5476 184.944 63.7387C183.899 64.9297 183.551 66.5771 183.472 68.1567C183.181 74.013 186.341 79.9138 191.387 82.9365C191.649 83.0939 191.939 83.2486 192.244 83.22C192.968 83.1517 193.182 82.2095 193.183 81.4852C193.187 79.1413 192.669 75.5521 192.268 74.4224C191.539 72.3692 189.804 70.0539 191.3 69.1308C192.931 68.1253 194.035 69.6968 195.715 68.9988C198.756 67.7359 197.737 66.0221 200.946 65.4852C204.963 64.8133 208.787 66.9889 213.07 65.6063Z" fill="#774B42"/>
<path d="M214.007 90.7383C214.007 90.7383 208.084 93.767 203.073 91.1546C203.073 91.1546 204.097 97.1341 208.655 96.9926C213.71 96.8356 214.007 90.7383 214.007 90.7383Z" fill="#994F49"/>
<path d="M212.8 91.2444C212.8 91.6229 212.783 92.001 212.733 92.3736C211.744 93.0437 210.611 93.117 209.471 93.3181C209.051 93.3922 208.63 93.4664 208.205 93.4905C206.993 93.5592 205.787 93.2198 204.601 92.8795C204.592 92.5187 204.568 92.1343 204.569 91.7548C207.785 92.7516 211.084 91.8777 212.8 91.2444Z" fill="white"/>
<path d="M205.53 95.8727C205.815 95.4887 206.214 95.1893 206.634 94.9496C207.683 94.3513 208.908 94.0264 210.111 94.1493C210.961 94.2362 211.791 94.5638 212.458 95.0897C211.663 96.117 210.465 96.9364 208.655 96.9928C207.338 97.0337 206.317 96.562 205.53 95.8727Z" fill="#FD4E4C"/>
<path d="M210.088 83.6187C210.622 83.5568 211.19 83.7784 211.609 84.1569C212.036 84.5318 212.326 85.0796 212.381 85.6733C212.425 86.2679 212.226 86.8553 211.866 87.2943C211.514 87.7352 210.989 88.0455 210.452 88.0696C210.902 87.7898 211.229 87.4235 211.453 87.0159C211.669 86.6073 211.784 86.1565 211.744 85.7247C211.715 85.2921 211.528 84.8658 211.248 84.4968C210.961 84.1301 210.578 83.8216 210.088 83.6187Z" fill="#D87B56"/>
<path d="M50.5792 97.1459C50.5792 97.1459 51.1582 98.9466 48.2729 99.7055C45.3877 100.464 43.7322 98.8456 43.7322 98.8456C43.7322 98.8456 44.4683 96.7778 46.8171 96.21C49.1663 95.6418 50.5792 97.1459 50.5792 97.1459Z" fill="white"/>
<path d="M57.4518 94.7681C57.4518 94.7681 58.3538 96.1881 61.1417 95.128C63.861 94.0939 63.5503 91.7295 63.5503 91.7295C63.5503 91.7295 61.9459 90.628 59.7672 91.6703C57.5879 92.7131 57.4518 94.7681 57.4518 94.7681Z" fill="white"/>
<path d="M50.5833 96.9373C50.5833 96.9373 50.9241 98.8226 49.1959 99.4372C47.2219 100.139 46.2509 96.4714 46.2509 96.4714C46.2509 96.4714 48.3826 95.3467 50.5833 96.9373Z" fill="#AE564E"/>
<path d="M63.537 91.6606C63.537 91.6606 63.7674 93.9868 62.2992 94.576C60.3548 95.3562 59.4391 91.8476 59.4391 91.8476C59.4391 91.8476 61.4689 90.3895 63.537 91.6606Z" fill="#AE564E"/>
<path d="M50.4985 97.1078C50.3522 97.1596 50.1832 97.1187 50.0785 96.9931C50.0342 96.9408 48.9974 95.752 46.8963 96.3817C44.654 97.0518 43.9942 98.5827 43.9672 98.6478C43.8872 98.8402 43.6652 98.9326 43.4728 98.8539C43.279 98.7752 43.1858 98.5568 43.264 98.3634C43.2955 98.2852 44.0751 96.4385 46.6779 95.6578C49.2821 94.8771 50.6095 96.4454 50.6644 96.5122C50.7973 96.6737 50.7736 96.9117 50.6113 97.0441C50.5766 97.0723 50.5382 97.0932 50.4985 97.1078Z" fill="#994F49"/>
<path d="M57.4894 94.6871C57.4337 94.7071 57.372 94.7139 57.3099 94.7053C57.1029 94.6762 56.958 94.4874 56.9863 94.2808C56.9982 94.1948 57.2993 92.1643 59.5115 91.1602C62.0307 90.0174 63.5729 91.1648 63.6373 91.2139C63.8032 91.3413 63.8338 91.5788 63.7059 91.7439C63.5779 91.9095 63.3394 91.9396 63.1735 91.8122C63.1251 91.7762 61.9119 90.9036 59.8263 91.8477C58.0063 92.6739 57.7485 94.3144 57.7385 94.3841C57.7175 94.5278 57.6183 94.6416 57.4894 94.6871Z" fill="#994F49"/>
<path d="M113.577 180.323C113.555 180.323 113.533 180.321 113.511 180.318C113.275 180.282 113.113 180.062 113.15 179.828L116.021 161.257C116.381 158.929 116.754 156.522 116.784 154.137C116.854 148.698 115.121 143.281 111.906 138.884C111.766 138.692 111.808 138.423 112.001 138.283C112.194 138.144 112.463 138.186 112.604 138.378C115.928 142.925 117.72 148.525 117.647 154.148C117.616 156.593 117.239 159.03 116.874 161.388L114.003 179.959C113.97 180.171 113.786 180.323 113.577 180.323Z" fill="#AC3156"/>
<path d="M261.182 146.099L239.376 152.797L240.139 155.26L261.945 148.563L261.182 146.099Z" fill="#D4F0FF"/>
<path d="M75.7359 165.474C75.5289 165.474 75.3465 165.325 75.3109 165.115C74.3659 159.521 74.147 153.821 74.6602 148.174C74.6817 147.937 74.8969 147.768 75.129 147.784C75.3666 147.806 75.5416 148.015 75.5202 148.251C75.0134 153.826 75.2291 159.452 76.1622 164.973C76.2015 165.207 76.0429 165.429 75.808 165.468C75.7838 165.472 75.7601 165.474 75.7359 165.474Z" fill="#AC3156"/>
<path d="M60.5403 102.414C60.5403 102.414 56.0151 105.361 51.7457 103.675C51.7457 103.675 53.0819 108.418 56.7512 107.918C60.8195 107.364 60.5403 102.414 60.5403 102.414Z" fill="#994F49"/>
<path d="M59.6081 102.926C59.6401 103.232 59.6593 103.538 59.6501 103.843C58.9085 104.469 58.0001 104.623 57.0962 104.882C56.7631 104.978 56.43 105.073 56.0882 105.128C55.1153 105.286 54.1118 105.114 53.1257 104.939C53.0873 104.649 53.0352 104.341 53.0042 104.034C55.6865 104.567 58.2761 103.582 59.6081 102.926Z" fill="white"/>
<path d="M54.1316 107.278C54.3295 106.943 54.6256 106.668 54.9445 106.439C55.7406 105.867 56.702 105.501 57.684 105.498C58.3781 105.496 59.0768 105.691 59.6603 106.059C59.106 106.956 58.2086 107.719 56.7513 107.918C55.6907 108.062 54.8266 107.768 54.1316 107.278Z" fill="#FD4E4C"/>
<path d="M239.732 159.593C239.504 159.593 239.314 159.415 239.301 159.186L238.021 135.249C238.008 135.012 238.191 134.809 238.429 134.797C238.673 134.778 238.87 134.965 238.883 135.203L240.164 159.14C240.176 159.377 239.994 159.579 239.756 159.592C239.748 159.593 239.74 159.593 239.732 159.593Z" fill="#49516B"/>
<path d="M239.445 154.006C239.397 154.006 239.349 153.999 239.301 153.982C239.076 153.903 238.958 153.658 239.038 153.434L243.8 139.954C243.879 139.73 244.124 139.613 244.351 139.691C244.575 139.77 244.693 140.015 244.615 140.239L239.852 153.719C239.789 153.896 239.623 154.006 239.445 154.006Z" fill="#49516B"/>
<path d="M218.984 147.892C218.385 150.416 217.391 152.838 216.045 155.039C215.731 155.552 215.547 156.146 215.596 156.752C215.83 159.689 220.598 159.022 226.145 161.058C231.378 162.978 239.245 164.165 239.589 161.169C239.932 158.173 238.351 157.969 233.617 155.979C231.62 155.14 230.097 154.323 228.988 152.646C228.271 151.564 228.11 150.498 227.94 148.921C227.684 148.499 227.325 148.038 226.261 148.355C225.806 148.49 225.358 148.639 224.907 148.787C223.465 149.259 221.837 149.031 220.637 148.061C220.369 147.844 220.068 147.671 219.755 147.519C219.436 147.363 219.065 147.548 218.984 147.892Z" fill="#53688C"/>
<path d="M216.054 154.693C216.928 155.621 218.013 157.324 220.846 158.124C224.19 159.069 227.473 159.776 230.63 160.778C233.711 161.757 236.955 161.903 237.44 160.051C237.682 159.127 238.412 158.754 239.082 158.611C240.247 159.231 240.71 160.354 240.154 161.481C238.548 164.734 231.378 162.978 226.145 161.058C220.912 159.137 216.372 159.622 215.679 157.217C215.458 156.453 215.665 155.588 216.054 154.693Z" fill="#FAD2B8"/>
<path d="M67.5084 154.304C67.1525 159.4 72.0729 162.53 76.6708 164.797C81.2692 167.065 85.6889 169.854 87.2219 174.729C85.0592 175.257 84.0159 173.86 82.0972 172.735C80.1784 171.61 77.1602 171.226 76.1974 173.225C75.931 173.779 75.894 174.417 75.6564 174.983C74.8124 176.996 71.9738 177.203 69.8969 176.509C67.8201 175.815 65.8159 174.543 63.6343 174.744C61.1435 174.972 59.2375 177.074 58.0499 179.265C56.8623 181.457 56.1028 183.906 54.5355 185.847C51.2513 189.915 44.4756 190.534 40.5024 187.13C36.8467 183.998 35.3493 178.147 30.6888 176.913C28.7115 176.39 26.2984 176.765 24.8992 175.279C24.3353 174.68 24.0529 173.863 23.9469 173.049C23.3812 168.702 27.2881 165.152 31.0004 162.796C34.7127 160.441 39.0049 157.919 39.9572 153.64L67.5084 154.304Z" fill="#FFB564"/>
<path d="M38.2732 180.089C38.143 180.089 38.0146 180.03 37.9296 179.919C37.7852 179.73 37.8218 179.461 38.0114 179.317C39.4892 178.197 40.9748 176.834 40.7934 175.218C40.6471 173.912 39.4659 172.84 37.1839 171.942C35.3446 171.219 33.276 170.405 32.5695 168.481C32.1085 167.225 32.3936 165.646 33.3317 164.256C34.4481 162.605 36.1356 161.509 37.7678 160.449C38.1901 160.175 38.6118 159.901 39.0227 159.618C41.4893 157.92 42.7825 156.122 42.8666 154.272C42.8771 154.035 43.0731 153.841 43.3171 153.862C43.5552 153.873 43.7393 154.074 43.7284 154.311C43.6315 156.443 42.2136 158.466 39.5134 160.325C39.0962 160.612 38.668 160.89 38.239 161.168C36.6789 162.182 35.0659 163.229 34.0473 164.736C33.2627 165.897 33.0132 167.187 33.3797 168.185C33.9532 169.747 35.8299 170.485 37.4864 171.137C40.1079 172.168 41.4655 173.47 41.6511 175.123C41.88 177.165 40.2039 178.734 38.5342 180C38.4565 180.06 38.3646 180.089 38.2732 180.089Z" fill="#D17742"/>
<path d="M62.5069 169.687C62.3405 169.687 62.1829 169.592 62.1116 169.431C61.6437 168.373 60.8559 167.437 59.8926 166.794C59.4494 166.497 59.0505 166.32 58.6735 166.254C58.0228 166.137 57.3433 166.325 56.6245 166.522C56.4527 166.57 56.2808 166.617 56.1095 166.66C53.4523 167.326 50.7741 166.868 48.9453 165.434C46.9352 163.857 45.8193 157.562 47.1358 155.227C47.2519 155.02 47.5155 154.948 47.7234 155.063C47.9314 155.179 48.0054 155.441 47.8884 155.648C46.7963 157.584 47.8226 163.459 49.4795 164.759C51.099 166.029 53.4984 166.427 55.8988 165.825C56.0633 165.784 56.2292 165.738 56.3946 165.693C57.1737 165.479 57.9793 165.256 58.8238 165.407C59.3219 165.494 59.8282 165.715 60.3733 166.08C61.4705 166.812 62.3684 167.878 62.9017 169.083C62.9976 169.301 62.8985 169.554 62.6805 169.65C62.6243 169.676 62.5649 169.687 62.5069 169.687Z" fill="#D17742"/>
<path d="M67.6212 152.416C67.6212 152.416 54.9302 155.279 39.6131 151.843L39.4211 154.898C39.4211 154.898 44.1639 156.911 53.4405 156.911C62.7172 156.911 67.6212 155.472 67.6212 155.472V152.416Z" fill="#FD5553"/>
</svg>
