<svg width="399" height="350" viewBox="0 0 399 350" fill="none" xmlns="http://www.w3.org/2000/svg">
<path d="M228.346 167.31C231.657 168.094 234.459 170.741 235.43 174.002C235.57 174.471 235.674 174.976 235.536 175.446C235.398 175.916 234.945 176.325 234.46 176.257C234.152 176.213 233.901 175.997 233.669 175.79C233.096 175.28 232.482 174.693 232.415 173.929C232.902 174.852 233.234 175.855 233.394 176.886C233.544 177.844 233.521 178.902 232.948 179.685C232.801 179.885 232.606 180.07 232.361 180.111C231.84 180.199 231.465 179.637 231.24 179.159C230.823 178.275 230.407 177.391 229.991 176.507C230.397 178.506 229.973 180.66 228.84 182.356C228.596 182.721 228.308 183.077 227.912 183.266C227.516 183.455 226.99 183.433 226.693 183.111C226.391 182.785 226.409 182.284 226.447 181.841C226.624 179.704 226.802 177.566 226.98 175.429C226.98 176.448 226.624 177.464 225.988 178.26C225.575 178.778 224.658 179.149 224.348 178.564C224.145 178.181 224.424 177.734 224.638 177.356C225.724 175.434 224.996 172.704 223.096 171.579C221.197 170.454 218.453 171.125 217.288 173C218.625 170.85 219.338 169.298 221.727 168.113C223.755 167.107 226.136 166.786 228.346 167.31Z" fill="#E38D49"/>
<path d="M191.83 153.183C189.527 151.743 187.285 150.928 184.571 151.049C182.64 151.135 180.418 151.845 178.967 153.123C178.817 153.254 178.665 153.422 178.676 153.621C178.689 153.873 178.949 154.031 179.183 154.125C179.886 154.408 180.653 154.53 181.409 154.477C180.045 154.788 178.657 155.11 177.456 155.826C176.255 156.542 175.25 157.732 175.119 159.125C175.082 159.517 175.128 159.948 175.39 160.243C175.66 160.546 176.095 160.637 176.499 160.662C179.425 160.844 181.93 158.552 184.818 158.048C183.835 158.309 182.928 158.844 182.223 159.577C181.901 159.911 181.616 160.445 181.905 160.809C182.14 161.103 182.591 161.069 182.958 160.985C184.276 160.683 185.527 160.092 186.598 159.267C185.732 159.766 184.966 160.436 184.356 161.228C184.268 161.343 184.179 161.471 184.181 161.616C184.186 161.947 184.617 162.074 184.948 162.061C185.955 162.018 186.899 161.573 187.784 161.09C188.669 160.606 189.543 160.07 190.519 159.817C191.496 159.565 192.62 159.641 193.392 160.289C194.142 160.918 195.966 163.571 195.308 164.345C197.11 160.525 195.173 155.274 191.83 153.183Z" fill="#E38D49"/>
<path d="M161.12 183.096C161.12 183.096 160.897 180.421 161.737 178.251C162.794 175.521 164.82 173.847 164.379 172.702C163.872 171.384 161.913 173.495 160.68 175.521C160.68 175.521 159.183 173.143 159.447 170.5C159.711 167.858 160.239 166.713 159.447 165.92C158.654 165.127 157.685 168.034 157.421 170.148C157.156 172.262 157.333 173.143 157.333 173.143C157.333 173.143 156.892 171.469 156.892 169.59C156.892 167.82 157.157 165.128 156.188 164.599C155.219 164.071 154.954 167.564 154.778 169.59C154.602 171.616 154.778 173.349 154.778 173.349C154.778 173.349 154.403 170.97 154.309 169.649C154.191 168.005 154.485 166.742 153.956 166.126C153.428 165.51 152.802 166.975 152.664 169.18C152.488 171.998 152.917 173.898 152.899 173.818C152.157 172.569 152.224 169.091 151.49 169.121C150.916 169.144 150.826 170.706 150.903 172.291C150.991 174.112 151.607 176.754 152.664 178.633C153.709 180.49 154.514 181.951 155.131 183.977C155.747 186.002 161.561 183.36 161.561 183.36L161.12 183.096Z" fill="#FEC08F"/>
<path d="M160.831 175.491C159.761 175.779 158.881 176.371 158.217 177.162C157.552 177.951 157.117 178.917 157.013 180.02C156.848 179.487 156.864 178.893 157.013 178.34C157.159 177.783 157.445 177.265 157.813 176.822C158.189 176.384 158.651 176.015 159.175 175.777C159.694 175.535 160.276 175.419 160.831 175.491Z" fill="#D87B56"/>
<path d="M158.457 172.361C157.326 172.404 156.236 172.615 155.213 173.025C154.187 173.428 153.249 174.022 152.396 174.765C153.044 173.83 154.017 173.123 155.083 172.697C156.152 172.277 157.344 172.125 158.457 172.361Z" fill="#D87B56"/>
<path d="M239.281 184.764C239.281 184.764 239.504 182.09 238.665 179.92C237.607 177.19 235.582 175.516 236.022 174.371C236.529 173.053 238.488 175.163 239.722 177.189C239.722 177.189 241.219 174.811 240.955 172.169C240.69 169.526 240.162 168.381 240.955 167.589C241.747 166.796 242.716 169.703 242.98 171.817C243.245 173.931 243.068 174.811 243.068 174.811C243.068 174.811 243.509 173.138 243.509 171.258C243.509 169.488 243.244 166.796 244.213 166.267C245.182 165.739 245.446 169.233 245.623 171.258C245.799 173.284 245.623 175.016 245.623 175.016C245.623 175.016 245.998 172.638 246.092 171.317C246.21 169.673 245.916 168.411 246.445 167.794C246.973 167.178 247.599 168.643 247.737 170.848C247.913 173.667 247.484 175.566 247.502 175.487C248.244 174.237 248.177 170.759 248.911 170.789C249.485 170.812 249.575 172.374 249.498 173.96C249.41 175.78 248.794 178.422 247.737 180.301C246.692 182.158 245.887 183.619 245.27 185.645C244.654 187.671 238.841 185.028 238.841 185.028L239.281 184.764Z" fill="#FFCCA9"/>
<path d="M239.571 177.16C240.125 177.087 240.708 177.204 241.227 177.445C241.751 177.683 242.213 178.052 242.588 178.489C242.957 178.933 243.242 179.451 243.388 180.008C243.538 180.56 243.554 181.154 243.389 181.688C243.285 180.584 242.85 179.619 242.185 178.829C241.52 178.04 240.641 177.448 239.571 177.16Z" fill="#D87B56"/>
<path d="M241.944 174.029C243.058 173.793 244.249 173.945 245.318 174.366C246.385 174.792 247.357 175.498 248.006 176.434C247.152 175.69 246.214 175.097 245.189 174.693C244.166 174.283 243.075 174.072 241.944 174.029Z" fill="#D87B56"/>
<path d="M33.5082 341.628C33.5082 341.628 30.1715 349.413 37.4007 349.969C44.6299 350.525 47.4102 343.297 50.1905 340.516C52.9708 337.736 53.845 334.466 52.2957 331.652C50.7464 328.838 43.5172 331.062 43.5172 331.062L33.5082 341.628Z" fill="#AE564E"/>
<path d="M87.4163 90.521C81.978 89.841 76.484 90.7435 71.0108 91.0217C65.5372 91.2999 59.7434 90.8583 55.1634 87.848C50.5835 84.8376 47.7696 78.5878 50.1552 73.6537C52.0648 69.7046 56.9234 66.8188 56.4448 62.4583C56.031 58.6858 51.5584 55.97 52.0229 52.2033C52.4216 48.9704 56.1521 47.3712 57.9288 44.6408C60.2799 41.0282 58.8277 36.2552 59.3059 31.9715C60.1302 24.5856 67.8738 18.7393 75.2027 19.969C85.2846 16.1661 97.4346 22.4702 99.5796 33.0299C100.199 36.0791 100.071 39.3274 101.364 42.1572C103.699 47.2674 110.466 51.0235 109.11 56.4755C108.174 60.2383 103.45 62.5934 103.603 66.4678C103.699 68.879 105.697 70.7118 106.887 72.8108C109.382 77.2115 108.131 83.0446 104.903 86.9393C101.674 90.8354 92.436 91.1484 87.4163 90.521Z" fill="#AE564E"/>
<path d="M347.695 67.4794C349.363 67.4794 377.168 63.5869 381.616 60.2502C386.065 56.9136 376.054 22.6708 376.054 22.6708L386.065 19.1001C386.065 19.1001 403.859 58.0258 396.074 68.0353C388.289 78.0448 351.588 86.3861 351.588 86.3861L347.695 67.4794Z" fill="#FFBE8C"/>
<path d="M310.129 10.9414C307.328 16.4084 307.301 23.2106 310.058 28.7002C310.291 29.1651 310.561 29.6406 310.999 29.9214C311.438 30.2023 312.091 30.2137 312.423 29.8128C312.634 29.5581 312.671 29.2057 312.697 28.8759C312.918 26.108 312.993 23.3064 313.679 20.6162C314.411 17.7471 315.839 15.0587 317.807 12.8462L310.129 10.9414Z" fill="#774B42"/>
<path d="M353.918 301.785C353.918 301.785 363.515 312.94 361.504 316.245C359.494 319.549 352.838 328.566 349.855 332.326C346.873 336.086 344.863 339.39 346.775 339.677C348.688 339.964 359.904 333.533 363.113 330.258C366.323 326.983 378.738 320.581 378.317 318.415C377.896 316.248 368.27 298.343 368.27 298.343L353.918 301.785Z" fill="#D8B695"/>
<path d="M344.096 337.511C344.096 337.511 345.29 341.173 349.164 341.821C352.562 342.389 359.779 341.176 365.932 335.895C372.084 330.614 382.684 328.357 384.813 323.738C386.256 320.609 380.466 317.864 380.466 317.864C380.466 317.864 350.14 338.553 344.096 337.511Z" fill="#B6B7D3"/>
<path d="M358.745 318.243C356.32 319.553 356.654 325.246 353.042 327.98C349.429 330.715 345.301 331.77 344.301 334.268C343.302 336.765 343.817 338.445 345.545 339.469C347.273 340.493 357.675 338.006 362.918 333.216C368.161 328.426 380.953 323.333 382.382 319.961C383.242 317.93 378.403 311.147 376.397 311.057C374.39 310.966 371.063 317.853 368.499 319.63C365.935 321.406 360.866 317.097 358.745 318.243Z" fill="#7D8FB1"/>
<path d="M300.799 306.595C300.799 306.595 304.762 320.766 301.54 322.907C298.319 325.048 288.468 330.393 284.173 332.534C279.878 334.675 276.656 336.816 278.267 337.886C279.878 338.956 292.763 337.886 297.057 336.28C301.353 334.675 315.311 334.139 315.847 331.998C316.384 329.857 315.256 309.561 315.256 309.561L300.799 306.595Z" fill="#D8B695"/>
<path d="M300.058 149.409C300.058 149.409 285.97 197.974 288.936 243.943C291.81 288.491 298.204 318.088 298.204 318.088L319.335 317.717C319.335 317.717 316.74 240.236 326.008 199.457C326.008 199.457 326.749 258.031 356.778 314.381L374.202 306.966C374.202 306.966 357.52 245.797 361.227 205.018C364.252 171.739 355.666 149.41 355.666 149.41L300.058 149.409Z" fill="#53688C"/>
<path d="M44.3937 124.451L21.5975 163.175L27.4363 166.789C27.4363 166.789 49.3962 141.962 53.1484 129.871C56.9009 117.781 44.3937 124.451 44.3937 124.451Z" fill="#FFCCA9"/>
<path d="M289.768 78.0938C289.768 78.0938 279.582 119 276.658 124.907C273.734 130.814 256.188 155.622 256.188 155.622L261.062 163.892C261.062 163.892 285.899 137.205 288.657 131.478C294.814 118.688 304.227 90.3277 304.227 90.3277L289.768 78.0938Z" fill="#FFBE8C"/>
<path d="M332.959 31.0562L334.325 61.5504L346.976 64.9564C346.976 64.9564 335.202 81.3905 324.652 84.7687C314.102 88.1468 311.828 64.6989 311.828 64.6989L318.779 63.0308L318.794 44.9506L332.959 31.0562Z" fill="#FFB176"/>
<g opacity="0.24">
<path d="M333.699 47.8802L332.959 34.3928L318.792 48.2039L318.786 54.9231C322.609 55.5399 330.164 54.6303 333.699 47.8802Z" fill="#994F49"/>
</g>
<path d="M336.563 32.7919C337.003 31.6753 337.812 30.6867 338.868 29.9736C339.626 29.4623 340.661 29.0879 341.565 29.4553C342.706 29.9189 342.964 31.2487 342.867 32.3283C342.653 34.7099 341.506 36.9798 339.663 38.6682C339.353 38.9521 338.986 39.2347 338.53 39.2532C337.755 39.2846 337.19 38.5653 336.913 37.9136C336.636 37.2619 336.405 36.5083 335.72 36.1537L336.563 32.7919Z" fill="#FFBE8C"/>
<path d="M340.863 31.4595C340.729 32.0608 340.407 32.6247 339.975 33.0865C339.545 33.5532 338.996 33.9148 338.393 34.1391L338.429 33.6168C339.013 33.9312 339.455 34.461 339.677 35.0584C339.903 35.6505 339.92 36.3265 339.672 36.881C339.684 36.2792 339.535 35.7233 339.272 35.2429C339.005 34.767 338.625 34.3621 338.161 34.1237L337.576 33.823L338.197 33.6013C338.727 33.4124 339.219 33.1187 339.667 32.7602C340.114 32.396 340.509 31.9611 340.863 31.4595Z" fill="#AD6C58"/>
<path d="M326.667 7.04367C339.069 8.42565 340.09 20.8803 339.267 25.0554C338.758 27.6388 338.146 29.4588 337.287 33.8971C336.469 38.1313 332.058 52.8908 320.888 51.9932C309.465 51.0752 309.842 34.8252 309.743 29.944C309.672 26.4533 310.024 24.5508 310.716 20.6295C311.967 13.5395 315.586 5.80915 326.667 7.04367Z" fill="#FFBE8C"/>
<path d="M311.344 30.0949C311.211 28.9019 310.69 27.7367 309.856 26.772C309.258 26.0801 308.357 25.4483 307.389 25.5666C306.166 25.7158 305.57 26.9323 305.381 27.999C304.965 30.3537 305.478 32.8443 306.816 34.9562C307.041 35.3112 307.322 35.6803 307.757 35.8172C308.497 36.0498 309.23 35.5037 309.668 34.9469C310.106 34.3901 310.526 33.723 311.279 33.5601L311.344 30.0949Z" fill="#FFBE8C"/>
<path d="M307.542 27.6846C307.752 28.2612 308.02 28.7844 308.356 29.252C308.695 29.7156 309.094 30.1276 309.556 30.4485L310.097 30.8247L309.453 30.962C308.943 31.0711 308.471 31.3625 308.088 31.7519C307.709 32.1467 307.42 32.6447 307.273 33.2284C307.179 32.6284 307.372 31.9807 307.746 31.468C308.115 30.9492 308.681 30.5536 309.327 30.4031L309.225 30.9166C308.701 30.5421 308.266 30.0498 307.973 29.4869C307.678 28.9288 307.514 28.3005 307.542 27.6846Z" fill="#AD6C58"/>
<path d="M321.767 30.9658C321.977 33.3081 317.717 34.1188 317.898 36.4637C317.997 37.7468 319.645 38.4935 320.832 37.9959C322.019 37.4983 322.668 36.1507 322.719 34.8645C322.77 33.5784 322.336 32.3284 321.909 31.1146L321.767 30.9658Z" fill="#FF9971"/>
<path d="M329.944 28.1165C328.389 27.7907 326.943 29.0866 326.505 30.6134L329.944 28.1165Z" fill="white"/>
<path d="M326.344 22.8818C326.469 23.035 326.67 23.1189 326.88 23.0849C327.023 23.062 330.43 22.5591 332.174 25.8264C332.322 26.1059 332.669 26.2105 332.948 26.0621C333.227 25.9134 333.333 25.5663 333.184 25.2873C331.048 21.283 326.737 21.948 326.694 21.9546C326.382 22.0067 326.171 22.3012 326.223 22.6134C326.24 22.7158 326.283 22.8072 326.344 22.8818Z" fill="#774B42"/>
<path d="M318.795 22.6204C318.885 22.5652 318.96 22.4848 319.009 22.3833C319.147 22.0985 319.029 21.7559 318.744 21.6181C317.6 21.0627 315.277 20.4896 312.569 22.8778L312.498 22.9401C312.233 23.1127 312.172 23.4571 312.345 23.722C312.517 23.9869 312.894 24.0412 313.152 23.8792C313.179 23.8615 313.24 23.8134 313.327 23.7366C314.989 22.2685 316.689 21.8936 318.244 22.6482C318.427 22.7374 318.634 22.7197 318.795 22.6204Z" fill="#774B42"/>
<path d="M325.967 29.9595C325.967 29.9595 325.78 31.8598 328.777 32.0002C331.775 32.1406 333.06 30.1931 333.06 30.1931C333.06 30.1931 331.897 28.3064 329.468 28.2415C327.038 28.1762 325.967 29.9595 325.967 29.9595Z" fill="white"/>
<path d="M318.706 29.0624C318.706 29.0624 318.121 30.655 315.155 30.1962C312.262 29.7489 312.067 27.3488 312.067 27.3488C312.067 27.3488 313.411 25.9227 315.774 26.4922C318.137 27.0618 318.706 29.0624 318.706 29.0624Z" fill="white"/>
<path d="M325.919 29.7547C325.919 29.7547 325.984 31.6886 327.813 31.9305C329.903 32.2074 330.08 28.3802 330.08 28.3802C330.08 28.3802 327.745 27.7196 325.919 29.7547Z" fill="#994F49"/>
<path d="M312.065 27.2776C312.065 27.2776 312.331 29.6234 313.9 29.895C315.977 30.2552 316.134 26.5972 316.134 26.5972C316.134 26.5972 313.829 25.5861 312.065 27.2776Z" fill="#994F49"/>
<path d="M326.039 29.9046C326.193 29.9249 326.351 29.849 326.427 29.7028C326.46 29.6419 327.228 28.2489 329.427 28.4273C331.773 28.6158 332.747 29.9885 332.787 30.0468C332.907 30.2199 333.144 30.264 333.317 30.1461C333.491 30.0274 333.536 29.792 333.419 29.6176C333.371 29.5474 332.213 27.8881 329.489 27.6665C326.763 27.4453 325.79 29.2737 325.75 29.3518C325.654 29.5395 325.728 29.7695 325.915 29.8658C325.955 29.8865 325.997 29.8989 326.039 29.9046Z" fill="#272C3A"/>
<path d="M318.652 28.9898C318.712 28.9978 318.773 28.9916 318.833 28.9699C319.03 28.8975 319.133 28.6803 319.061 28.4825C319.032 28.3999 318.305 26.4585 315.917 25.934C313.198 25.337 311.925 26.7954 311.872 26.8577C311.736 27.0188 311.756 27.2595 311.917 27.3954C312.079 27.5323 312.319 27.5116 312.455 27.3504C312.495 27.3045 313.503 26.187 315.753 26.6793C317.718 27.1111 318.32 28.6768 318.344 28.743C318.394 28.8807 318.516 28.9721 318.652 28.9898Z" fill="#272C3A"/>
<path d="M324.896 75.8207C336.156 74.4303 339.076 62.8918 339.076 62.8918L355.202 63.0309C355.202 63.0309 360.763 75.8207 360.485 83.6062C359.685 106.017 362.329 155.205 362.801 167.809C362.801 167.809 342.765 170.762 327.808 170.434C312.644 170.102 292.364 165.955 292.364 165.955C292.364 165.955 297.012 137.494 297.603 111.548C298.003 93.9729 291.685 75.8944 296.257 70.2601C300.677 64.8134 312.604 64.2857 312.604 64.2857C312.604 64.2857 320.935 76.3099 324.896 75.8207Z" fill="#74AAB7"/>
<path d="M97.7049 144.098L69.8369 144.743C69.0447 120.158 57.954 81.4742 57.954 81.4742C57.954 81.4742 75.3087 76.0941 75.9997 74.5179C77.3817 71.3658 76.6845 57.8665 76.6845 57.8665L89.0575 63.8094C89.0575 63.8094 88.0941 74.9907 89.8218 75.7789C94.4163 77.8748 101.916 79.8776 101.916 79.8776C104.217 87.8684 108 95.4128 109.469 103.565C109.677 104.722 109.877 105.908 109.636 107.06C109.328 108.534 108.335 109.797 107.462 111.068C101.634 119.556 98.6979 134.123 97.7049 144.098Z" fill="#FFCCA9"/>
<g opacity="0.49">
<mask id="mask0_956_2372" style="mask-type:luminance" maskUnits="userSpaceOnUse" x="78" y="62" width="14" height="10">
<path d="M91.7243 71.6269C91.7243 71.6269 84.1198 72.8473 78.9372 67.7141L78.523 62.2744L91.4978 65.9276L91.7243 71.6269Z" fill="white"/>
</mask>
<g mask="url(#mask0_956_2372)">
<path d="M81.7153 73.233L79.5425 71.4863L79.8701 73.5293L81.7153 73.233Z" fill="#C77D4F"/>
</g>
<mask id="mask1_956_2372" style="mask-type:luminance" maskUnits="userSpaceOnUse" x="78" y="62" width="14" height="10">
<path d="M91.7243 71.6269C91.7243 71.6269 84.1198 72.8473 78.9372 67.7141L78.523 62.2744L91.4978 65.9276L91.7243 71.6269Z" fill="white"/>
</mask>
<g mask="url(#mask1_956_2372)">
<path d="M85.554 61.1464L91.4969 65.9237L90.6002 60.3362L85.554 61.1464Z" fill="#DE8B58"/>
</g>
</g>
<g opacity="0.24">
<path d="M88 69.2698C88.211 69.2517 88.57 69.1965 88.7793 69.1616C88.8839 67.2423 89.0226 63.9136 89.0226 63.9136L76.6342 57.8403C76.6342 57.8403 76.7918 60.2789 76.8739 63.3197C79.5738 67.0255 83.5304 69.6517 88 69.2698Z" fill="#994F49"/>
</g>
<path d="M14.4486 176.168C13.951 176.783 12.9567 177.433 12.5227 176.772C12.4238 176.621 12.3965 176.435 12.3819 176.256C12.2494 174.58 13.1642 172.864 14.6306 172.04C10.8497 171.985 6.26093 172.177 3.17773 174.366C2.56356 174.803 1.57852 175.393 1.13523 174.784C0.180197 173.471 5.26311 170.474 9.17153 169.759C5.79692 169.439 1.2191 173.796 0.450834 173.357C-0.553205 172.784 0.651284 171.111 1.43986 170.265C3.26117 168.313 5.35093 167.916 8.1776 166.583C5.23392 166.99 0.847799 171.409 0.327677 170.822C-1.03135 169.286 2.16399 166.594 3.93408 165.559C6.08742 164.3 8.53391 163.548 11.0224 163.378C14.8875 163.114 19.1218 164.158 22.4143 162.117C22.7984 161.879 23.2519 161.591 23.6665 161.77C24.0082 161.919 28.5926 160.76 28.6845 161.121C30.7663 169.295 18.7942 170.796 14.4486 176.168Z" fill="#FFCCA9"/>
<path d="M115.991 121.581L137.254 157.018L130.583 161.187C130.583 161.187 110.988 139.091 107.236 127.001C103.484 114.91 115.991 121.581 115.991 121.581Z" fill="#FFCCA9"/>
<path d="M145.936 173.297C146.434 173.912 147.429 174.563 147.862 173.901C147.961 173.751 147.988 173.565 148.003 173.385C148.135 171.709 147.22 169.994 145.754 169.17C149.535 169.115 153.963 169.744 157.046 171.933C157.66 172.369 158.645 172.959 159.088 172.35C160.044 171.037 154.64 167.484 151.213 166.888C154.588 166.568 159.119 171.487 159.887 171.048C160.891 170.474 159.687 168.802 158.898 167.956C157.077 166.004 155.034 165.045 152.207 163.712C155.151 164.119 159.731 167.865 160.251 167.277C161.61 165.741 158.221 163.723 156.451 162.688C154.297 161.429 151.851 160.676 149.362 160.507C145.497 160.243 141.667 160.49 138.375 158.449C137.991 158.21 132.397 149.551 132.397 149.551C132.397 149.551 130.214 156.41 130.173 156.78C129.06 166.789 141.591 167.925 145.936 173.297Z" fill="#FFCCA9"/>
<path d="M71.5641 46.7323C71.4771 45.4647 69.4752 45.2108 68.6248 46.1544C67.7744 47.0979 67.8013 48.5205 67.9316 49.7842C68.1453 51.8598 68.9807 53.629 70.5517 55.0026C72.1231 56.3758 74.74 56.6146 75.3886 54.6313L71.5641 46.7323Z" fill="#FFCCA9"/>
<path d="M83.0664 29.5803C93.4176 27.7205 99.0206 33.5708 99.4785 45.27C99.8396 54.4931 96.1224 62.7237 90.5887 64.337C82.601 66.6661 74.1982 57.7048 72.4189 49.4089C70.0258 38.2506 77.6784 30.5485 83.0664 29.5803Z" fill="#FFCCA9"/>
<path d="M82.9176 40.7337C82.745 40.8317 82.526 40.8374 82.3427 40.7297C82.216 40.656 79.2074 38.9499 76.3896 41.3783C76.1494 41.5863 75.786 41.5585 75.5785 41.3183C75.3714 41.0776 75.3979 40.7147 75.6386 40.5072C79.0918 37.5308 82.888 39.7164 82.926 39.7385C83.1993 39.9001 83.2903 40.2529 83.1287 40.5266C83.0757 40.6158 83.0024 40.6856 82.9176 40.7337Z" fill="#774B42"/>
<path d="M90.198 39.5301C90.0929 39.5222 89.9887 39.4851 89.8977 39.4171C89.6434 39.2268 89.5913 38.8661 89.7816 38.6122C90.5472 37.5896 92.3566 36.0072 95.8734 36.8915L95.9657 36.9141C96.2818 36.9458 96.4946 37.2253 96.4624 37.5415C96.4306 37.8572 96.1193 38.0797 95.8146 38.0532C95.7824 38.0501 95.7056 38.0351 95.5922 38.0068C93.4326 37.4624 91.742 37.911 90.7022 39.301C90.5799 39.4648 90.3874 39.5447 90.198 39.5301Z" fill="#774B42"/>
<path d="M73.4397 52.2285C72.584 49.7847 72.5112 49.7237 72.1138 47.2039C71.7146 44.6731 71.9738 42.3162 73.4441 40.2176C74.6451 38.5031 77.0563 38.3151 79.0277 36.326C81.831 33.4975 84.4854 23.6315 77.9521 23.3313C74.5819 23.1768 70.6219 24.6599 68.2244 27.2764C65.8264 29.8929 64.9522 34.272 65.7827 37.7225C66.4207 40.3726 65.6869 43.8686 67.0322 46.2396C68.4813 46.9456 71.1857 49.0513 73.4397 52.2285Z" fill="#AE564E"/>
<path d="M99.4922 47.5659C100.416 42.1346 102.11 34.4621 98.2996 27.5637C94.483 20.6529 81.2084 17.3701 78.093 24.1246C74.978 30.8774 91.1495 33.1751 95.1392 34.1919C98.5645 35.0648 98.8794 40.6462 99.2719 44.4345L99.4922 47.5659Z" fill="#AE564E"/>
<path d="M79.6005 21.8091C80.2893 25.3011 82.7048 28.2819 85.8061 29.659C88.9026 31.0269 93.317 30.6865 95.9962 32.2102C98.1579 33.3763 99.9921 35.5923 99.3867 37.9514C99.5532 36.78 99.1677 35.6117 98.4595 34.7132C94.6006 29.6922 87.7732 33.1723 82.6594 28.0779C80.8619 26.2694 79.8173 24.0481 79.6005 21.8091Z" fill="#774B42"/>
<path d="M69.6474 50.3547C69.9459 50.6766 70.2681 50.9473 70.6196 51.1627C70.9719 51.3742 71.3495 51.5354 71.7433 51.6188L72.2047 51.7164L71.8184 51.9857C71.5124 52.1994 71.2815 52.5226 71.138 52.8856C70.9971 53.2516 70.9446 53.66 71.0108 54.0857C70.7821 53.7161 70.7296 53.2353 70.8333 52.7933C70.9331 52.3487 71.1958 51.9306 71.5804 51.6515L71.6555 52.0189C71.206 51.9173 70.7825 51.7133 70.4329 51.4237C70.0827 51.1376 69.8002 50.7684 69.6474 50.3547Z" fill="#AD6C58"/>
<path d="M87.3607 45.418C87.3607 45.418 86.8313 48.4372 88.1299 50.1313C89.4288 51.8259 90.8784 51.0603 91.3111 50.4214C91.7438 49.7825 91.7407 48.3246 90.3675 47.6861C88.6853 46.9042 88.1263 46.868 87.3607 45.418Z" fill="#FFBE8C"/>
<path d="M260.815 172.025C260.577 173.054 259.763 174.417 258.855 173.876C258.649 173.753 258.507 173.546 258.385 173.339C257.246 171.403 257.343 168.81 258.622 166.964C254.05 169.106 250.189 172.734 247.766 177.163C247.283 178.046 246.446 179.33 245.557 178.857C243.644 177.839 247.311 170.102 250.734 167.413C246.495 169.001 243.928 177.554 242.75 177.476C241.21 177.374 241.678 174.662 242.131 173.186C243.177 169.778 245.307 167.399 247.923 164.148C244.626 166.356 241.077 173.563 240.11 173.161C237.581 172.111 240.471 167.707 241.991 165.431C243.841 162.661 246.339 160.327 249.227 158.67C253.714 156.095 259.408 154.874 262.168 150.5C262.49 149.989 262.867 149.379 263.469 149.353C263.966 149.331 264.37 149.73 264.692 150.11C271.968 158.709 262.894 163.037 260.815 172.025Z" fill="#FFBE8C"/>
<path d="M193.592 195.971C193.592 195.971 194.568 200.153 192.454 205.437C192.454 205.437 192.8 209.182 197.556 209.182C202.312 209.182 203.993 205.993 203.993 205.993C203.993 205.993 201.255 202.84 201.784 195.706L193.592 195.971Z" fill="#FEC08F"/>
<path d="M192.623 204.426C192.623 204.426 193.945 207.596 197.908 207.596C201.871 207.596 203.193 204.161 203.193 204.161C203.193 204.161 214.819 207.332 225.916 200.462C237.014 193.592 238.863 184.345 238.863 184.345L245.733 185.402C245.733 185.402 244.125 199.738 232.499 208.986C220.873 218.233 211.852 219.369 211.852 219.369L211.018 243.133C211.018 243.133 200.908 246.077 197.677 246.052C194.289 246.025 184.544 242.925 184.544 242.925L183.376 218.43C183.376 218.43 170.693 217.109 163.295 206.54C155.897 195.971 154.901 184.06 154.901 184.06L161.243 181.946C161.243 181.946 163.03 195.443 173.864 200.992C184.697 206.539 192.623 204.426 192.623 204.426Z" fill="#FFB564"/>
<path d="M192.624 204.426C192.624 204.426 193.768 207.597 197.908 207.597C202.048 207.597 203.193 204.162 203.193 204.162L205.483 204.69C205.483 204.69 204.426 209.975 198.084 210.239C191.743 210.503 190.091 204.742 190.091 204.742L192.624 204.426Z" fill="#5CCCAC"/>
<path d="M238.841 184.147L245.733 185.402L245.27 188.111L238.224 186.614L238.841 184.147Z" fill="#5CCCAC"/>
<path d="M154.901 184.059L161.243 181.945L161.886 184.609L155.335 186.669L154.901 184.059Z" fill="#5CCCAC"/>
<path d="M184.941 178.455C184.941 178.455 183.893 169.965 190.51 164.753C197.219 159.468 206.203 165.325 206.203 165.325C206.203 165.325 216.373 167.19 218.761 175.961C221.15 184.733 209.717 194.026 209.717 194.026L184.941 178.455Z" fill="#E38D49"/>
<path d="M216.781 169.604C214.698 170.269 217.714 173.194 217.714 173.194C217.714 173.194 214.371 171.391 214.354 173.578C214.339 175.652 217.839 174.431 217.839 174.431C217.839 174.431 215.432 177.202 217.538 177.688C219.952 178.245 219.485 174.817 219.485 174.817C219.485 174.817 221 177.938 222.646 176.45C224.386 174.877 220.707 173.634 220.707 173.634C220.707 173.634 225.158 173.151 223.878 171.228C222.577 169.276 220.118 172.521 220.118 172.521C220.118 172.521 221.991 169.276 220.515 168.869C219.038 168.461 218.768 171.754 218.768 171.754C218.768 171.754 218.322 169.113 216.781 169.604Z" fill="#B3E2FF"/>
<path d="M217.988 173.304C218.033 172.679 218.576 172.208 219.201 172.253C219.826 172.299 220.296 172.842 220.251 173.467C220.206 174.092 219.663 174.562 219.038 174.517C218.413 174.472 217.943 173.929 217.988 173.304Z" fill="#FF4545"/>
<path d="M205.846 169.931C194.795 164.665 189.99 170.803 188.625 173.325C187.55 175.312 186.338 178.688 184.773 181.763C182.762 185.715 182.889 197.059 192.596 199.777C201.063 202.148 207.324 198.073 210.595 190.895C213.233 185.109 216.598 175.053 205.846 169.931Z" fill="#FEC08F"/>
<path d="M197.428 187.092C197.106 186.693 196.757 186.331 196.385 186.016C196.293 185.939 196.196 185.864 196.107 185.812C196.029 185.772 195.917 185.74 195.823 185.729C195.629 185.708 195.448 185.722 195.278 185.795C194.933 185.922 194.634 186.228 194.368 186.598C194.095 186.969 193.885 187.413 193.606 187.875C193.51 187.344 193.573 186.798 193.789 186.281C194.004 185.775 194.423 185.26 195.063 185.088C195.375 185.011 195.723 185.025 196.008 185.164C196.157 185.227 196.272 185.314 196.4 185.419C196.513 185.52 196.599 185.621 196.684 185.725C197.011 186.141 197.275 186.597 197.428 187.092Z" fill="#D87B56"/>
<path d="M190.138 178.507C189.974 177.429 194.468 175.895 194.706 177.25C194.845 178.044 190.261 179.305 190.138 178.507Z" fill="#D17742"/>
<path d="M203.707 181.008C202.728 181.597 205.786 185.361 206.589 184.911C207.391 184.46 204.739 180.388 203.707 181.008Z" fill="#D17742"/>
<path d="M194.625 168.123C192.856 169.053 190.796 170.579 189.51 174.269L193.274 175.062L196.533 170.84L194.506 175.236C194.506 175.236 198.118 176.619 202.16 178.535C202.52 178.706 204.657 174.753 204.657 174.753C204.657 174.753 203.627 178.977 203.83 179.079C204.233 179.28 204.636 179.493 205.037 179.715C205.232 179.823 206.283 177.906 206.477 178.018C206.67 178.129 206.006 180.268 206.197 180.382C207.757 181.315 209.226 182.329 210.399 183.205C210.399 183.205 213.044 179.072 210.87 174.925C208.696 170.778 199.59 165.511 194.625 168.123Z" fill="#E38D49"/>
<path d="M188.865 173.69C187.134 176.283 186.221 179.322 185.33 182.31C184.483 178.781 185.839 175.09 187.647 171.944C188.563 170.35 189.62 168.804 191.033 167.629C193.056 165.946 195.721 165.128 198.353 165.107C200.985 165.086 203.586 165.822 205.958 166.963C205.448 168.257 204.939 169.552 204.429 170.847C204.692 170.179 196.762 168.661 195.792 168.758C192.956 169.044 190.371 171.433 188.865 173.69Z" fill="#E38D49"/>
<path d="M204.372 170.666C208.248 172.137 211.128 175.943 211.491 180.073C211.636 181.721 211.411 183.381 211.068 185C210.57 187.352 209.821 189.652 208.839 191.847C211.389 190.426 213.015 187.75 213.977 184.994C215.291 181.231 215.537 176.955 213.884 173.328C212.232 169.701 209.489 167.901 205.763 167.039L204.372 170.666Z" fill="#E38D49"/>
<path d="M200.804 186.736C201.215 186.128 201.861 185.637 202.636 185.468C203.416 185.299 204.257 185.531 204.88 186.004C205.534 186.469 205.926 187.234 206.033 187.982C206.146 188.737 206.05 189.495 205.804 190.184C205.876 189.459 205.843 188.73 205.665 188.06C205.491 187.388 205.122 186.797 204.579 186.419C204.03 186.041 203.37 185.83 202.708 185.909C202.045 185.983 201.385 186.291 200.804 186.736Z" fill="#514247"/>
<path d="M193.765 183.744C193.69 183.017 193.461 182.324 193.06 181.791C192.663 181.256 192.056 180.92 191.405 180.781C190.757 180.645 190.074 180.782 189.466 181.117C188.856 181.449 188.304 181.924 187.825 182.474C188.158 181.823 188.643 181.232 189.269 180.797C189.888 180.361 190.713 180.121 191.5 180.277C192.271 180.405 193.017 180.858 193.43 181.541C193.84 182.221 193.926 183.027 193.765 183.744Z" fill="#514247"/>
<path d="M208.416 192.642C208.443 192.589 208.467 192.535 208.493 192.481C208.456 192.461 208.427 192.432 208.421 192.39C208.427 192.441 208.441 192.588 208.416 192.642Z" fill="#514247"/>
<path d="M208.419 192.389C208.419 192.39 208.42 192.391 208.42 192.392C208.418 192.371 208.417 192.364 208.419 192.389Z" fill="#514247"/>
<path d="M208.87 191.744C209.405 191.037 210.177 190.494 211.07 190.197C211.711 189.984 212.522 189.923 213.092 190.363C213.811 190.92 213.731 191.917 213.447 192.666C212.822 194.318 211.555 195.705 209.909 196.541C209.632 196.681 209.314 196.81 208.986 196.732C208.429 196.6 208.169 195.976 208.102 195.458C208.034 194.939 208.02 194.356 207.603 193.968L208.87 191.744Z" fill="#FEC08F"/>
<path d="M212.193 191.65C211.736 192.435 210.838 192.96 209.901 193.033L210.01 192.726C210.713 193.39 210.819 194.556 210.27 195.271C210.548 194.439 210.336 193.531 209.765 192.984L209.477 192.709L209.874 192.678C210.715 192.611 211.519 192.241 212.193 191.65Z" fill="#AD5858"/>
<path d="M186.114 182.01C186.256 181.135 186.115 180.202 185.714 179.35C185.425 178.739 184.909 178.111 184.197 178.003C183.298 177.867 182.632 178.614 182.286 179.336C181.522 180.929 181.394 182.804 181.928 184.571C182.017 184.869 182.144 185.187 182.427 185.371C182.907 185.683 183.537 185.439 183.959 185.13C184.381 184.821 184.812 184.43 185.38 184.463L186.114 182.01Z" fill="#FEC08F"/>
<path d="M183.887 179.541C183.925 180.437 184.212 181.274 184.745 181.928L184.997 182.237L184.598 182.219C183.809 182.184 183.005 182.658 182.596 183.433C182.734 182.542 183.651 181.814 184.616 181.863L184.469 182.154C183.875 181.426 183.635 180.414 183.887 179.541Z" fill="#AD5858"/>
<g opacity="0.14">
<path d="M206.566 165.404C205.01 166.21 203.589 167.154 202.41 168.744C204.343 167.653 206.344 166.544 208.466 165.966C207.624 165.671 206.952 165.495 206.566 165.404Z" fill="black"/>
</g>
<path d="M191.566 158.817C189.483 159.482 192.498 162.407 192.498 162.407C192.498 162.407 189.155 160.605 189.139 162.792C189.124 164.865 192.624 163.645 192.624 163.645C192.624 163.645 190.216 166.416 192.323 166.902C194.736 167.459 194.269 164.031 194.269 164.031C194.269 164.031 195.785 167.151 197.431 165.663C199.171 164.091 195.492 162.847 195.492 162.847C195.492 162.847 199.943 162.365 198.662 160.442C197.362 158.489 194.903 161.734 194.903 161.734C194.903 161.734 196.776 158.49 195.299 158.082C193.823 157.675 193.553 160.968 193.553 160.968C193.553 160.968 193.108 158.326 191.566 158.817Z" fill="#B3E2FF"/>
<path d="M192.772 162.517C192.817 161.892 193.36 161.422 193.985 161.467C194.611 161.512 195.081 162.055 195.036 162.68C194.991 163.305 194.448 163.775 193.822 163.731C193.198 163.685 192.727 163.142 192.772 162.517Z" fill="#FF4545"/>
<path d="M190.905 189.702C190.905 189.702 193.048 192.777 198.689 192.544C198.689 192.544 196.999 196.503 193.274 195.148C189.991 193.955 190.905 189.702 190.905 189.702Z" fill="#D8485A"/>
<path d="M69.2818 77.607C69.2818 77.607 74.8662 89.9151 85.1437 88.8735C95.4212 87.8319 93.7496 77.1902 93.7496 77.1902L101.916 79.8778C101.916 79.8778 106.84 87.8319 109.125 94.0835C111.408 100.335 111.045 101.907 105.957 110.556C102.031 117.229 97.7053 144.098 97.7053 144.098L69.8372 144.743L57.9543 81.4743L69.2818 77.607Z" fill="#FD5553"/>
<path d="M58.021 81.5002C58.021 81.5002 53.6419 82.8209 48.9016 104.779C45.5138 120.472 39.2512 132.236 39.2512 132.236C39.2512 132.236 44.153 138 50.9247 138.072C50.9247 138.072 68.5175 107.021 68.7877 94.4274C69.0575 81.8336 58.021 81.5002 58.021 81.5002Z" fill="#FD5553"/>
<path d="M101.882 79.9014C101.882 79.9014 107.652 81.9867 112.506 104.779C115.85 120.481 122.157 132.235 122.157 132.235C122.157 132.235 117.255 138 110.483 138.072C110.483 138.072 92.8904 107.021 92.6201 94.4273C92.3499 81.8335 101.882 79.9014 101.882 79.9014Z" fill="#FD5553"/>
<path d="M298.203 68.5913C285.97 76.3764 277.452 102.6 277.452 102.6L301.218 110.105C301.218 110.105 304.971 92.5929 303.72 83.8369C302.47 75.0809 298.203 68.5913 298.203 68.5913Z" fill="#74AAB7"/>
<path d="M325.224 76.3343C325.137 76.3343 325.051 76.3334 324.963 76.3321C316.514 76.1842 310.983 64.9398 310.761 64.47L313.333 64.0527C313.38 64.1538 318.112 73.7099 325.007 73.8308C334.44 74.0079 338.693 62.7162 338.735 62.6023L341.137 62.9409C340.944 63.4703 336.274 76.3343 325.224 76.3343Z" fill="#D4F0FF"/>
<path d="M277.967 101.297L277.052 103.625L296.516 111.272L297.431 108.944L277.967 101.297Z" fill="#D4F0FF"/>
<path d="M276.758 334.788C276.758 334.788 276.289 338.611 279.522 340.84C282.359 342.795 289.41 344.756 297.22 342.58C305.031 340.405 315.588 342.854 319.475 339.573C322.108 337.351 318.027 332.41 318.027 332.41C318.027 332.41 281.791 338.294 276.758 334.788Z" fill="#B6B7D3"/>
<path d="M298.194 323.547C295.443 323.705 293.333 329.003 288.901 329.948C284.47 330.893 280.284 330.1 278.32 331.938C276.355 333.777 276.11 335.516 277.241 337.176C278.372 338.836 288.847 340.993 295.627 338.877C302.406 336.761 316.151 337.571 318.874 335.122C320.514 333.648 319.007 325.453 317.228 324.521C315.449 323.588 309.516 328.416 306.441 328.938C303.365 329.46 300.601 323.408 298.194 323.547Z" fill="#7D8FB1"/>
<path d="M315.53 16.4904C310.884 15.3526 306.761 11.0137 307.296 6.26015C307.382 5.4941 307.821 4.55805 308.588 4.63444C309.813 4.7563 309.863 7.23682 311.077 7.03018C310.561 5.69014 310.426 3.60965 311.843 3.37432C312.168 3.32045 312.498 3.39992 312.818 3.47896C315.059 4.03308 317.3 4.58676 319.541 5.14088C318.696 4.73246 317.799 4.27724 317.342 3.45732C316.885 2.6374 317.153 1.35829 318.064 1.13223C318.417 1.0448 318.788 1.12781 319.141 1.21126C321.933 1.86781 324.725 2.52393 327.517 3.18048C330.005 3.76551 332.551 4.37482 334.684 5.78242C336.818 7.19002 338.489 9.58267 338.312 12.1325C339.539 11.2097 341.407 11.6111 342.499 12.6897C343.591 13.7684 344.044 15.338 344.232 16.8613C344.93 22.5084 342.305 28.4439 337.658 31.7271C337.416 31.898 337.148 32.0685 336.852 32.0623C336.149 32.0477 335.876 31.1509 335.824 30.4498C335.654 28.1812 335.897 24.6711 336.203 23.5491C336.759 21.5101 338.266 19.1462 336.759 18.3589C335.116 17.5011 334.164 19.1003 332.495 18.5444C329.475 17.5377 330.335 15.8065 327.205 15.5142C323.285 15.1486 319.755 17.5253 315.53 16.4904Z" fill="#774B42"/>
<path d="M297.206 111.667C296.906 111.667 296.658 111.429 296.651 111.127L295.979 86.6795C295.971 86.3727 296.213 86.117 296.52 86.1086C296.827 86.0998 297.083 86.3422 297.091 86.6491L297.762 111.096C297.77 111.403 297.528 111.659 297.221 111.667C297.216 111.667 297.211 111.667 297.206 111.667Z" fill="#49516B"/>
<path d="M296.814 101.123C296.618 101.123 296.429 101.019 296.327 100.837L290.766 90.8271C290.617 90.5587 290.714 90.22 290.982 90.0708C291.251 89.9216 291.589 90.0187 291.739 90.2867L297.299 100.296C297.448 100.565 297.352 100.903 297.083 101.053C296.998 101.1 296.905 101.123 296.814 101.123Z" fill="#49516B"/>
<path d="M344.636 63.3086L375.499 61.9182C375.499 61.9182 378.836 80.2691 376.611 90.2786L349.919 89.1663L344.636 63.3086Z" fill="#74AAB7"/>
<path d="M376.722 61.8534L374.223 61.9514L375.336 90.3107L377.835 90.2127L376.722 61.8534Z" fill="#D4F0FF"/>
<path d="M360.183 90.1883C359.879 90.1883 359.631 89.9445 359.627 89.6399L359.373 71.9354C359.369 71.6281 359.614 71.376 359.921 71.3716C360.221 71.3738 360.481 71.6127 360.486 71.92L360.739 89.6244C360.743 89.9317 360.498 90.1838 360.191 90.1883C360.188 90.1883 360.185 90.1883 360.183 90.1883Z" fill="#49516B"/>
<path d="M377.537 27.5832C377.537 27.5832 373.275 21.7417 369.382 20.2127C365.49 18.6832 362.153 16.042 362.849 14.7907C363.544 13.5394 370.773 16.737 370.773 16.737C370.773 16.737 367.993 12.0104 364.378 10.0641C360.763 8.11788 359.651 7.14475 360.068 6.17162C360.485 5.19849 364.378 5.89346 366.88 7.83972C369.382 9.78598 371.483 11.6894 371.483 11.6894C371.483 11.6894 369.243 8.11788 366.88 6.03254C364.681 4.09201 362.292 3.25223 362.987 2.14001C363.683 1.0278 366.88 2.27909 369.521 4.50352C372.162 6.72795 374.479 9.23275 374.479 9.23275C374.479 9.23275 373.625 6.30055 371.746 4.6426C369.382 2.55726 367.436 1.58413 367.992 0.33283C368.548 -0.918465 373.136 1.58413 374.943 4.08627C376.75 6.58886 378.347 8.30818 378.347 8.30818C378.347 8.30818 376.379 4.64216 374.433 2.6959C372.742 1.00484 372.348 -0.0844142 374.016 0.0546677C375.684 0.19375 377.769 2.00093 379.577 5.19849C381.384 8.39604 384.535 14.0957 385.508 16.8761C386.481 19.6564 388.567 25.7733 388.567 25.7733L377.537 27.5832Z" fill="#FFBE8C"/>
<path d="M378.969 19.9775C378.889 19.9775 378.809 19.943 378.754 19.8764C376.931 17.6652 373.925 16.5132 371.089 16.942C370.942 16.9654 370.795 16.8612 370.772 16.7088C370.749 16.557 370.853 16.4152 371.005 16.3927C374.032 15.9326 377.239 17.1636 379.184 19.5232C379.281 19.6415 379.264 19.8168 379.146 19.9143C379.094 19.9563 379.031 19.9775 378.969 19.9775Z" fill="#D16D54"/>
<path d="M369.815 14.2642C369.773 14.2642 369.731 14.2549 369.691 14.2355C369.554 14.1675 369.498 14.0006 369.566 13.8628C371.343 10.2661 375.072 7.68759 379.065 7.29375C379.217 7.28271 379.354 7.39044 379.369 7.54277C379.384 7.69554 379.272 7.83197 379.119 7.84699C375.313 8.22273 371.759 10.6807 370.064 14.1096C370.016 14.2077 369.917 14.2642 369.815 14.2642Z" fill="#D16D54"/>
<path d="M316.415 40.8815C316.415 40.8815 322.338 43.3929 326.981 40.5093C326.981 40.5093 326.42 46.3693 322.018 46.5556C317.136 46.7618 316.415 40.8815 316.415 40.8815Z" fill="#994F49"/>
<path d="M317.615 41.286C317.642 41.6524 317.685 42.0171 317.76 42.3743C318.761 42.9532 319.857 42.9435 320.971 43.0574C321.381 43.0993 321.792 43.1413 322.203 43.1346C323.376 43.1152 324.515 42.7011 325.632 42.2878C325.615 41.9381 325.611 41.5641 325.583 41.1968C322.555 42.3893 319.314 41.7774 317.615 41.286Z" fill="white"/>
<path d="M324.95 45.2502C324.648 44.8987 324.242 44.6373 323.821 44.4351C322.768 43.9304 321.564 43.7031 320.413 43.907C319.6 44.0514 318.823 44.4272 318.218 44.9835C319.057 45.9213 320.27 46.6295 322.018 46.5558C323.29 46.5019 324.24 45.973 324.95 45.2502Z" fill="#FD4E4C"/>
<path d="M93.4264 54.2282C93.4264 54.2282 87.5033 56.7396 82.8611 53.856C82.8611 53.856 83.4214 59.7159 87.8239 59.9023C92.705 60.1085 93.4264 54.2282 93.4264 54.2282Z" fill="#994F49"/>
<path d="M92.2268 54.6322C92.1994 54.9986 92.1566 55.3633 92.0815 55.7205C91.0805 56.2994 89.9842 56.2897 88.8707 56.4036C88.4605 56.4455 88.0499 56.4875 87.6384 56.4808C86.4657 56.4614 85.3274 56.0473 84.2095 55.634C84.2263 55.2843 84.2302 54.9103 84.2589 54.543C87.2865 55.7355 90.5273 55.1236 92.2268 54.6322Z" fill="white"/>
<path d="M84.8917 58.5959C85.1937 58.2444 85.5995 57.983 86.0211 57.7808C87.0742 57.2761 88.2782 57.0488 89.428 57.2527C90.2413 57.3971 91.0179 57.7729 91.6233 58.3292C90.7844 59.267 89.5715 59.9752 87.823 59.9015C86.5514 59.8481 85.6013 59.3191 84.8917 58.5959Z" fill="#FD4E4C"/>
<path d="M63.1702 112.058C65.9999 106.208 66.7403 99.3738 65.2294 93.0537L63.1702 112.058Z" fill="#FD5553"/>
<path d="M102.091 122.72C102.061 122.72 102.029 122.716 101.998 122.709C101.773 122.658 101.633 122.434 101.684 122.21L103.651 113.618C106.688 106.195 105.468 99.2726 99.8127 91.831C99.6731 91.6478 99.7089 91.3864 99.8922 91.2469C100.075 91.1074 100.337 91.1427 100.476 91.3264C106.32 99.016 107.579 106.191 104.436 113.901L102.497 122.395C102.453 122.588 102.281 122.72 102.091 122.72Z" fill="#AC3156"/>
<path d="M1.92654 173.184C1.85545 173.184 1.78439 173.157 1.73008 173.102C1.62147 172.994 1.62147 172.818 1.73008 172.709C3.71255 170.726 6.56925 169.579 10.464 169.201C10.6181 169.189 10.7527 169.299 10.7677 169.451C10.7828 169.604 10.671 169.74 10.5178 169.755C6.75644 170.12 4.01054 171.215 2.123 173.102C2.06869 173.157 1.99763 173.184 1.92654 173.184Z" fill="#D16D54"/>
<path d="M1.09201 170.682C1.01827 170.682 0.944966 170.652 0.890216 170.595C0.78469 170.483 0.789127 170.307 0.900834 170.202C2.97073 168.24 7.1052 166.688 9.74776 166.374C9.90053 166.355 10.0387 166.465 10.0568 166.617C10.0749 166.77 9.9659 166.908 9.81357 166.926C7.24784 167.231 3.20781 168.782 1.28318 170.605C1.22976 170.656 1.16089 170.682 1.09201 170.682Z" fill="#D16D54"/>
<path d="M158.488 171.024C158.41 171.024 158.333 170.991 158.278 170.929C156.191 168.545 153.186 167.003 150.034 166.697C149.881 166.682 149.769 166.546 149.784 166.393C149.798 166.24 149.933 166.131 150.087 166.143C153.38 166.463 156.518 168.073 158.697 170.562C158.798 170.677 158.786 170.853 158.671 170.954C158.618 171.001 158.553 171.024 158.488 171.024Z" fill="#D16D54"/>
<path d="M158.965 167.2C158.896 167.2 158.828 167.175 158.774 167.123C156.849 165.3 154.34 164.124 151.708 163.811C151.555 163.793 151.446 163.655 151.464 163.502C151.482 163.35 151.618 163.242 151.773 163.259C154.523 163.586 157.145 164.815 159.156 166.72C159.268 166.825 159.272 167.002 159.167 167.113C159.112 167.171 159.039 167.2 158.965 167.2Z" fill="#D16D54"/>
<path d="M110.062 329.022C110.062 329.022 121.03 332.903 123.189 336.243C124.585 338.403 124.023 342.636 122.355 343.192C117.917 344.671 112.628 342.914 106.111 341.166C102.137 340.1 98.4599 338.955 97.0629 339.022C96.8867 339.031 91.844 338.354 91.7822 338.189C91.3853 337.131 90.8113 330.999 92.0604 329.85C93.5178 328.509 110.062 329.022 110.062 329.022Z" fill="#AE564E"/>
<path d="M107.776 267.009C107.776 267.009 99.8069 322.754 102.565 324.592C105.323 326.431 111.575 329.78 115.253 331.619C118.93 333.458 122.527 337.106 121.369 338.292C119.051 340.667 112.448 339.085 107.624 336.521C104.156 334.677 91.995 334.682 91.5353 332.843C91.0757 331.004 93.0065 264.461 93.0065 264.461L107.776 267.009Z" fill="#FFCCA9"/>
<path d="M69.2045 270.44C69.2045 270.44 52.2957 329.354 52.2957 331.652C52.2957 333.95 50.4568 336.708 48.1586 339.007C45.86 341.305 42.405 344.409 40.181 345.521C35.6399 347.792 34.4274 343.467 33.5082 341.628C32.5889 339.79 41.2637 331.652 44.0219 327.515C46.7801 323.378 52.3986 271.968 52.3986 271.968L69.2045 270.44Z" fill="#FFCCA9"/>
<path d="M95.9167 327.53C93.2079 327.53 91.4797 326.472 91.3578 326.395C90.9684 326.149 90.8523 325.634 91.0983 325.245C91.3437 324.855 91.8594 324.74 92.2484 324.985C92.4206 325.091 96.6205 327.598 102.307 323.617C102.685 323.353 103.205 323.445 103.469 323.822C103.733 324.199 103.641 324.719 103.264 324.983C100.449 326.953 97.9155 327.53 95.9167 327.53Z" fill="#AE564E"/>
<path d="M91.5036 333.742C91.2254 332.63 91.5036 324.848 91.5036 324.848C91.5036 324.848 95.1166 326.238 96.2283 329.295C97.3401 332.352 97.6183 335.409 97.6183 335.409L91.5036 333.742Z" fill="#AE564E"/>
<path d="M107.624 339.856C107.624 339.856 109.465 328.393 112.472 329.395C115.807 330.507 123.594 336.624 123.745 338.745C123.943 341.531 107.624 339.856 107.624 339.856Z" fill="#AE564E"/>
<path d="M105.826 318.885C100.54 321.437 94.3598 322.144 88.8976 319.995C87.7077 300.14 87.396 280.243 87.0842 260.355C86.9739 253.296 86.863 246.238 86.7527 239.18C86.4922 222.538 84.9282 208.129 84.6677 191.486C80.9156 236.908 72.6476 277.927 59.6441 321.609C54.1329 322.123 48.2362 320.797 43.6677 317.671C46.924 293.481 49.0606 272.542 52.3168 248.352C53.1275 242.33 53.9395 236.292 54.0468 230.217C54.174 223.029 53.2295 215.867 53.0154 208.682C52.1085 178.252 56.2787 154.898 69.0111 138.266C77.9945 144.775 88.5603 144.219 98.6069 139.354C112.824 165.463 114.817 198.42 112.358 228.047C109.9 257.674 106.3 289.16 105.826 318.885Z" fill="#74AAB7"/>
<path d="M81.3021 212.866C81.2835 212.866 81.2649 212.864 81.2464 212.863C80.9762 212.832 80.7819 212.589 80.8124 212.318L80.8747 211.757C82.5304 196.689 85.5566 178.666 90.572 178.379C90.8409 178.365 91.0762 178.571 91.0917 178.842C91.1071 179.114 90.8996 179.346 90.6285 179.362C87.3497 179.55 84.0691 191.7 81.8531 211.865L81.7908 212.428C81.7626 212.68 81.5498 212.866 81.3021 212.866Z" fill="#49516B"/>
<path d="M84.6502 143.672C75.2394 143.672 68.5873 138.949 68.4911 138.879C68.2429 138.698 68.1881 138.351 68.3683 138.102C68.5493 137.854 68.8968 137.799 69.1449 137.979C69.2792 138.076 82.7577 147.62 98.3345 138.869C98.6029 138.719 98.9416 138.815 99.0917 139.082C99.2422 139.35 99.1469 139.689 98.8789 139.839C93.8031 142.69 88.9396 143.672 84.6502 143.672Z" fill="#49516B"/>
<path d="M36.2885 334.955C36.2885 334.955 39.0688 332.731 42.9614 334.399C46.8539 336.067 48.1586 339.007 48.1586 339.007C48.1586 339.007 41.5595 349.066 36.2885 346.633C29.0598 343.297 36.2885 334.955 36.2885 334.955Z" fill="#AE564E"/>
<path d="M51.86 336.345C51.8291 336.345 51.7982 336.343 51.7668 336.34C51.309 336.289 50.9796 335.877 51.0304 335.419C51.3505 332.538 50.8277 330.399 49.477 329.06C47.4707 327.071 44.207 327.437 44.1752 327.441C43.7177 327.493 43.3027 327.171 43.2471 326.715C43.191 326.259 43.5138 325.843 43.9703 325.786C44.135 325.766 48.0496 325.309 50.64 327.865C52.3788 329.58 53.0675 332.183 52.6874 335.603C52.6401 336.03 52.2795 336.345 51.86 336.345Z" fill="#AE564E"/>
<path d="M89.0571 47.1648C89.5066 46.9122 90.0978 46.9188 90.6021 47.125C91.1098 47.3277 91.5641 47.7317 91.795 48.269C92.0299 48.8051 92.0132 49.4131 91.8136 49.9221C91.6189 50.4312 91.2184 50.8675 90.7261 51.0211C91.0224 50.6083 91.176 50.1848 91.2374 49.7632C91.2957 49.342 91.244 48.9278 91.0926 48.5733C90.9385 48.2192 90.6718 47.8986 90.3247 47.6518C89.9751 47.4076 89.5605 47.2301 89.0571 47.1648Z" fill="#D87B56"/>
<path d="M319.685 33.713C319.227 33.9444 318.881 34.2702 318.631 34.6451C318.387 35.0217 318.237 35.4478 318.24 35.8685C318.231 36.2893 318.375 36.7172 318.612 37.0978C318.856 37.4762 319.197 37.8077 319.651 38.0466C319.131 38.0616 318.604 37.7985 318.233 37.3967C317.855 36.9971 317.622 36.4425 317.622 35.8641C317.632 35.2857 317.873 34.7351 318.258 34.3417C318.635 33.9457 319.166 33.6909 319.685 33.713Z" fill="#D87B56"/>
<path d="M183.371 218.829C183.146 218.829 182.961 218.651 182.954 218.425C182.857 215.21 182.135 212.886 180.958 209.44C180.883 209.222 181 208.985 181.217 208.91C181.436 208.836 181.672 208.952 181.747 209.171C182.95 212.69 183.687 215.068 183.788 218.399C183.795 218.629 183.614 218.822 183.383 218.829C183.38 218.829 183.375 218.829 183.371 218.829Z" fill="#D17742"/>
<path d="M211.917 219.756C211.687 219.756 211.5 219.569 211.5 219.339C211.5 215.627 212.378 212.694 214.183 210.371C214.324 210.189 214.587 210.156 214.768 210.297C214.95 210.439 214.983 210.701 214.842 210.882C213.155 213.053 212.334 215.82 212.334 219.339C212.334 219.569 212.147 219.756 211.917 219.756Z" fill="#D17742"/>
<path d="M216.339 257.981C213.021 256.728 210.15 254.221 208.461 251.102L208.951 250.838C210.576 253.841 213.341 256.255 216.535 257.46L216.339 257.981Z" fill="#D17742"/>
<path d="M233.276 270.307C233.276 270.307 235.434 267.763 237.065 267.327C238.695 266.89 242.055 268.831 244.176 270.229C246.298 271.627 249.433 272.135 252.132 274.653C255.043 277.368 256.363 279.854 254.368 283.009C252.428 286.078 247.941 284.293 247.941 284.293L233.276 270.307Z" fill="#49516B"/>
<path d="M199.727 260.539C199.727 260.539 204.528 283.081 212.357 290.846C220.186 298.61 239.696 271.478 239.696 271.478L232.533 271.067C232.533 271.067 219.457 283.605 217.999 282.763C216.541 281.921 215.271 263.363 210.741 257.181C206.211 250.998 200.639 251.668 199.727 260.539Z" fill="#FFBE8C"/>
<path d="M237.688 280.265C237.688 280.265 241.555 280.432 244.377 282.407C247.2 284.382 250.347 285.942 252.308 282.25C254.269 278.558 248.461 273.997 243.539 271.928C238.617 269.86 235.653 268.578 233.276 270.306C230.898 272.034 230.474 275.752 230.474 275.752L237.688 280.265Z" fill="#FFBE8C"/>
<path d="M245.465 275.454C250.784 279.819 244.045 282.387 244.045 282.387C244.045 282.387 246.949 284.668 249.687 284.699C252.426 284.731 254.965 281.976 253.188 278.193C251.411 274.409 244.668 272.063 242.573 270.767C240.479 269.471 236.787 267.511 234.41 269.239C232.032 270.967 230.9 273.673 230.9 273.673C232.19 272.782 233.857 271.117 236.389 271.33C238.873 271.539 243.617 273.936 245.465 275.454Z" fill="#507CA1"/>
<path d="M242.425 272.664C242.425 272.664 237.413 275.971 239.102 280.652L240.72 280.983C240.72 280.983 240.402 275.717 244.315 274.014L242.425 272.664Z" fill="#507CA1"/>
<path d="M242.534 273.071C242.429 272.677 242.663 272.272 243.056 272.167C243.45 272.061 243.855 272.295 243.961 272.689C244.066 273.083 243.832 273.488 243.438 273.594C243.045 273.699 242.64 273.465 242.534 273.071Z" fill="#FFC82D"/>
<path d="M184.718 256.327C184.718 256.327 187.044 281.815 188.677 290.797C190.31 299.779 192.884 318.385 192.884 318.385L197.783 317.977C197.783 317.977 198.067 307.809 197.523 301.685C196.94 295.127 196.842 290.661 196.842 290.661C196.842 290.661 197.783 262.86 196.966 254.694C196.094 245.971 190.434 248.978 184.718 256.327Z" fill="#FFBE8C"/>
<path d="M184.576 240.656C183.696 244.828 182.252 249.286 179.722 252.447C175.954 257.156 170.612 260.296 167.939 265.907C166.967 267.95 166.507 270.775 167.961 272.399C169.052 273.617 170.782 273.632 172.276 273.302C173.771 272.972 175.273 272.373 176.777 272.64C179.505 273.123 181.224 276.176 183.49 277.988C186.791 280.629 191.62 280.392 194.713 277.436C196.886 275.36 198.394 272.043 201.148 271.308C203.82 270.594 206.376 272.653 208.704 274.322C211.031 275.991 214.2 277.31 216.356 275.36C217.724 274.123 218.189 271.93 219.488 270.598C221.749 268.277 225.511 269.421 228.06 267.535C229.984 266.112 230.743 262.945 229.725 260.592C228.68 258.175 226.288 257.03 224.113 256.012C220.921 254.52 218.225 253.26 215.625 250.664C213.024 248.068 211.361 244.177 210.898 240.099L184.576 240.656Z" fill="#809FBD"/>
<path d="M188.121 328.824C188.121 328.824 186.931 334.376 193.474 333.781C200.017 333.186 200.811 328.031 201.009 325.454C201.207 322.876 201.604 318.315 200.613 317.324C199.621 316.333 194.268 317.126 192.483 320.695C190.699 324.264 188.121 328.824 188.121 328.824Z" fill="#49516B"/>
<path d="M192.087 314.944C192.087 314.944 191.08 320.152 189.311 323.867C187.328 328.031 190.104 331.401 194.768 331.044C201.241 330.548 200.474 318.262 199.105 313.926C197.735 309.59 193 310.38 192.087 314.944Z" fill="#FFBE8C"/>
<path d="M189.311 323.867C189.311 323.867 190.897 322.48 193.475 322.281C196.052 322.083 198.234 324.264 198.234 324.264C198.234 324.264 200.415 318.91 199.027 313.755C199.027 313.755 200.811 316.531 200.613 318.712C200.415 320.893 200.217 328.824 197.441 330.807C194.915 332.611 190.897 332.393 188.915 330.807C187.268 329.49 188.121 326.048 189.311 323.867Z" fill="#507CA1"/>
<path d="M200.018 318.416C200.018 318.416 197.965 316.139 194.419 316.346C190.874 316.553 190.687 318.831 190.687 318.831L190.5 320.487C190.5 320.487 191.62 318.416 194.419 318.416C197.219 318.416 199.831 320.694 199.831 320.694L200.018 318.416Z" fill="#507CA1"/>
<path d="M197.372 268.641C197.229 268.641 197.09 268.567 197.012 268.435C194.569 264.266 196.826 259.07 199.066 255.009C201.3 250.959 203.519 246.309 201.549 242.385C201.445 242.179 201.529 241.928 201.735 241.825C201.94 241.722 202.191 241.805 202.294 242.011C204.446 246.297 202.133 251.175 199.797 255.412C197.664 259.28 195.501 264.207 197.732 268.013C197.849 268.212 197.782 268.467 197.583 268.584C197.517 268.622 197.444 268.641 197.372 268.641Z" fill="#49516B"/>
<path d="M216.424 265.228C213.528 265.228 210.923 262.6 209.978 259.731C209.344 257.805 209.214 255.767 209.088 253.797C209.008 252.554 208.926 251.269 208.717 250.038C208.679 249.811 208.832 249.595 209.059 249.557C209.286 249.518 209.501 249.671 209.539 249.898C209.756 251.172 209.84 252.479 209.921 253.743C210.043 255.662 210.17 257.645 210.77 259.47C211.737 262.407 214.664 265.028 217.481 264.25C217.705 264.189 217.933 264.319 217.994 264.541C218.055 264.763 217.925 264.993 217.703 265.054C217.274 265.173 216.846 265.228 216.424 265.228Z" fill="#49516B"/>
<path d="M184.298 237.875C184.298 237.875 196.468 241.303 211.268 237.967L211.083 240.933C211.083 240.933 206.848 242.924 197.885 242.924C188.921 242.924 184.39 241.211 184.39 241.211L184.298 237.875Z" fill="#5CCCAC"/>
<path d="M83.2995 45.6767C83.2995 45.6767 83.4598 47.5797 80.4605 47.6769C77.4612 47.7744 76.2046 45.8087 76.2046 45.8087C76.2046 45.8087 77.3932 43.9389 79.8242 43.9088C82.2544 43.8779 83.2995 45.6767 83.2995 45.6767Z" fill="white"/>
<path d="M90.5724 44.8837C90.5724 44.8837 91.1353 46.4843 94.1068 46.0684C97.0059 45.6626 97.2355 43.2651 97.2355 43.2651C97.2355 43.2651 95.9123 41.8195 93.5408 42.3555C91.1702 42.8911 90.5724 44.8837 90.5724 44.8837Z" fill="white"/>
<path d="M83.3508 45.4724C83.3508 45.4724 83.2585 47.405 81.4262 47.6213C79.3329 47.8682 79.2101 44.0392 79.2101 44.0392C79.2101 44.0392 81.5533 43.4114 83.3508 45.4724Z" fill="#994F49"/>
<path d="M97.2391 43.1943C97.2391 43.1943 96.9384 45.5357 95.3666 45.7852C93.2848 46.1155 93.1805 42.4556 93.1805 42.4556C93.1805 42.4556 95.499 41.4776 97.2391 43.1943Z" fill="#994F49"/>
<path d="M83.2289 45.6205C83.0739 45.6386 82.9176 45.5605 82.8434 45.413C82.8117 45.3516 82.0642 43.948 79.8627 44.0946C77.5137 44.2496 76.5208 45.6081 76.4797 45.666C76.3574 45.8373 76.1194 45.8784 75.9485 45.7574C75.7768 45.6364 75.7344 45.4002 75.8545 45.2275C75.903 45.1578 77.0846 43.5153 79.8123 43.3329C82.5414 43.151 83.4876 44.9931 83.5265 45.0717C83.6201 45.2607 83.5428 45.4898 83.3543 45.583C83.3132 45.6037 83.2713 45.6157 83.2289 45.6205Z" fill="#272C3A"/>
<path d="M90.6276 44.8117C90.5684 44.8188 90.5066 44.8117 90.4474 44.7892C90.2509 44.7141 90.152 44.4952 90.2262 44.2987C90.2571 44.2165 91.0117 42.2857 93.4065 41.7952C96.1338 41.2371 97.386 42.7136 97.4377 42.7767C97.5715 42.9396 97.5481 43.1803 97.3851 43.3141C97.2222 43.4483 96.9816 43.4244 96.8478 43.2615C96.8085 43.2152 95.8164 42.0831 93.5593 42.5431C91.5888 42.9467 90.9653 44.5035 90.9397 44.5698C90.8872 44.7062 90.764 44.7958 90.6276 44.8117Z" fill="#272C3A"/>
<path d="M241.834 172.571C241.794 172.571 241.753 172.562 241.714 172.543C241.575 172.477 241.517 172.311 241.583 172.173C243.444 168.277 246.478 164.859 250.125 162.549C250.255 162.467 250.426 162.506 250.508 162.635C250.591 162.765 250.552 162.937 250.422 163.019C246.863 165.275 243.902 168.61 242.085 172.413C242.037 172.512 241.937 172.571 241.834 172.571Z" fill="#D16D54"/>
<path d="M246.004 173.274C245.967 173.274 245.93 173.267 245.894 173.251C245.753 173.19 245.688 173.027 245.749 172.886C246.627 170.862 248.159 169.285 249.924 167.579C251.425 166.129 253.059 164.698 255.08 164.52C255.236 164.505 255.368 164.62 255.381 164.773C255.395 164.926 255.281 165.061 255.129 165.075C253.287 165.237 251.799 166.541 250.311 167.979C248.589 169.643 247.096 171.177 246.259 173.107C246.214 173.212 246.111 173.274 246.004 173.274Z" fill="#D16D54"/>
<path d="M77.1384 23.8938C78.1238 27.3315 77.4655 31.5627 74.8936 34.8044C72.599 37.7331 69.0195 39.8803 66.9245 42.8142C64.0391 46.7699 64.338 52.3195 66.4697 56.6853C67.5236 58.8877 69.3299 61.3134 69.0774 63.9414C68.7528 67.4904 64.8992 68.9788 63.9212 71.8819C63.2792 73.7544 63.7913 75.7797 64.9367 77.1105C64.0227 76.2226 63.4735 75.0547 63.3463 73.6983C62.926 69.1643 68.0428 67.5306 68.2119 63.8739C68.3515 61.5753 66.5796 59.2343 65.527 57.1551C63.1189 52.3725 62.9096 46.403 66.0754 42.1965C69.2323 38.0086 74.2887 36.0624 76.2928 31.232C77.2999 28.9692 77.5909 26.3809 77.1384 23.8938Z" fill="#774B42"/>
<path d="M101.838 48.6389C103.734 50.466 104.707 53.3456 104.153 56.076C103.401 60.0083 99.4952 62.4615 98.8325 66.4039C98.262 69.5197 100.743 70.7454 101.762 73.0944C102.28 74.4026 102.315 76.0787 101.145 76.8407C102.073 75.952 101.881 74.4494 101.268 73.3257C100.385 71.7097 98.4179 70.5414 97.8991 68.389C97.3812 66.3186 98.1851 64.2103 99.3009 62.4102C100.799 60.1054 102.647 58.3146 103.312 55.8796C103.948 53.4821 103.374 50.7644 101.838 48.6389Z" fill="#774B42"/>
<path d="M63.7203 112.71C63.5142 112.71 63.3349 112.557 63.3075 112.347L61.2222 96.3596C61.1926 96.1313 61.3538 95.922 61.5816 95.892C61.8099 95.8633 62.0191 96.0236 62.0491 96.2514L64.1345 112.239C64.1641 112.467 64.0029 112.676 63.7751 112.706C63.7566 112.709 63.7384 112.71 63.7203 112.71Z" fill="#AC3156"/>
</svg>
