<svg width="34" height="35" viewBox="0 0 34 35" fill="none" xmlns="http://www.w3.org/2000/svg">
<path d="M17 16.3042C21.675 11.9292 24.0834 9.68334 24.0834 6.83959C24.0834 4.65209 22.3125 2.91667 20.1875 2.91667C18.9692 2.91667 17.8075 3.44167 17 4.37501C16.1925 3.44167 15.0309 2.91667 13.7275 2.91667C11.6025 2.91667 9.91671 4.73959 9.91671 6.92709C9.91671 9.68334 12.325 11.9292 17 16.3042ZM15.8384 17.5C11.5884 12.6875 9.40671 10.2083 6.64421 10.2083C4.51921 10.2083 2.83337 12.0313 2.83337 14.2188C2.83337 15.4729 3.34337 16.6688 4.25004 17.5C3.34337 18.3313 2.83337 19.5271 2.83337 20.8688C2.83337 23.0563 4.60421 24.7917 6.72921 24.7917C9.40671 24.7917 11.5884 22.3125 15.8384 17.5ZM18.1759 17.5C22.4117 22.3125 24.5934 24.7917 27.3559 24.7917C29.4809 24.7917 31.1667 22.9688 31.1667 20.7813C31.1667 19.5271 30.6567 18.3313 29.75 17.5C30.6567 16.6688 31.1667 15.4729 31.1667 14.1313C31.1667 11.9438 29.3959 10.2083 27.2709 10.2083C24.5934 10.2083 22.4117 12.6875 18.1759 17.5ZM17 18.6958C12.325 23.0708 9.91671 25.3167 9.91671 28.1604C9.91671 30.3479 11.6875 32.0833 13.8125 32.0833C15.0309 32.0833 16.1925 31.5583 17 30.625C17.8075 31.5583 18.9692 32.0833 20.2725 32.0833C22.3975 32.0833 24.0834 30.2604 24.0834 28.0729C24.0834 25.3167 21.675 23.0708 17 18.6958Z" fill="#838383"/>
</svg>
