<svg width="34" height="35" viewBox="0 0 34 35" fill="none" xmlns="http://www.w3.org/2000/svg">
<path d="M18.0625 5.74583C19.4791 4.69583 21.1225 4.17083 22.9783 4.17083C23.9983 4.17083 25.1175 4.44792 26.3358 5.03125C27.5541 5.6 28.5175 6.27083 29.2258 7.04375C30.685 8.91042 31.2941 11.0833 31.0816 13.5625C30.855 16.0417 30.0616 17.9813 28.6875 19.3521L17.935 30.4208C17.6658 30.6979 17.3258 30.8292 16.9291 30.8292C16.5325 30.8292 16.2066 30.6979 15.9375 30.4208C15.6683 30.1438 15.5408 29.8083 15.5408 29.4C15.5408 28.9917 15.6683 28.6417 15.9375 28.3646L22.44 21.6708C22.7941 21.35 22.7941 21.0146 22.44 20.65C22.0858 20.2854 21.76 20.2854 21.4483 20.65L14.9458 27.3438C14.6766 27.6208 14.3508 27.7521 13.94 27.7521C13.5433 27.7521 13.2175 27.6208 12.9483 27.3438C12.6791 27.0667 12.5516 26.7312 12.5516 26.3229C12.5516 25.9146 12.6791 25.5646 12.9483 25.2875L19.4508 18.5938C19.8333 18.2292 19.8333 17.8646 19.4508 17.5C19.125 17.1354 18.8133 17.1354 18.4591 17.5L11.9566 24.2667C11.6875 24.5437 11.3333 24.675 10.9508 24.675C10.5541 24.675 10.2141 24.5437 9.91663 24.2667C9.6333 23.9896 9.49163 23.6542 9.49163 23.2458C9.49163 22.8375 9.64747 22.4729 9.95913 22.1521L16.4758 15.4437C16.83 15.0792 16.83 14.7437 16.4758 14.4229C16.1216 14.1021 15.7816 14.1021 15.47 14.4229L8.89663 21.1458C8.58497 21.4375 8.25913 21.5979 7.90497 21.5979C7.5083 21.5979 7.1683 21.4521 6.9133 21.1458C6.64413 20.8542 6.50247 20.5042 6.50247 20.0958C6.50247 19.6875 6.64413 19.3521 6.9133 19.075C11.2483 14.5833 13.9258 11.8708 14.9458 10.8646L19.9891 15.9979C20.5416 16.5375 21.1791 16.8146 21.9583 16.8146C22.95 16.8146 23.7291 16.4062 24.31 15.5896C24.7066 14.9917 24.8483 14.3354 24.735 13.6062C24.6216 12.8771 24.3241 12.2646 23.8425 11.7542L18.0625 5.74583ZM20.9808 14.9771L14.9458 8.75L4.9158 19.075C3.7258 17.8354 3.0458 15.9396 2.88997 13.3583C2.73413 10.7917 3.41413 8.56042 4.9158 6.69375C6.60163 4.97292 8.6133 4.09792 10.9508 4.09792C13.3025 4.09792 15.3 4.97292 16.9291 6.69375L22.9783 12.9208C23.2475 13.1979 23.375 13.5333 23.375 13.9417C23.375 14.35 23.2475 14.7 22.9783 14.9771C22.7091 15.2396 22.3833 15.3854 21.9583 15.3854C21.5758 15.3854 21.25 15.2396 20.9808 14.9771Z" fill="#838383"/>
</svg>
