<svg width="20" height="20" viewBox="0 0 20 20" fill="none" xmlns="http://www.w3.org/2000/svg">
<g id="Instagram">
<path id="Vector" d="M6.49996 1.66669H13.5C16.1666 1.66669 18.3333 3.83335 18.3333 6.50002V13.5C18.3333 14.7819 17.8241 16.0113 16.9176 16.9177C16.0112 17.8241 14.7818 18.3334 13.5 18.3334H6.49996C3.83329 18.3334 1.66663 16.1667 1.66663 13.5V6.50002C1.66663 5.21814 2.17585 3.98876 3.08228 3.08234C3.9887 2.17591 5.21808 1.66669 6.49996 1.66669ZM6.33329 3.33335C5.53764 3.33335 4.77458 3.64942 4.21197 4.21203C3.64936 4.77464 3.33329 5.5377 3.33329 6.33335V13.6667C3.33329 15.325 4.67496 16.6667 6.33329 16.6667H13.6666C14.4623 16.6667 15.2253 16.3506 15.7879 15.788C16.3506 15.2254 16.6666 14.4623 16.6666 13.6667V6.33335C16.6666 4.67502 15.325 3.33335 13.6666 3.33335H6.33329ZM14.375 4.58335C14.6512 4.58335 14.9162 4.6931 15.1115 4.88845C15.3069 5.0838 15.4166 5.34875 15.4166 5.62502C15.4166 5.90129 15.3069 6.16624 15.1115 6.36159C14.9162 6.55694 14.6512 6.66669 14.375 6.66669C14.0987 6.66669 13.8337 6.55694 13.6384 6.36159C13.443 6.16624 13.3333 5.90129 13.3333 5.62502C13.3333 5.34875 13.443 5.0838 13.6384 4.88845C13.8337 4.6931 14.0987 4.58335 14.375 4.58335ZM9.99996 5.83335C11.105 5.83335 12.1648 6.27234 12.9462 7.05374C13.7276 7.83514 14.1666 8.89495 14.1666 10C14.1666 11.1051 13.7276 12.1649 12.9462 12.9463C12.1648 13.7277 11.105 14.1667 9.99996 14.1667C8.89489 14.1667 7.83508 13.7277 7.05368 12.9463C6.27228 12.1649 5.83329 11.1051 5.83329 10C5.83329 8.89495 6.27228 7.83514 7.05368 7.05374C7.83508 6.27234 8.89489 5.83335 9.99996 5.83335ZM9.99996 7.50002C9.33692 7.50002 8.70103 7.76341 8.23219 8.23225C7.76335 8.70109 7.49996 9.33698 7.49996 10C7.49996 10.6631 7.76335 11.2989 8.23219 11.7678C8.70103 12.2366 9.33692 12.5 9.99996 12.5C10.663 12.5 11.2989 12.2366 11.7677 11.7678C12.2366 11.2989 12.5 10.6631 12.5 10C12.5 9.33698 12.2366 8.70109 11.7677 8.23225C11.2989 7.76341 10.663 7.50002 9.99996 7.50002Z" fill="#FFF500"/>
</g>
</svg>
