<svg width="64" height="64" viewBox="0 0 64 64" fill="none" xmlns="http://www.w3.org/2000/svg">
<g filter="url(#filter0_d_1524_5)">
<circle cx="32" cy="32" r="22" fill="#FFF500"/>
<circle cx="32" cy="32" r="21" stroke="white" stroke-width="2"/>
</g>
<path d="M40.25 25.5C38.7282 25.5 37.4712 26.5442 37.1018 27.9456L32.6918 26.6805C32.2393 26.5432 31.7607 26.5432 31.3082 26.6805L26.8982 27.9456C26.5288 26.5442 25.2718 25.5 23.75 25.5C21.9539 25.5 20.5 26.9539 20.5 28.75V32.25C20.5 34.0461 21.9539 35.5 23.75 35.5H25.3725C26.6337 37.8719 29.1217 39.5 32 39.5C34.8783 39.5 37.3663 37.8719 38.6275 35.5H40.25C42.0461 35.5 43.5 34.0461 43.5 32.25V28.75C43.5 26.9539 42.0461 25.5 40.25 25.5ZM24.5 33H23.75C23.3361 33 23 32.6639 23 32.25V28.75C23 28.3361 23.3361 28 23.75 28C24.1639 28 24.5 28.3361 24.5 28.75V33ZM32.5787 30.7857L33.8482 31.1721L32.5432 30.8207C32.3607 30.7615 32.1609 30.7252 31.9626 30.725C32.1561 30.725 32.3648 30.7444 32.5787 30.7857ZM31.9578 30.725C31.7752 30.7253 31.594 30.7564 31.4289 30.8283L30.1518 31.1721L31.4327 30.7823C31.5856 30.7452 31.764 30.7253 31.9578 30.725ZM41 32.25C41 32.6639 40.6639 33 40.25 33H39.5V28.75C39.5 28.3361 39.8361 28 40.25 28C40.6639 28 41 28.3361 41 28.75V32.25Z" fill="white" stroke="#838383"/>
<defs>
<filter id="filter0_d_1524_5" x="0" y="0" width="64" height="64" filterUnits="userSpaceOnUse" color-interpolation-filters="sRGB">
<feFlood flood-opacity="0" result="BackgroundImageFix"/>
<feColorMatrix in="SourceAlpha" type="matrix" values="0 0 0 0 0 0 0 0 0 0 0 0 0 0 0 0 0 0 127 0" result="hardAlpha"/>
<feOffset/>
<feGaussianBlur stdDeviation="5"/>
<feComposite in2="hardAlpha" operator="out"/>
<feColorMatrix type="matrix" values="0 0 0 0 1 0 0 0 0 0.96 0 0 0 0 0 0 0 0 1 0"/>
<feBlend mode="normal" in2="BackgroundImageFix" result="effect1_dropShadow_1524_5"/>
<feBlend mode="normal" in="SourceGraphic" in2="effect1_dropShadow_1524_5" result="shape"/>
</filter>
</defs>
</svg>
