<svg width="20" height="20" viewBox="0 0 20 20" fill="none" xmlns="http://www.w3.org/2000/svg">
<path d="M9.99996 16.6665C13.6666 16.6665 16.6666 13.6665 16.6666 9.99984C16.6666 6.33317 13.6666 3.33317 9.99996 3.33317C6.33329 3.33317 3.33329 6.33317 3.33329 9.99984C3.33329 13.6665 6.33329 16.6665 9.99996 16.6665ZM9.99996 1.6665C14.5833 1.6665 18.3333 5.4165 18.3333 9.99984C18.3333 14.5832 14.5833 18.3332 9.99996 18.3332C5.41663 18.3332 1.66663 14.5832 1.66663 9.99984C1.66663 5.4165 5.41663 1.6665 9.99996 1.6665ZM14.1666 11.5832L13.5833 12.6665L9.16663 10.2498V5.83317H10.4166V9.49984L14.1666 11.5832Z" fill="#FFF500"/>
</svg>
