<svg width="35" height="35" viewBox="0 0 35 35" fill="none" xmlns="http://www.w3.org/2000/svg">
<path d="M23.3333 5.83334C23.3333 4.22917 24.6458 2.91667 26.25 2.91667C27.8541 2.91667 29.1666 4.22917 29.1666 5.83334C29.1666 7.4375 27.8541 8.75 26.25 8.75C24.6458 8.75 23.3333 7.4375 23.3333 5.83334ZM29.1666 32.0833V23.3333H32.8125L29.1666 12.25C28.7291 11.0833 27.7083 10.2083 26.3958 10.2083H26.25C24.9375 10.2083 23.9166 11.0833 23.4791 12.25L22.1666 16.0417C23.7708 16.9167 24.7916 18.5208 24.7916 20.5625V32.2292H29.1666M18.2291 16.7708C19.3958 16.7708 20.4166 15.75 20.4166 14.5833C20.4166 13.4167 19.3958 12.3958 18.2291 12.3958C17.0625 12.3958 16.0416 13.4167 16.0416 14.5833C16.0416 15.75 17.0625 16.7708 18.2291 16.7708ZM8.02079 8.75C9.62496 8.75 10.9375 7.4375 10.9375 5.83334C10.9375 4.22917 9.62496 2.91667 8.02079 2.91667C6.41663 2.91667 5.10413 4.22917 5.10413 5.83334C5.10413 7.4375 6.41663 8.75 8.02079 8.75ZM10.9375 32.0833V21.875H13.125V13.125C13.125 11.5208 11.8125 10.2083 10.2083 10.2083H5.83329C4.22913 10.2083 2.91663 11.5208 2.91663 13.125V21.875H5.10413V32.0833H10.9375ZM20.4166 32.0833V26.25H21.875V20.4167C21.875 19.25 20.8541 18.2292 19.6875 18.2292H16.7708C15.6041 18.2292 14.5833 19.25 14.5833 20.4167V26.25H16.0416V32.0833H20.4166Z" fill="#838383"/>
</svg>
