<svg width="21" height="20" viewBox="0 0 21 20" fill="none" xmlns="http://www.w3.org/2000/svg">
<path d="M4.375 2.5C3.40375 2.5 2.625 3.25 2.625 4.16667V15.8333C2.625 16.2754 2.80937 16.6993 3.13756 17.0118C3.46575 17.3244 3.91087 17.5 4.375 17.5H16.625C17.0891 17.5 17.5342 17.3244 17.8624 17.0118C18.1906 16.6993 18.375 16.2754 18.375 15.8333V13.9333C18.8913 13.6417 19.25 13.1167 19.25 12.5V7.5C19.25 6.88333 18.8913 6.35833 18.375 6.06667V4.16667C18.375 3.72464 18.1906 3.30072 17.8624 2.98816C17.5342 2.67559 17.0891 2.5 16.625 2.5H4.375ZM4.375 4.16667H16.625V5.83333H11.375C10.9109 5.83333 10.4658 6.00893 10.1376 6.32149C9.80937 6.63405 9.625 7.05797 9.625 7.5V12.5C9.625 12.942 9.80937 13.3659 10.1376 13.6785C10.4658 13.9911 10.9109 14.1667 11.375 14.1667H16.625V15.8333H4.375V4.16667ZM11.375 7.5H17.5V12.5H11.375V7.5ZM14 8.75C13.6519 8.75 13.3181 8.8817 13.0719 9.11612C12.8258 9.35054 12.6875 9.66848 12.6875 10C12.6875 10.3315 12.8258 10.6495 13.0719 10.8839C13.3181 11.1183 13.6519 11.25 14 11.25C14.3481 11.25 14.6819 11.1183 14.9281 10.8839C15.1742 10.6495 15.3125 10.3315 15.3125 10C15.3125 9.66848 15.1742 9.35054 14.9281 9.11612C14.6819 8.8817 14.3481 8.75 14 8.75Z" fill="#FFF500"/>
</svg>
