<svg width="23" height="24" viewBox="0 0 23 24" fill="none" xmlns="http://www.w3.org/2000/svg">
<path d="M17.7359 2.52632L20.4832 5.17895L13.4169 10.7368L12.1391 9.47368L17.7231 2.52632H17.7359ZM17.7359 0C16.9948 0 16.2664 0.303158 15.7553 0.909474L8.68906 9.66316L13.2125 14.1347L22.0804 7.16211C23.2304 6.20211 23.3199 4.47158 22.2465 3.41053L19.5504 0.745263C19.0393 0.24 18.3876 0 17.7359 0ZM7.7946 10.56L6.88736 11.4568C6.38901 11.9495 6.38901 12.7453 6.88736 13.2632L9.58352 15.9158C9.85186 16.1684 10.1713 16.2821 10.5035 16.2821C10.8358 16.2821 11.1552 16.1684 11.4108 15.9158L12.3052 15.0316L7.7946 10.56ZM3.83341 16.4211C3.13062 16.4211 2.5556 16.9895 2.5556 17.6842C2.5556 18.3789 3.13062 18.9474 3.83341 18.9474C4.5362 18.9474 5.11121 18.3789 5.11121 17.6842C5.11121 16.9895 4.5362 16.4211 3.83341 16.4211ZM7.66681 17.6842C6.96402 17.6842 6.38901 18.2526 6.38901 18.9474C6.38901 19.6421 6.96402 20.2105 7.66681 20.2105C8.36961 20.2105 8.94462 19.6421 8.94462 18.9474C8.94462 18.2526 8.36961 17.6842 7.66681 17.6842ZM1.2778 20.2105C0.575011 20.2105 0 20.7789 0 21.4737C0 22.1684 0.575011 22.7368 1.2778 22.7368C1.98059 22.7368 2.5556 22.1684 2.5556 21.4737C2.5556 20.7789 1.98059 20.2105 1.2778 20.2105ZM5.11121 21.4737C4.40842 21.4737 3.83341 22.0421 3.83341 22.7368C3.83341 23.4316 4.40842 24 5.11121 24C5.814 24 6.38901 23.4316 6.38901 22.7368C6.38901 22.0421 5.814 21.4737 5.11121 21.4737Z" fill="#FFF500"/>
</svg>
