<svg width="64" height="64" viewBox="0 0 64 64" fill="none" xmlns="http://www.w3.org/2000/svg">
<g filter="url(#filter0_d_1524_3)">
<circle cx="32" cy="32" r="22" fill="#FFF500"/>
<circle cx="32" cy="32" r="21" stroke="white" stroke-width="2"/>
</g>
<path d="M34.53 32.5L34.5333 32.5C34.9519 32.4972 35.3654 32.4069 35.747 32.2348C36.1286 32.0627 36.4699 31.8126 36.7491 31.5007C37.0283 31.1887 37.2391 30.8218 37.3679 30.4235C37.4968 30.0252 37.5409 29.6043 37.4973 29.188L37.4964 29.1794L37.4952 29.1708C37.3908 28.423 37.017 27.7391 36.444 27.2473C35.8719 26.7564 35.1406 26.4907 34.3868 26.5H32.0422C32.1719 26.4999 32.3018 26.4871 32.4302 26.4616C32.8182 26.3844 33.1745 26.1939 33.4543 25.9142C33.6298 25.7386 33.7702 25.5329 33.8695 25.308C33.8863 25.3353 33.9035 25.3623 33.9214 25.3889C34.1961 25.8 34.5865 26.1205 35.0433 26.3097C35.5001 26.4989 36.0028 26.5484 36.4878 26.452C36.9727 26.3555 37.4182 26.1174 37.7678 25.7678C38.1174 25.4181 38.3555 24.9727 38.452 24.4877C38.5485 24.0028 38.499 23.5001 38.3097 23.0433C38.1205 22.5865 37.8001 22.196 37.389 21.9213C36.9778 21.6466 36.4945 21.5 36 21.5C35.337 21.5 34.7011 21.7634 34.2323 22.2322C33.9418 22.5227 33.7303 22.8772 33.6113 23.2626C33.4819 23.0983 33.3269 22.9545 33.1512 22.8371C32.8223 22.6173 32.4356 22.5 32.04 22.5C31.5096 22.5 31.0009 22.7107 30.6258 23.0858C30.2877 23.424 30.0831 23.8708 30.0461 24.3442C30.0069 24.3118 29.966 24.2812 29.9234 24.2528C29.6767 24.088 29.3867 24 29.09 24C28.6922 24 28.3107 24.158 28.0294 24.4393C27.7481 24.7206 27.59 25.1022 27.59 25.5C27.59 25.5354 27.5913 25.5708 27.5938 25.606C27.4184 25.5363 27.2306 25.5 27.04 25.5C26.6422 25.5 26.2607 25.658 25.9794 25.9393C25.6981 26.2206 25.54 26.6022 25.54 27C25.54 27.2967 25.628 27.5867 25.7928 27.8334C25.9577 28.08 26.1919 28.2723 26.466 28.3858C26.7058 28.4852 26.9667 28.5203 27.2231 28.4888C26.4759 29.2639 25.9291 30.2167 25.6388 31.2643C25.4725 31.8443 25.5216 32.465 25.7771 33.0117L25.777 33.0117L25.78 33.0179C26.1929 33.8704 26.4082 34.805 26.41 35.7521C26.3799 36.6471 26.162 37.5259 25.7704 38.3314L25.7703 38.3313L25.7658 38.341C25.6043 38.692 25.5292 39.0765 25.5468 39.4624C25.5643 39.8484 25.674 40.2245 25.8666 40.5593L25.8715 40.5677L25.8766 40.5759C26.3329 41.3027 27.0049 41.8689 27.7986 42.1954C28.5921 42.5217 29.4678 42.5922 30.3033 42.397C30.9254 42.253 31.504 41.9622 31.9907 41.5489C32.4776 41.1354 32.8584 40.6113 33.1012 40.0205C33.344 39.4297 33.4418 38.7893 33.3864 38.153C33.331 37.5166 33.124 36.9028 32.7827 36.3629L32.7827 36.3628L32.7799 36.3586C32.5223 35.96 32.3931 35.4919 32.4097 35.0176L32.4107 34.9896L32.4087 34.9633L32.4087 34.9631L32.4086 34.9626L32.4086 34.9622L32.4085 34.9608L32.4076 34.9438C32.4069 34.9275 32.406 34.9013 32.4057 34.8667C32.4051 34.7974 32.4069 34.6954 32.417 34.5719C32.4374 34.3221 32.4905 33.9996 32.6158 33.685C32.7404 33.3723 32.9299 33.0827 33.2162 32.8704C33.4981 32.6613 33.91 32.5 34.53 32.5ZM30.1507 26.5607C30.35 26.3614 30.4889 26.1102 30.5519 25.8362L31.9106 26.5L31.91 27V26.5H31.9102C30.6859 26.4986 29.4902 26.8429 28.4586 27.4875C28.4804 27.424 28.498 27.3589 28.5112 27.2926C28.5374 27.1608 28.5457 27.0267 28.5363 26.894C28.8049 27.0008 29.0989 27.0276 29.3827 26.9712C29.6736 26.9133 29.9409 26.7704 30.1507 26.5607Z" fill="white" stroke="#838383"/>
<defs>
<filter id="filter0_d_1524_3" x="0" y="0" width="64" height="64" filterUnits="userSpaceOnUse" color-interpolation-filters="sRGB">
<feFlood flood-opacity="0" result="BackgroundImageFix"/>
<feColorMatrix in="SourceAlpha" type="matrix" values="0 0 0 0 0 0 0 0 0 0 0 0 0 0 0 0 0 0 127 0" result="hardAlpha"/>
<feOffset/>
<feGaussianBlur stdDeviation="5"/>
<feComposite in2="hardAlpha" operator="out"/>
<feColorMatrix type="matrix" values="0 0 0 0 1 0 0 0 0 0.96 0 0 0 0 0 0 0 0 1 0"/>
<feBlend mode="normal" in2="BackgroundImageFix" result="effect1_dropShadow_1524_3"/>
<feBlend mode="normal" in="SourceGraphic" in2="effect1_dropShadow_1524_3" result="shape"/>
</filter>
</defs>
</svg>
