<svg width="60" height="60" viewBox="0 0 60 60" fill="none" xmlns="http://www.w3.org/2000/svg">
<path d="M8.875 47.725L12.4 51.25L16.9 46.775L13.35 43.225M30 15C21.725 15 15 21.725 15 30C15 38.275 21.725 45 30 45C38.275 45 45 38.275 45 30C45 21.7 38.275 15 30 15ZM50 32.5H57.5V27.5H50M43.1 46.775L47.6 51.25L51.125 47.725L46.65 43.225M51.125 12.5L47.6 9L43.1 13.475L46.65 17.025M32.5 2.5H27.5V10H32.5M16.9 13.475L12.4 9L8.875 12.5L13.35 17.025L16.9 13.475ZM2.5 32.5H10V27.5H2.5M32.5 50H27.5V57.5H32.5" fill="#FFF500"/>
</svg>
