<svg width="26" height="28" viewBox="0 0 26 28" fill="none" xmlns="http://www.w3.org/2000/svg">
<path d="M4.33331 2.46362L6.49998 24.9636H18.4166L20.5833 2.46362H4.33331ZM6.71665 4.71362H18.2L17.875 8.34737C14.2783 9.77612 12.8375 8.84237 12.3283 8.43737C12.0575 8.22362 11.6675 7.73987 10.9525 7.40237C10.2375 7.05362 9.26248 6.96362 8.12498 7.32362C7.68081 7.44737 7.33415 7.64987 7.04165 7.85237L6.71665 4.71362ZM9.59831 9.33737C9.80415 9.33737 9.92331 9.38237 10.0425 9.43862C10.2916 9.55112 10.5191 9.83237 11.0175 10.2261C11.9491 10.9686 14.1158 11.8686 17.615 10.7999L16.4666 22.7136H8.44998L7.26915 10.4061C7.32331 10.3386 7.48581 10.2149 7.76748 10.0124C8.12498 9.77612 8.56915 9.52862 8.66665 9.49487H8.69915C9.11081 9.37112 9.39248 9.32612 9.59831 9.33737Z" fill="#B17AD3"/>
</svg>
