<svg width="17" height="19" viewBox="0 0 17 19" fill="none" xmlns="http://www.w3.org/2000/svg">
<path d="M4.125 9.625H5.875V11.375H4.125V9.625ZM14.625 2.625H13.75V0.875H12V2.625H5V0.875H3.25V2.625H2.375C1.4125 2.625 0.625 3.4125 0.625 4.375V16.625C0.625 17.5875 1.4125 18.375 2.375 18.375H14.625C15.5875 18.375 16.375 17.5875 16.375 16.625V4.375C16.375 3.4125 15.5875 2.625 14.625 2.625ZM14.625 4.375V6.125H2.375V4.375H14.625ZM2.375 16.625V7.875H14.625V16.625H2.375ZM7.625 13.125H9.375V14.875H7.625V13.125ZM11.125 13.125H12.875V14.875H11.125V13.125ZM11.125 9.625H12.875V11.375H11.125V9.625Z" fill="#FFF500"/>
</svg>
